<svg width="820" height="541" viewBox="0 0 820 541" fill="none" xmlns="http://www.w3.org/2000/svg">
<rect x="0.5" y="0.5" width="819" height="539.438" rx="39.5" fill="white" stroke="black"/>
<path d="M256.064 295.288C252.736 295.288 249.728 294.552 247.04 293.08C244.384 291.608 242.288 289.576 240.752 286.984C239.248 284.36 238.496 281.432 238.496 278.2C238.496 274.968 239.248 272.056 240.752 269.464C242.288 266.84 244.4 264.792 247.088 263.32C249.776 261.848 252.784 261.112 256.112 261.112C258.608 261.112 260.912 261.528 263.024 262.36C265.136 263.192 266.928 264.408 268.4 266.008L266.144 268.264C263.52 265.608 260.208 264.28 256.208 264.28C253.552 264.28 251.136 264.888 248.96 266.104C246.784 267.32 245.072 268.984 243.824 271.096C242.608 273.208 242 275.576 242 278.2C242 280.824 242.608 283.192 243.824 285.304C245.072 287.416 246.784 289.08 248.96 290.296C251.136 291.512 253.552 292.12 256.208 292.12C260.24 292.12 263.552 290.776 266.144 288.088L268.4 290.344C266.928 291.944 265.12 293.176 262.976 294.04C260.864 294.872 258.56 295.288 256.064 295.288ZM284.447 295.24C282.015 295.24 279.823 294.696 277.871 293.608C275.919 292.488 274.383 290.952 273.263 289C272.143 287.048 271.583 284.84 271.583 282.376C271.583 279.912 272.143 277.704 273.263 275.752C274.383 273.8 275.919 272.28 277.871 271.192C279.823 270.104 282.015 269.56 284.447 269.56C286.879 269.56 289.071 270.104 291.023 271.192C292.975 272.28 294.495 273.8 295.583 275.752C296.703 277.704 297.263 279.912 297.263 282.376C297.263 284.84 296.703 287.048 295.583 289C294.495 290.952 292.975 292.488 291.023 293.608C289.071 294.696 286.879 295.24 284.447 295.24ZM284.447 292.216C286.239 292.216 287.839 291.816 289.247 291.016C290.687 290.184 291.807 289.016 292.607 287.512C293.407 286.008 293.807 284.296 293.807 282.376C293.807 280.456 293.407 278.744 292.607 277.24C291.807 275.736 290.687 274.584 289.247 273.784C287.839 272.952 286.239 272.536 284.447 272.536C282.655 272.536 281.039 272.952 279.599 273.784C278.191 274.584 277.071 275.736 276.239 277.24C275.439 278.744 275.039 280.456 275.039 282.376C275.039 284.296 275.439 286.008 276.239 287.512C277.071 289.016 278.191 290.184 279.599 291.016C281.039 291.816 282.655 292.216 284.447 292.216ZM335.709 269.56C338.877 269.56 341.357 270.472 343.149 272.296C344.973 274.12 345.885 276.808 345.885 280.36V295H342.477V280.696C342.477 278.072 341.837 276.072 340.557 274.696C339.309 273.32 337.533 272.632 335.229 272.632C332.605 272.632 330.541 273.448 329.037 275.08C327.533 276.68 326.781 278.904 326.781 281.752V295H323.373V280.696C323.373 278.072 322.733 276.072 321.453 274.696C320.205 273.32 318.413 272.632 316.077 272.632C313.485 272.632 311.421 273.448 309.885 275.08C308.381 276.68 307.629 278.904 307.629 281.752V295H304.221V269.752H307.485V274.36C308.381 272.824 309.629 271.64 311.229 270.808C312.829 269.976 314.669 269.56 316.749 269.56C318.861 269.56 320.685 270.008 322.221 270.904C323.789 271.8 324.957 273.128 325.725 274.888C326.653 273.224 327.981 271.928 329.709 271C331.469 270.04 333.469 269.56 335.709 269.56ZM355.127 269.752H358.535V295H355.127V269.752ZM356.855 264.232C356.151 264.232 355.559 263.992 355.079 263.512C354.599 263.032 354.359 262.456 354.359 261.784C354.359 261.144 354.599 260.584 355.079 260.104C355.559 259.624 356.151 259.384 356.855 259.384C357.559 259.384 358.151 259.624 358.631 260.104C359.111 260.552 359.351 261.096 359.351 261.736C359.351 262.44 359.111 263.032 358.631 263.512C358.151 263.992 357.559 264.232 356.855 264.232ZM380.882 269.56C384.05 269.56 386.562 270.488 388.418 272.344C390.306 274.168 391.25 276.84 391.25 280.36V295H387.842V280.696C387.842 278.072 387.186 276.072 385.874 274.696C384.562 273.32 382.69 272.632 380.258 272.632C377.538 272.632 375.378 273.448 373.778 275.08C372.21 276.68 371.426 278.904 371.426 281.752V295H368.018V269.752H371.282V274.408C372.21 272.872 373.49 271.688 375.122 270.856C376.786 269.992 378.706 269.56 380.882 269.56ZM423.972 269.752V291.928C423.972 296.216 422.916 299.384 420.804 301.432C418.724 303.512 415.572 304.552 411.348 304.552C409.012 304.552 406.788 304.2 404.676 303.496C402.596 302.824 400.9 301.88 399.588 300.664L401.316 298.072C402.532 299.16 404.004 300.008 405.732 300.616C407.492 301.224 409.332 301.528 411.252 301.528C414.452 301.528 416.804 300.776 418.308 299.272C419.812 297.8 420.564 295.496 420.564 292.36V289.144C419.508 290.744 418.116 291.96 416.388 292.792C414.692 293.624 412.804 294.04 410.724 294.04C408.356 294.04 406.196 293.528 404.244 292.504C402.324 291.448 400.804 289.992 399.684 288.136C398.596 286.248 398.052 284.12 398.052 281.752C398.052 279.384 398.596 277.272 399.684 275.416C400.804 273.56 402.324 272.12 404.244 271.096C406.164 270.072 408.324 269.56 410.724 269.56C412.868 269.56 414.804 269.992 416.532 270.856C418.26 271.72 419.652 272.968 420.708 274.6V269.752H423.972ZM411.06 291.016C412.884 291.016 414.532 290.632 416.004 289.864C417.476 289.064 418.612 287.96 419.412 286.552C420.244 285.144 420.66 283.544 420.66 281.752C420.66 279.96 420.244 278.376 419.412 277C418.612 275.592 417.476 274.504 416.004 273.736C414.564 272.936 412.916 272.536 411.06 272.536C409.236 272.536 407.588 272.92 406.116 273.688C404.676 274.456 403.54 275.544 402.708 276.952C401.908 278.36 401.508 279.96 401.508 281.752C401.508 283.544 401.908 285.144 402.708 286.552C403.54 287.96 404.676 289.064 406.116 289.864C407.588 290.632 409.236 291.016 411.06 291.016ZM456.049 295.288C453.553 295.288 451.153 294.888 448.849 294.088C446.577 293.288 444.817 292.232 443.569 290.92L444.961 288.184C446.177 289.4 447.793 290.392 449.809 291.16C451.825 291.896 453.905 292.264 456.049 292.264C459.057 292.264 461.313 291.72 462.817 290.632C464.321 289.512 465.073 288.072 465.073 286.312C465.073 284.968 464.657 283.896 463.825 283.096C463.025 282.296 462.033 281.688 460.849 281.272C459.665 280.824 458.017 280.344 455.905 279.832C453.377 279.192 451.361 278.584 449.857 278.008C448.353 277.4 447.057 276.488 445.969 275.272C444.913 274.056 444.385 272.408 444.385 270.328C444.385 268.632 444.833 267.096 445.729 265.72C446.625 264.312 448.001 263.192 449.857 262.36C451.713 261.528 454.017 261.112 456.769 261.112C458.689 261.112 460.561 261.384 462.385 261.928C464.241 262.44 465.841 263.16 467.185 264.088L465.984 266.92C464.577 265.992 463.073 265.304 461.473 264.856C459.873 264.376 458.305 264.136 456.769 264.136C453.825 264.136 451.601 264.712 450.097 265.864C448.625 266.984 447.889 268.44 447.889 270.232C447.889 271.576 448.289 272.664 449.089 273.496C449.921 274.296 450.945 274.92 452.161 275.368C453.409 275.784 455.073 276.248 457.153 276.76C459.617 277.368 461.601 277.976 463.105 278.584C464.641 279.16 465.937 280.056 466.993 281.272C468.049 282.456 468.577 284.072 468.577 286.12C468.577 287.816 468.113 289.368 467.185 290.776C466.289 292.152 464.897 293.256 463.009 294.088C461.121 294.888 458.801 295.288 456.049 295.288ZM485.916 295.24C483.484 295.24 481.292 294.696 479.34 293.608C477.388 292.488 475.852 290.952 474.732 289C473.612 287.048 473.052 284.84 473.052 282.376C473.052 279.912 473.612 277.704 474.732 275.752C475.852 273.8 477.388 272.28 479.34 271.192C481.292 270.104 483.484 269.56 485.916 269.56C488.348 269.56 490.54 270.104 492.492 271.192C494.444 272.28 495.964 273.8 497.052 275.752C498.172 277.704 498.732 279.912 498.732 282.376C498.732 284.84 498.172 287.048 497.052 289C495.964 290.952 494.444 292.488 492.492 293.608C490.54 294.696 488.348 295.24 485.916 295.24ZM485.916 292.216C487.708 292.216 489.308 291.816 490.716 291.016C492.156 290.184 493.276 289.016 494.076 287.512C494.876 286.008 495.276 284.296 495.276 282.376C495.276 280.456 494.876 278.744 494.076 277.24C493.276 275.736 492.156 274.584 490.716 273.784C489.308 272.952 487.708 272.536 485.916 272.536C484.124 272.536 482.508 272.952 481.068 273.784C479.66 274.584 478.54 275.736 477.708 277.24C476.908 278.744 476.508 280.456 476.508 282.376C476.508 284.296 476.908 286.008 477.708 287.512C478.54 289.016 479.66 290.184 481.068 291.016C482.508 291.816 484.124 292.216 485.916 292.216ZM516.01 295.24C513.578 295.24 511.386 294.696 509.434 293.608C507.482 292.488 505.946 290.952 504.826 289C503.706 287.048 503.146 284.84 503.146 282.376C503.146 279.912 503.706 277.704 504.826 275.752C505.946 273.8 507.482 272.28 509.434 271.192C511.386 270.104 513.578 269.56 516.01 269.56C518.442 269.56 520.634 270.104 522.586 271.192C524.538 272.28 526.058 273.8 527.146 275.752C528.266 277.704 528.826 279.912 528.826 282.376C528.826 284.84 528.266 287.048 527.146 289C526.058 290.952 524.538 292.488 522.586 293.608C520.634 294.696 518.442 295.24 516.01 295.24ZM516.01 292.216C517.802 292.216 519.402 291.816 520.81 291.016C522.25 290.184 523.37 289.016 524.17 287.512C524.97 286.008 525.37 284.296 525.37 282.376C525.37 280.456 524.97 278.744 524.17 277.24C523.37 275.736 522.25 274.584 520.81 273.784C519.402 272.952 517.802 272.536 516.01 272.536C514.218 272.536 512.602 272.952 511.162 273.784C509.754 274.584 508.634 275.736 507.802 277.24C507.002 278.744 506.602 280.456 506.602 282.376C506.602 284.296 507.002 286.008 507.802 287.512C508.634 289.016 509.754 290.184 511.162 291.016C512.602 291.816 514.218 292.216 516.01 292.216ZM548.647 269.56C551.815 269.56 554.327 270.488 556.183 272.344C558.071 274.168 559.015 276.84 559.015 280.36V295H555.607V280.696C555.607 278.072 554.951 276.072 553.639 274.696C552.327 273.32 550.455 272.632 548.023 272.632C545.303 272.632 543.143 273.448 541.543 275.08C539.975 276.68 539.191 278.904 539.191 281.752V295H535.783V269.752H539.047V274.408C539.975 272.872 541.255 271.688 542.887 270.856C544.551 269.992 546.471 269.56 548.647 269.56Z" fill="black"/>
</svg>
