<svg width="1094" height="717" viewBox="0 0 1094 717" fill="none" xmlns="http://www.w3.org/2000/svg">
<rect width="1094" height="717" rx="40" fill="#F4B2E6"/>
<path d="M401.064 359.288C397.736 359.288 394.728 358.552 392.04 357.08C389.384 355.608 387.288 353.576 385.752 350.984C384.248 348.36 383.496 345.432 383.496 342.2C383.496 338.968 384.248 336.056 385.752 333.464C387.288 330.84 389.4 328.792 392.088 327.32C394.776 325.848 397.784 325.112 401.112 325.112C403.608 325.112 405.912 325.528 408.024 326.36C410.136 327.192 411.928 328.408 413.4 330.008L411.144 332.264C408.52 329.608 405.208 328.28 401.208 328.28C398.552 328.28 396.136 328.888 393.96 330.104C391.784 331.32 390.072 332.984 388.824 335.096C387.608 337.208 387 339.576 387 342.2C387 344.824 387.608 347.192 388.824 349.304C390.072 351.416 391.784 353.08 393.96 354.296C396.136 355.512 398.552 356.12 401.208 356.12C405.24 356.12 408.552 354.776 411.144 352.088L413.4 354.344C411.928 355.944 410.12 357.176 407.976 358.04C405.864 358.872 403.56 359.288 401.064 359.288ZM429.447 359.24C427.015 359.24 424.823 358.696 422.871 357.608C420.919 356.488 419.383 354.952 418.263 353C417.143 351.048 416.583 348.84 416.583 346.376C416.583 343.912 417.143 341.704 418.263 339.752C419.383 337.8 420.919 336.28 422.871 335.192C424.823 334.104 427.015 333.56 429.447 333.56C431.879 333.56 434.071 334.104 436.023 335.192C437.975 336.28 439.495 337.8 440.583 339.752C441.703 341.704 442.263 343.912 442.263 346.376C442.263 348.84 441.703 351.048 440.583 353C439.495 354.952 437.975 356.488 436.023 357.608C434.071 358.696 431.879 359.24 429.447 359.24ZM429.447 356.216C431.239 356.216 432.839 355.816 434.247 355.016C435.687 354.184 436.807 353.016 437.607 351.512C438.407 350.008 438.807 348.296 438.807 346.376C438.807 344.456 438.407 342.744 437.607 341.24C436.807 339.736 435.687 338.584 434.247 337.784C432.839 336.952 431.239 336.536 429.447 336.536C427.655 336.536 426.039 336.952 424.599 337.784C423.191 338.584 422.071 339.736 421.239 341.24C420.439 342.744 420.039 344.456 420.039 346.376C420.039 348.296 420.439 350.008 421.239 351.512C422.071 353.016 423.191 354.184 424.599 355.016C426.039 355.816 427.655 356.216 429.447 356.216ZM480.709 333.56C483.877 333.56 486.357 334.472 488.149 336.296C489.973 338.12 490.885 340.808 490.885 344.36V359H487.477V344.696C487.477 342.072 486.837 340.072 485.557 338.696C484.309 337.32 482.533 336.632 480.229 336.632C477.605 336.632 475.541 337.448 474.037 339.08C472.533 340.68 471.781 342.904 471.781 345.752V359H468.373V344.696C468.373 342.072 467.733 340.072 466.453 338.696C465.205 337.32 463.413 336.632 461.077 336.632C458.485 336.632 456.421 337.448 454.885 339.08C453.381 340.68 452.629 342.904 452.629 345.752V359H449.221V333.752H452.485V338.36C453.381 336.824 454.629 335.64 456.229 334.808C457.829 333.976 459.669 333.56 461.749 333.56C463.861 333.56 465.685 334.008 467.221 334.904C468.789 335.8 469.957 337.128 470.725 338.888C471.653 337.224 472.981 335.928 474.709 335C476.469 334.04 478.469 333.56 480.709 333.56ZM500.127 333.752H503.535V359H500.127V333.752ZM501.855 328.232C501.151 328.232 500.559 327.992 500.079 327.512C499.599 327.032 499.359 326.456 499.359 325.784C499.359 325.144 499.599 324.584 500.079 324.104C500.559 323.624 501.151 323.384 501.855 323.384C502.559 323.384 503.151 323.624 503.631 324.104C504.111 324.552 504.351 325.096 504.351 325.736C504.351 326.44 504.111 327.032 503.631 327.512C503.151 327.992 502.559 328.232 501.855 328.232ZM525.882 333.56C529.05 333.56 531.562 334.488 533.418 336.344C535.306 338.168 536.25 340.84 536.25 344.36V359H532.842V344.696C532.842 342.072 532.186 340.072 530.874 338.696C529.562 337.32 527.69 336.632 525.258 336.632C522.538 336.632 520.378 337.448 518.778 339.08C517.21 340.68 516.426 342.904 516.426 345.752V359H513.018V333.752H516.282V338.408C517.21 336.872 518.49 335.688 520.122 334.856C521.786 333.992 523.706 333.56 525.882 333.56ZM568.972 333.752V355.928C568.972 360.216 567.916 363.384 565.804 365.432C563.724 367.512 560.572 368.552 556.348 368.552C554.012 368.552 551.788 368.2 549.676 367.496C547.596 366.824 545.9 365.88 544.588 364.664L546.316 362.072C547.532 363.16 549.004 364.008 550.732 364.616C552.492 365.224 554.332 365.528 556.252 365.528C559.452 365.528 561.804 364.776 563.308 363.272C564.812 361.8 565.564 359.496 565.564 356.36V353.144C564.508 354.744 563.116 355.96 561.388 356.792C559.692 357.624 557.804 358.04 555.724 358.04C553.356 358.04 551.196 357.528 549.244 356.504C547.324 355.448 545.804 353.992 544.684 352.136C543.596 350.248 543.052 348.12 543.052 345.752C543.052 343.384 543.596 341.272 544.684 339.416C545.804 337.56 547.324 336.12 549.244 335.096C551.164 334.072 553.324 333.56 555.724 333.56C557.868 333.56 559.804 333.992 561.532 334.856C563.26 335.72 564.652 336.968 565.708 338.6V333.752H568.972ZM556.06 355.016C557.884 355.016 559.532 354.632 561.004 353.864C562.476 353.064 563.612 351.96 564.412 350.552C565.244 349.144 565.66 347.544 565.66 345.752C565.66 343.96 565.244 342.376 564.412 341C563.612 339.592 562.476 338.504 561.004 337.736C559.564 336.936 557.916 336.536 556.06 336.536C554.236 336.536 552.588 336.92 551.116 337.688C549.676 338.456 548.54 339.544 547.708 340.952C546.908 342.36 546.508 343.96 546.508 345.752C546.508 347.544 546.908 349.144 547.708 350.552C548.54 351.96 549.676 353.064 551.116 353.864C552.588 354.632 554.236 355.016 556.06 355.016ZM601.049 359.288C598.553 359.288 596.153 358.888 593.849 358.088C591.577 357.288 589.817 356.232 588.569 354.92L589.961 352.184C591.177 353.4 592.793 354.392 594.809 355.16C596.825 355.896 598.905 356.264 601.049 356.264C604.057 356.264 606.313 355.72 607.817 354.632C609.321 353.512 610.073 352.072 610.073 350.312C610.073 348.968 609.657 347.896 608.825 347.096C608.025 346.296 607.033 345.688 605.849 345.272C604.665 344.824 603.017 344.344 600.905 343.832C598.377 343.192 596.361 342.584 594.857 342.008C593.353 341.4 592.057 340.488 590.969 339.272C589.913 338.056 589.385 336.408 589.385 334.328C589.385 332.632 589.833 331.096 590.729 329.72C591.625 328.312 593.001 327.192 594.857 326.36C596.713 325.528 599.017 325.112 601.769 325.112C603.689 325.112 605.561 325.384 607.385 325.928C609.241 326.44 610.841 327.16 612.185 328.088L610.984 330.92C609.577 329.992 608.073 329.304 606.473 328.856C604.873 328.376 603.305 328.136 601.769 328.136C598.825 328.136 596.601 328.712 595.097 329.864C593.625 330.984 592.889 332.44 592.889 334.232C592.889 335.576 593.289 336.664 594.089 337.496C594.921 338.296 595.945 338.92 597.161 339.368C598.409 339.784 600.073 340.248 602.153 340.76C604.617 341.368 606.601 341.976 608.105 342.584C609.641 343.16 610.937 344.056 611.993 345.272C613.049 346.456 613.577 348.072 613.577 350.12C613.577 351.816 613.113 353.368 612.185 354.776C611.289 356.152 609.897 357.256 608.009 358.088C606.121 358.888 603.801 359.288 601.049 359.288ZM630.916 359.24C628.484 359.24 626.292 358.696 624.34 357.608C622.388 356.488 620.852 354.952 619.732 353C618.612 351.048 618.052 348.84 618.052 346.376C618.052 343.912 618.612 341.704 619.732 339.752C620.852 337.8 622.388 336.28 624.34 335.192C626.292 334.104 628.484 333.56 630.916 333.56C633.348 333.56 635.54 334.104 637.492 335.192C639.444 336.28 640.964 337.8 642.052 339.752C643.172 341.704 643.732 343.912 643.732 346.376C643.732 348.84 643.172 351.048 642.052 353C640.964 354.952 639.444 356.488 637.492 357.608C635.54 358.696 633.348 359.24 630.916 359.24ZM630.916 356.216C632.708 356.216 634.308 355.816 635.716 355.016C637.156 354.184 638.276 353.016 639.076 351.512C639.876 350.008 640.276 348.296 640.276 346.376C640.276 344.456 639.876 342.744 639.076 341.24C638.276 339.736 637.156 338.584 635.716 337.784C634.308 336.952 632.708 336.536 630.916 336.536C629.124 336.536 627.508 336.952 626.068 337.784C624.66 338.584 623.54 339.736 622.708 341.24C621.908 342.744 621.508 344.456 621.508 346.376C621.508 348.296 621.908 350.008 622.708 351.512C623.54 353.016 624.66 354.184 626.068 355.016C627.508 355.816 629.124 356.216 630.916 356.216ZM661.01 359.24C658.578 359.24 656.386 358.696 654.434 357.608C652.482 356.488 650.946 354.952 649.826 353C648.706 351.048 648.146 348.84 648.146 346.376C648.146 343.912 648.706 341.704 649.826 339.752C650.946 337.8 652.482 336.28 654.434 335.192C656.386 334.104 658.578 333.56 661.01 333.56C663.442 333.56 665.634 334.104 667.586 335.192C669.538 336.28 671.058 337.8 672.146 339.752C673.266 341.704 673.826 343.912 673.826 346.376C673.826 348.84 673.266 351.048 672.146 353C671.058 354.952 669.538 356.488 667.586 357.608C665.634 358.696 663.442 359.24 661.01 359.24ZM661.01 356.216C662.802 356.216 664.402 355.816 665.81 355.016C667.25 354.184 668.37 353.016 669.17 351.512C669.97 350.008 670.37 348.296 670.37 346.376C670.37 344.456 669.97 342.744 669.17 341.24C668.37 339.736 667.25 338.584 665.81 337.784C664.402 336.952 662.802 336.536 661.01 336.536C659.218 336.536 657.602 336.952 656.162 337.784C654.754 338.584 653.634 339.736 652.802 341.24C652.002 342.744 651.602 344.456 651.602 346.376C651.602 348.296 652.002 350.008 652.802 351.512C653.634 353.016 654.754 354.184 656.162 355.016C657.602 355.816 659.218 356.216 661.01 356.216ZM693.647 333.56C696.815 333.56 699.327 334.488 701.183 336.344C703.071 338.168 704.015 340.84 704.015 344.36V359H700.607V344.696C700.607 342.072 699.951 340.072 698.639 338.696C697.327 337.32 695.455 336.632 693.023 336.632C690.303 336.632 688.143 337.448 686.543 339.08C684.975 340.68 684.191 342.904 684.191 345.752V359H680.783V333.752H684.047V338.408C684.975 336.872 686.255 335.688 687.887 334.856C689.551 333.992 691.471 333.56 693.647 333.56Z" fill="black"/>
<circle cx="119.5" cy="557.5" r="67.5" fill="#D9D9D9"/>
<circle cx="119.5" cy="557.5" r="42.5" fill="white"/>
<rect x="100" y="470" width="38" height="39" fill="#D9D9D9"/>
<rect x="101" y="608" width="38" height="39" fill="#D9D9D9"/>
<rect x="172.669" y="482.992" width="38" height="39" transform="rotate(45.2786 172.669 482.992)" fill="#D9D9D9"/>
<rect x="209.988" y="539" width="38" height="39" transform="rotate(88.5658 209.988 539)" fill="#D9D9D9"/>
<rect x="63.9878" y="539" width="38" height="39" transform="rotate(88.5658 63.9878 539)" fill="#D9D9D9"/>
<rect x="199.318" y="612.107" width="38" height="39" transform="rotate(138.273 199.318 612.107)" fill="#D9D9D9"/>
<rect x="93.3181" y="509.107" width="38" height="39" transform="rotate(138.273 93.3181 509.107)" fill="#D9D9D9"/>
<rect width="38" height="39" transform="matrix(0.661793 0.749686 0.749686 -0.661793 33.9661 606.86)" fill="#D9D9D9"/>
<circle cx="962.5" cy="263.5" r="67.5" fill="#D9D9D9"/>
<circle cx="962.5" cy="263.5" r="42.5" fill="white"/>
<rect x="943" y="176" width="38" height="39" fill="#D9D9D9"/>
<rect x="944" y="314" width="38" height="39" fill="#D9D9D9"/>
<rect x="1015.67" y="188.992" width="38" height="39" transform="rotate(45.2786 1015.67 188.992)" fill="#D9D9D9"/>
<rect x="1052.99" y="245" width="38" height="39" transform="rotate(88.5658 1052.99 245)" fill="#D9D9D9"/>
<rect x="906.988" y="245" width="38" height="39" transform="rotate(88.5658 906.988 245)" fill="#D9D9D9"/>
<rect x="1042.32" y="318.107" width="38" height="39" transform="rotate(138.273 1042.32 318.107)" fill="#D9D9D9"/>
<rect x="936.318" y="215.107" width="38" height="39" transform="rotate(138.273 936.318 215.107)" fill="#D9D9D9"/>
<rect width="38" height="39" transform="matrix(0.661793 0.749686 0.749686 -0.661793 876.966 312.86)" fill="#D9D9D9"/>
<circle cx="271.04" cy="620.171" r="48.4835" transform="rotate(23.1619 271.04 620.171)" fill="#D9D9D9"/>
<circle cx="271.04" cy="620.171" r="30.5267" transform="rotate(23.1619 271.04 620.171)" fill="white"/>
<rect x="282.883" y="556.878" width="27.2944" height="28.0127" transform="rotate(23.1619 282.883 556.878)" fill="#D9D9D9"/>
<rect x="244.555" y="648.293" width="27.2944" height="28.0127" transform="rotate(23.1619 244.555 648.293)" fill="#D9D9D9"/>
<rect x="327.201" y="585.989" width="27.2944" height="28.0127" transform="rotate(68.4405 327.201 585.989)" fill="#D9D9D9"/>
<rect x="336.023" y="633.518" width="27.2944" height="28.0127" transform="rotate(111.728 336.023 633.518)" fill="#D9D9D9"/>
<rect x="239.607" y="592.271" width="27.2944" height="28.0127" transform="rotate(111.728 239.607 592.271)" fill="#D9D9D9"/>
<rect x="308.323" y="678.782" width="27.2944" height="28.0127" transform="rotate(161.435 308.323 678.782)" fill="#D9D9D9"/>
<rect x="267.422" y="580.816" width="27.2944" height="28.0127" transform="rotate(161.435 267.422 580.816)" fill="#D9D9D9"/>
<rect width="27.2944" height="28.0127" transform="matrix(0.313577 0.949563 0.949563 -0.313577 200.61 628.602)" fill="#D9D9D9"/>
<circle cx="832.04" cy="144.171" r="48.4835" transform="rotate(23.1619 832.04 144.171)" fill="#D9D9D9"/>
<circle cx="832.04" cy="144.171" r="30.5267" transform="rotate(23.1619 832.04 144.171)" fill="white"/>
<rect x="843.883" y="80.8784" width="27.2944" height="28.0127" transform="rotate(23.1619 843.883 80.8784)" fill="#D9D9D9"/>
<rect x="805.555" y="172.293" width="27.2944" height="28.0127" transform="rotate(23.1619 805.555 172.293)" fill="#D9D9D9"/>
<rect x="888.201" y="109.989" width="27.2944" height="28.0127" transform="rotate(68.4405 888.201 109.989)" fill="#D9D9D9"/>
<rect x="897.023" y="157.518" width="27.2944" height="28.0127" transform="rotate(111.728 897.023 157.518)" fill="#D9D9D9"/>
<rect x="800.607" y="116.271" width="27.2944" height="28.0127" transform="rotate(111.728 800.607 116.271)" fill="#D9D9D9"/>
<rect x="869.323" y="202.782" width="27.2944" height="28.0127" transform="rotate(161.435 869.323 202.782)" fill="#D9D9D9"/>
<rect x="828.422" y="104.816" width="27.2944" height="28.0127" transform="rotate(161.435 828.422 104.816)" fill="#D9D9D9"/>
<rect width="27.2944" height="28.0127" transform="matrix(0.313577 0.949563 0.949563 -0.313577 761.61 152.602)" fill="#D9D9D9"/>
<circle cx="259.058" cy="478.942" r="47.6053" fill="#D9D9D9"/>
<circle cx="258.353" cy="478.942" r="39.1421" fill="white"/>
<circle cx="258.705" cy="479.295" r="12.6947" fill="#D9D9D9"/>
<circle cx="259.058" cy="478.942" r="5.28948" fill="white"/>
<path d="M272.105 438.39H245.305C245.305 426.4 256.589 413 258.705 413C260.821 413 272.105 425.574 272.105 438.39Z" fill="#D9D9D9"/>
<path d="M269.284 435.568H248.126C248.126 426.243 257.035 415.821 258.705 415.821C260.376 415.821 269.284 425.601 269.284 435.568Z" fill="url(#paint0_linear_222_4)"/>
<path d="M237.059 439.413L218.018 458.273C209.581 449.755 208.168 432.293 209.671 430.804C211.174 429.316 228.04 430.308 237.059 439.413Z" fill="#D9D9D9"/>
<path d="M277.042 438.796L296.083 457.656C304.52 449.138 305.933 431.677 304.43 430.188C302.927 428.699 286.061 429.692 277.042 438.796Z" fill="#D9D9D9"/>
<path d="M272.811 521.611H246.01C246.01 533.6 257.295 547 259.411 547C261.526 547 272.811 534.426 272.811 521.611Z" fill="#D9D9D9"/>
<path d="M302.432 491.989L302.432 465.189C314.421 465.189 327.821 476.474 327.821 478.589C327.821 480.705 315.247 491.989 302.432 491.989Z" fill="#D9D9D9"/>
<path d="M279.863 519.981L298.217 500.453C306.954 508.664 308.99 526.064 307.541 527.605C306.092 529.147 289.201 528.758 279.863 519.981Z" fill="#D9D9D9"/>
<path d="M237.023 521.392L218.669 501.863C209.933 510.074 207.897 527.474 209.346 529.016C210.795 530.558 227.685 530.168 237.023 521.392Z" fill="#D9D9D9"/>
<path d="M216.39 491.989L216.39 465.189C204.4 465.189 191 476.474 191 478.589C191 480.705 203.574 491.989 216.39 491.989Z" fill="#D9D9D9"/>
<path d="M296.329 454.521L280.569 440.405C286.79 433.458 300.379 431.638 301.624 432.753C302.868 433.867 302.979 447.096 296.329 454.521Z" fill="url(#paint1_linear_222_4)"/>
<path d="M303.842 489.167L304.136 468.011C313.46 468.14 323.758 477.193 323.734 478.863C323.711 480.533 313.808 489.305 303.842 489.167Z" fill="url(#paint2_linear_222_4)"/>
<path d="M283.39 519.481L297.789 503.979C304.621 510.326 306.195 523.946 305.058 525.17C303.921 526.393 290.692 526.265 283.39 519.481Z" fill="url(#paint3_linear_222_4)"/>
<path d="M249.051 523.021L270.208 523.257C270.104 532.581 261.08 542.904 259.41 542.885C257.739 542.866 248.94 532.988 249.051 523.021Z" fill="url(#paint4_linear_222_4)"/>
<path d="M218.62 505.762L233.877 520.422C227.416 527.146 213.771 528.489 212.567 527.332C211.362 526.174 211.715 512.95 218.62 505.762Z" fill="url(#paint5_linear_222_4)"/>
<path d="M213.676 468.121L214.184 489.273C204.861 489.496 194.228 480.841 194.188 479.171C194.148 477.501 203.711 468.36 213.676 468.121Z" fill="url(#paint6_linear_222_4)"/>
<path d="M232.517 438.938L217.444 453.787C210.9 447.144 209.932 433.467 211.122 432.295C212.312 431.123 225.522 431.838 232.517 438.938Z" fill="url(#paint7_linear_222_4)"/>
<circle cx="973.696" cy="105.045" r="47.6053" transform="rotate(-7.62218 973.696 105.045)" fill="#D9D9D9"/>
<circle cx="972.997" cy="105.139" r="39.1421" transform="rotate(-7.62218 972.997 105.139)" fill="white"/>
<circle cx="973.393" cy="105.442" r="12.6947" transform="rotate(-7.62218 973.393 105.442)" fill="#D9D9D9"/>
<circle cx="973.696" cy="105.046" r="5.28948" transform="rotate(-7.62218 973.696 105.046)" fill="white"/>
<path d="M981.249 63.1205L954.686 66.6753C953.096 54.7916 962.503 40.0133 964.6 39.7326C966.697 39.452 979.549 50.4186 981.249 63.1205Z" fill="#D9D9D9"/>
<path d="M978.079 60.6986L957.108 63.505C955.871 54.2622 963.319 42.7505 964.974 42.5289C966.63 42.3074 976.757 50.8194 978.079 60.6986Z" fill="url(#paint8_linear_222_4)"/>
<path d="M946.648 68.7835L930.277 90.0022C920.785 82.6784 917.068 65.5587 918.361 63.8835C919.653 62.2084 936.502 60.9553 946.648 68.7835Z" fill="#D9D9D9"/>
<path d="M986.196 62.8691L1007.57 79.0368C1014.8 69.4746 1013.89 51.9802 1012.2 50.7038C1010.51 49.4274 993.927 52.6485 986.196 62.8691Z" fill="#D9D9D9"/>
<path d="M992.987 145.513L966.423 149.067C968.014 160.951 980.976 172.736 983.073 172.455C985.17 172.175 994.686 158.215 992.987 145.513Z" fill="#D9D9D9"/>
<path d="M1018.42 112.224L1014.86 85.6611C1026.75 84.0708 1041.52 93.478 1041.81 95.5751C1042.09 97.6722 1031.12 110.525 1018.42 112.224Z" fill="#D9D9D9"/>
<path d="M999.761 142.962L1015.36 121.172C1025.11 128.152 1029.44 145.127 1028.21 146.848C1026.97 148.568 1010.18 150.423 999.761 142.962Z" fill="#D9D9D9"/>
<path d="M957.487 150.043L936.704 133.121C929.134 142.419 929.424 159.935 931.064 161.271C932.705 162.607 949.395 159.98 957.487 150.043Z" fill="#D9D9D9"/>
<path d="M933.136 123.637L929.581 97.0737C917.697 98.664 905.912 111.626 906.193 113.723C906.474 115.82 920.434 125.337 933.136 123.637Z" fill="#D9D9D9"/>
<path d="M1007.4 75.896L989.905 63.9956C995.15 56.2853 1008.38 52.6787 1009.76 53.6182C1011.14 54.5577 1013.01 67.6548 1007.4 75.896Z" fill="url(#paint9_linear_222_4)"/>
<path d="M1019.44 109.239L1016.93 88.2313C1026.18 87.1229 1037.59 94.7295 1037.79 96.388C1037.99 98.0465 1029.34 108.054 1019.44 109.239Z" fill="url(#paint10_linear_222_4)"/>
<path d="M1003.19 141.999L1015.41 124.724C1023.02 130.108 1026.39 143.399 1025.42 144.763C1024.46 146.127 1011.33 147.754 1003.19 141.999Z" fill="url(#paint11_linear_222_4)"/>
<path d="M969.625 150.062L990.626 147.49C991.76 156.746 984.184 168.174 982.526 168.377C980.868 168.58 970.837 159.956 969.625 150.062Z" fill="url(#paint12_linear_222_4)"/>
<path d="M937.173 136.992L954.24 149.499C948.728 157.02 935.382 160.161 934.034 159.174C932.687 158.187 931.282 145.032 937.173 136.992Z" fill="url(#paint13_linear_222_4)"/>
<path d="M927.279 100.339L930.588 121.237C921.378 122.695 909.691 115.526 909.429 113.876C909.168 112.226 917.435 101.898 927.279 100.339Z" fill="url(#paint14_linear_222_4)"/>
<path d="M942.083 68.9156L929.113 85.632C921.746 79.9157 918.972 66.4883 919.996 65.1686C921.02 63.8489 934.208 62.8056 942.083 68.9156Z" fill="url(#paint15_linear_222_4)"/>
<defs>
<linearGradient id="paint0_linear_222_4" x1="258.705" y1="415.821" x2="258.705" y2="435.568" gradientUnits="userSpaceOnUse">
<stop stop-color="#B5B2B2"/>
<stop offset="1" stop-color="#B5B2B2" stop-opacity="0"/>
</linearGradient>
<linearGradient id="paint1_linear_222_4" x1="301.624" y1="432.753" x2="288.449" y2="447.463" gradientUnits="userSpaceOnUse">
<stop stop-color="#B5B2B2"/>
<stop offset="1" stop-color="#B5B2B2" stop-opacity="0"/>
</linearGradient>
<linearGradient id="paint2_linear_222_4" x1="323.734" y1="478.863" x2="303.989" y2="478.589" gradientUnits="userSpaceOnUse">
<stop stop-color="#B5B2B2"/>
<stop offset="1" stop-color="#B5B2B2" stop-opacity="0"/>
</linearGradient>
<linearGradient id="paint3_linear_222_4" x1="305.058" y1="525.17" x2="290.589" y2="511.73" gradientUnits="userSpaceOnUse">
<stop stop-color="#B5B2B2"/>
<stop offset="1" stop-color="#B5B2B2" stop-opacity="0"/>
</linearGradient>
<linearGradient id="paint4_linear_222_4" x1="259.41" y1="542.885" x2="259.63" y2="523.139" gradientUnits="userSpaceOnUse">
<stop stop-color="#B5B2B2"/>
<stop offset="1" stop-color="#B5B2B2" stop-opacity="0"/>
</linearGradient>
<linearGradient id="paint5_linear_222_4" x1="212.567" y1="527.332" x2="226.249" y2="513.092" gradientUnits="userSpaceOnUse">
<stop stop-color="#B5B2B2"/>
<stop offset="1" stop-color="#B5B2B2" stop-opacity="0"/>
</linearGradient>
<linearGradient id="paint6_linear_222_4" x1="194.188" y1="479.171" x2="213.93" y2="478.697" gradientUnits="userSpaceOnUse">
<stop stop-color="#B5B2B2"/>
<stop offset="1" stop-color="#B5B2B2" stop-opacity="0"/>
</linearGradient>
<linearGradient id="paint7_linear_222_4" x1="211.122" y1="432.295" x2="224.98" y2="446.362" gradientUnits="userSpaceOnUse">
<stop stop-color="#B5B2B2"/>
<stop offset="1" stop-color="#B5B2B2" stop-opacity="0"/>
</linearGradient>
<linearGradient id="paint8_linear_222_4" x1="964.974" y1="42.5289" x2="967.594" y2="62.1018" gradientUnits="userSpaceOnUse">
<stop stop-color="#B5B2B2"/>
<stop offset="1" stop-color="#B5B2B2" stop-opacity="0"/>
</linearGradient>
<linearGradient id="paint9_linear_222_4" x1="1009.76" y1="53.6182" x2="998.652" y2="69.9458" gradientUnits="userSpaceOnUse">
<stop stop-color="#B5B2B2"/>
<stop offset="1" stop-color="#B5B2B2" stop-opacity="0"/>
</linearGradient>
<linearGradient id="paint10_linear_222_4" x1="1037.79" y1="96.388" x2="1018.18" y2="98.7352" gradientUnits="userSpaceOnUse">
<stop stop-color="#B5B2B2"/>
<stop offset="1" stop-color="#B5B2B2" stop-opacity="0"/>
</linearGradient>
<linearGradient id="paint11_linear_222_4" x1="1025.42" y1="144.763" x2="1009.3" y2="133.361" gradientUnits="userSpaceOnUse">
<stop stop-color="#B5B2B2"/>
<stop offset="1" stop-color="#B5B2B2" stop-opacity="0"/>
</linearGradient>
<linearGradient id="paint12_linear_222_4" x1="982.526" y1="168.377" x2="980.125" y2="148.776" gradientUnits="userSpaceOnUse">
<stop stop-color="#B5B2B2"/>
<stop offset="1" stop-color="#B5B2B2" stop-opacity="0"/>
</linearGradient>
<linearGradient id="paint13_linear_222_4" x1="934.034" y1="159.174" x2="945.707" y2="143.246" gradientUnits="userSpaceOnUse">
<stop stop-color="#B5B2B2"/>
<stop offset="1" stop-color="#B5B2B2" stop-opacity="0"/>
</linearGradient>
<linearGradient id="paint14_linear_222_4" x1="909.429" y1="113.876" x2="928.934" y2="110.788" gradientUnits="userSpaceOnUse">
<stop stop-color="#B5B2B2"/>
<stop offset="1" stop-color="#B5B2B2" stop-opacity="0"/>
</linearGradient>
<linearGradient id="paint15_linear_222_4" x1="919.996" y1="65.1686" x2="935.598" y2="77.2738" gradientUnits="userSpaceOnUse">
<stop stop-color="#B5B2B2"/>
<stop offset="1" stop-color="#B5B2B2" stop-opacity="0"/>
</linearGradient>
</defs>
</svg>
