<svg width="1094" height="717" viewBox="0 0 1094 717" fill="none" xmlns="http://www.w3.org/2000/svg">
<rect width="1094" height="717" rx="40" fill="#F4B2E6"/>
<path d="M383.064 348.248C383.064 344.984 383.8 342.056 385.272 339.464C386.744 336.84 388.744 334.792 391.272 333.32C393.832 331.848 396.664 331.112 399.768 331.112C403.416 331.112 406.6 331.992 409.32 333.752C412.04 335.512 414.024 338.008 415.272 341.24H410.04C409.112 339.224 407.768 337.672 406.008 336.584C404.28 335.496 402.2 334.952 399.768 334.952C397.432 334.952 395.336 335.496 393.48 336.584C391.624 337.672 390.168 339.224 389.112 341.24C388.056 343.224 387.528 345.56 387.528 348.248C387.528 350.904 388.056 353.24 389.112 355.256C390.168 357.24 391.624 358.776 393.48 359.864C395.336 360.952 397.432 361.496 399.768 361.496C402.2 361.496 404.28 360.968 406.008 359.912C407.768 358.824 409.112 357.272 410.04 355.256H415.272C414.024 358.456 412.04 360.936 409.32 362.696C406.6 364.424 403.416 365.288 399.768 365.288C396.664 365.288 393.832 364.568 391.272 363.128C388.744 361.656 386.744 359.624 385.272 357.032C383.8 354.44 383.064 351.512 383.064 348.248ZM433.246 365.432C430.782 365.432 428.542 364.872 426.526 363.752C424.542 362.632 422.974 361.048 421.822 359C420.702 356.92 420.142 354.52 420.142 351.8C420.142 349.112 420.718 346.744 421.87 344.696C423.054 342.616 424.654 341.032 426.67 339.944C428.686 338.824 430.942 338.264 433.438 338.264C435.934 338.264 438.19 338.824 440.206 339.944C442.222 341.032 443.806 342.6 444.958 344.648C446.142 346.696 446.734 349.08 446.734 351.8C446.734 354.52 446.126 356.92 444.91 359C443.726 361.048 442.11 362.632 440.062 363.752C438.014 364.872 435.742 365.432 433.246 365.432ZM433.246 361.592C434.814 361.592 436.286 361.224 437.662 360.488C439.038 359.752 440.142 358.648 440.974 357.176C441.838 355.704 442.27 353.912 442.27 351.8C442.27 349.688 441.854 347.896 441.022 346.424C440.19 344.952 439.102 343.864 437.758 343.16C436.414 342.424 434.958 342.056 433.39 342.056C431.79 342.056 430.318 342.424 428.974 343.16C427.662 343.864 426.606 344.952 425.806 346.424C425.006 347.896 424.606 349.688 424.606 351.8C424.606 353.944 424.99 355.752 425.758 357.224C426.558 358.696 427.614 359.8 428.926 360.536C430.238 361.24 431.678 361.592 433.246 361.592ZM484.109 338.216C486.157 338.216 487.981 338.648 489.581 339.512C491.181 340.344 492.445 341.608 493.373 343.304C494.301 345 494.765 347.064 494.765 349.496V365H490.445V350.12C490.445 347.496 489.789 345.496 488.477 344.12C487.197 342.712 485.453 342.008 483.245 342.008C480.973 342.008 479.165 342.744 477.821 344.216C476.477 345.656 475.805 347.752 475.805 350.504V365H471.485V350.12C471.485 347.496 470.829 345.496 469.517 344.12C468.237 342.712 466.493 342.008 464.285 342.008C462.013 342.008 460.205 342.744 458.861 344.216C457.517 345.656 456.845 347.752 456.845 350.504V365H452.477V338.696H456.845V342.488C457.709 341.112 458.861 340.056 460.301 339.32C461.773 338.584 463.389 338.216 465.149 338.216C467.357 338.216 469.309 338.712 471.005 339.704C472.701 340.696 473.965 342.152 474.797 344.072C475.533 342.216 476.749 340.776 478.445 339.752C480.141 338.728 482.029 338.216 484.109 338.216ZM504.186 334.424C503.354 334.424 502.65 334.136 502.074 333.56C501.498 332.984 501.21 332.28 501.21 331.448C501.21 330.616 501.498 329.912 502.074 329.336C502.65 328.76 503.354 328.472 504.186 328.472C504.986 328.472 505.658 328.76 506.202 329.336C506.778 329.912 507.066 330.616 507.066 331.448C507.066 332.28 506.778 332.984 506.202 333.56C505.658 334.136 504.986 334.424 504.186 334.424ZM506.298 338.696V365H501.93V338.696H506.298ZM526.559 338.216C529.759 338.216 532.351 339.192 534.335 341.144C536.319 343.064 537.311 345.848 537.311 349.496V365H532.991V350.12C532.991 347.496 532.335 345.496 531.023 344.12C529.711 342.712 527.919 342.008 525.647 342.008C523.343 342.008 521.503 342.728 520.127 344.168C518.783 345.608 518.111 347.704 518.111 350.456V365H513.743V338.696H518.111V342.44C518.975 341.096 520.143 340.056 521.615 339.32C523.119 338.584 524.767 338.216 526.559 338.216ZM555.294 338.264C557.566 338.264 559.55 338.76 561.246 339.752C562.974 340.744 564.254 341.992 565.086 343.496V338.696H569.502V365.576C569.502 367.976 568.99 370.104 567.966 371.96C566.942 373.848 565.47 375.32 563.55 376.376C561.662 377.432 559.454 377.96 556.926 377.96C553.47 377.96 550.59 377.144 548.286 375.512C545.982 373.88 544.622 371.656 544.206 368.84H548.526C549.006 370.44 549.998 371.72 551.502 372.68C553.006 373.672 554.814 374.168 556.926 374.168C559.326 374.168 561.278 373.416 562.782 371.912C564.318 370.408 565.086 368.296 565.086 365.576V360.056C564.222 361.592 562.942 362.872 561.246 363.896C559.55 364.92 557.566 365.432 555.294 365.432C552.958 365.432 550.83 364.856 548.91 363.704C547.022 362.552 545.534 360.936 544.446 358.856C543.358 356.776 542.814 354.408 542.814 351.752C542.814 349.064 543.358 346.712 544.446 344.696C545.534 342.648 547.022 341.064 548.91 339.944C550.83 338.824 552.958 338.264 555.294 338.264ZM565.086 351.8C565.086 349.816 564.686 348.088 563.886 346.616C563.086 345.144 561.998 344.024 560.622 343.256C559.278 342.456 557.79 342.056 556.158 342.056C554.526 342.056 553.038 342.44 551.694 343.208C550.35 343.976 549.278 345.096 548.478 346.568C547.678 348.04 547.278 349.768 547.278 351.752C547.278 353.768 547.678 355.528 548.478 357.032C549.278 358.504 550.35 359.64 551.694 360.44C553.038 361.208 554.526 361.592 556.158 361.592C557.79 361.592 559.278 361.208 560.622 360.44C561.998 359.64 563.086 358.504 563.886 357.032C564.686 355.528 565.086 353.784 565.086 351.8ZM600.288 365.336C598.08 365.336 596.096 364.952 594.336 364.184C592.608 363.384 591.248 362.296 590.256 360.92C589.264 359.512 588.752 357.896 588.72 356.072H593.376C593.536 357.64 594.176 358.968 595.296 360.056C596.448 361.112 598.112 361.64 600.288 361.64C602.368 361.64 604 361.128 605.184 360.104C606.4 359.048 607.008 357.704 607.008 356.072C607.008 354.792 606.656 353.752 605.952 352.952C605.248 352.152 604.368 351.544 603.312 351.128C602.256 350.712 600.832 350.264 599.04 349.784C596.832 349.208 595.056 348.632 593.712 348.056C592.4 347.48 591.264 346.584 590.304 345.368C589.376 344.12 588.912 342.456 588.912 340.376C588.912 338.552 589.376 336.936 590.304 335.528C591.232 334.12 592.528 333.032 594.192 332.264C595.888 331.496 597.824 331.112 600 331.112C603.136 331.112 605.696 331.896 607.68 333.464C609.696 335.032 610.832 337.112 611.088 339.704H606.288C606.128 338.424 605.456 337.304 604.272 336.344C603.088 335.352 601.52 334.856 599.568 334.856C597.744 334.856 596.256 335.336 595.104 336.296C593.952 337.224 593.376 338.536 593.376 340.232C593.376 341.448 593.712 342.44 594.384 343.208C595.088 343.976 595.936 344.568 596.928 344.984C597.952 345.368 599.376 345.816 601.2 346.328C603.408 346.936 605.184 347.544 606.528 348.152C607.872 348.728 609.024 349.64 609.984 350.888C610.944 352.104 611.424 353.768 611.424 355.88C611.424 357.512 610.992 359.048 610.128 360.488C609.264 361.928 607.984 363.096 606.288 363.992C604.592 364.888 602.592 365.336 600.288 365.336ZM629.324 365.432C626.86 365.432 624.62 364.872 622.604 363.752C620.62 362.632 619.052 361.048 617.9 359C616.78 356.92 616.22 354.52 616.22 351.8C616.22 349.112 616.796 346.744 617.948 344.696C619.132 342.616 620.732 341.032 622.748 339.944C624.764 338.824 627.02 338.264 629.516 338.264C632.012 338.264 634.268 338.824 636.284 339.944C638.3 341.032 639.884 342.6 641.036 344.648C642.22 346.696 642.812 349.08 642.812 351.8C642.812 354.52 642.204 356.92 640.988 359C639.804 361.048 638.188 362.632 636.14 363.752C634.092 364.872 631.82 365.432 629.324 365.432ZM629.324 361.592C630.892 361.592 632.364 361.224 633.74 360.488C635.116 359.752 636.22 358.648 637.052 357.176C637.916 355.704 638.348 353.912 638.348 351.8C638.348 349.688 637.932 347.896 637.1 346.424C636.268 344.952 635.18 343.864 633.836 343.16C632.492 342.424 631.036 342.056 629.468 342.056C627.868 342.056 626.396 342.424 625.052 343.16C623.74 343.864 622.684 344.952 621.884 346.424C621.084 347.896 620.684 349.688 620.684 351.8C620.684 353.944 621.068 355.752 621.836 357.224C622.636 358.696 623.692 359.8 625.004 360.536C626.316 361.24 627.756 361.592 629.324 361.592ZM660.027 365.432C657.563 365.432 655.323 364.872 653.307 363.752C651.323 362.632 649.755 361.048 648.603 359C647.483 356.92 646.923 354.52 646.923 351.8C646.923 349.112 647.499 346.744 648.651 344.696C649.835 342.616 651.435 341.032 653.451 339.944C655.467 338.824 657.723 338.264 660.219 338.264C662.715 338.264 664.971 338.824 666.987 339.944C669.003 341.032 670.587 342.6 671.739 344.648C672.923 346.696 673.515 349.08 673.515 351.8C673.515 354.52 672.907 356.92 671.691 359C670.507 361.048 668.891 362.632 666.843 363.752C664.795 364.872 662.523 365.432 660.027 365.432ZM660.027 361.592C661.595 361.592 663.067 361.224 664.443 360.488C665.819 359.752 666.923 358.648 667.755 357.176C668.619 355.704 669.051 353.912 669.051 351.8C669.051 349.688 668.635 347.896 667.803 346.424C666.971 344.952 665.883 343.864 664.539 343.16C663.195 342.424 661.739 342.056 660.171 342.056C658.571 342.056 657.099 342.424 655.755 343.16C654.443 343.864 653.387 344.952 652.587 346.424C651.787 347.896 651.387 349.688 651.387 351.8C651.387 353.944 651.771 355.752 652.539 357.224C653.339 358.696 654.395 359.8 655.707 360.536C657.019 361.24 658.459 361.592 660.027 361.592ZM692.075 338.216C695.275 338.216 697.867 339.192 699.851 341.144C701.835 343.064 702.827 345.848 702.827 349.496V365H698.507V350.12C698.507 347.496 697.851 345.496 696.539 344.12C695.227 342.712 693.435 342.008 691.163 342.008C688.859 342.008 687.019 342.728 685.643 344.168C684.299 345.608 683.627 347.704 683.627 350.456V365H679.259V338.696H683.627V342.44C684.491 341.096 685.659 340.056 687.131 339.32C688.635 338.584 690.283 338.216 692.075 338.216Z" fill="black"/>
<circle cx="119.5" cy="557.5" r="67.5" fill="#D9D9D9"/>
<circle cx="119.5" cy="557.5" r="42.5" fill="white"/>
<rect x="100" y="470" width="38" height="39" fill="#D9D9D9"/>
<rect x="101" y="608" width="38" height="39" fill="#D9D9D9"/>
<rect x="172.669" y="482.992" width="38" height="39" transform="rotate(45.2786 172.669 482.992)" fill="#D9D9D9"/>
<rect x="209.988" y="539" width="38" height="39" transform="rotate(88.5658 209.988 539)" fill="#D9D9D9"/>
<rect x="63.9878" y="539" width="38" height="39" transform="rotate(88.5658 63.9878 539)" fill="#D9D9D9"/>
<rect x="199.318" y="612.107" width="38" height="39" transform="rotate(138.273 199.318 612.107)" fill="#D9D9D9"/>
<rect x="93.3181" y="509.107" width="38" height="39" transform="rotate(138.273 93.3181 509.107)" fill="#D9D9D9"/>
<rect width="38" height="39" transform="matrix(0.661793 0.749686 0.749686 -0.661793 33.9661 606.86)" fill="#D9D9D9"/>
<circle cx="962.5" cy="263.5" r="67.5" fill="#D9D9D9"/>
<circle cx="962.5" cy="263.5" r="42.5" fill="white"/>
<rect x="943" y="176" width="38" height="39" fill="#D9D9D9"/>
<rect x="944" y="314" width="38" height="39" fill="#D9D9D9"/>
<rect x="1015.67" y="188.992" width="38" height="39" transform="rotate(45.2786 1015.67 188.992)" fill="#D9D9D9"/>
<rect x="1052.99" y="245" width="38" height="39" transform="rotate(88.5658 1052.99 245)" fill="#D9D9D9"/>
<rect x="906.988" y="245" width="38" height="39" transform="rotate(88.5658 906.988 245)" fill="#D9D9D9"/>
<rect x="1042.32" y="318.107" width="38" height="39" transform="rotate(138.273 1042.32 318.107)" fill="#D9D9D9"/>
<rect x="936.318" y="215.107" width="38" height="39" transform="rotate(138.273 936.318 215.107)" fill="#D9D9D9"/>
<rect width="38" height="39" transform="matrix(0.661793 0.749686 0.749686 -0.661793 876.966 312.86)" fill="#D9D9D9"/>
<circle cx="271.04" cy="620.171" r="48.4835" transform="rotate(23.1619 271.04 620.171)" fill="#D9D9D9"/>
<circle cx="271.04" cy="620.171" r="30.5267" transform="rotate(23.1619 271.04 620.171)" fill="white"/>
<rect x="282.883" y="556.878" width="27.2944" height="28.0127" transform="rotate(23.1619 282.883 556.878)" fill="#D9D9D9"/>
<rect x="244.555" y="648.293" width="27.2944" height="28.0127" transform="rotate(23.1619 244.555 648.293)" fill="#D9D9D9"/>
<rect x="327.201" y="585.989" width="27.2944" height="28.0127" transform="rotate(68.4405 327.201 585.989)" fill="#D9D9D9"/>
<rect x="336.023" y="633.518" width="27.2944" height="28.0127" transform="rotate(111.728 336.023 633.518)" fill="#D9D9D9"/>
<rect x="239.607" y="592.271" width="27.2944" height="28.0127" transform="rotate(111.728 239.607 592.271)" fill="#D9D9D9"/>
<rect x="308.323" y="678.782" width="27.2944" height="28.0127" transform="rotate(161.435 308.323 678.782)" fill="#D9D9D9"/>
<rect x="267.422" y="580.816" width="27.2944" height="28.0127" transform="rotate(161.435 267.422 580.816)" fill="#D9D9D9"/>
<rect width="27.2944" height="28.0127" transform="matrix(0.313577 0.949563 0.949563 -0.313577 200.61 628.602)" fill="#D9D9D9"/>
<circle cx="832.04" cy="144.171" r="48.4835" transform="rotate(23.1619 832.04 144.171)" fill="#D9D9D9"/>
<circle cx="832.04" cy="144.171" r="30.5267" transform="rotate(23.1619 832.04 144.171)" fill="white"/>
<rect x="843.883" y="80.8784" width="27.2944" height="28.0127" transform="rotate(23.1619 843.883 80.8784)" fill="#D9D9D9"/>
<rect x="805.555" y="172.293" width="27.2944" height="28.0127" transform="rotate(23.1619 805.555 172.293)" fill="#D9D9D9"/>
<rect x="888.201" y="109.989" width="27.2944" height="28.0127" transform="rotate(68.4405 888.201 109.989)" fill="#D9D9D9"/>
<rect x="897.023" y="157.518" width="27.2944" height="28.0127" transform="rotate(111.728 897.023 157.518)" fill="#D9D9D9"/>
<rect x="800.607" y="116.271" width="27.2944" height="28.0127" transform="rotate(111.728 800.607 116.271)" fill="#D9D9D9"/>
<rect x="869.323" y="202.782" width="27.2944" height="28.0127" transform="rotate(161.435 869.323 202.782)" fill="#D9D9D9"/>
<rect x="828.422" y="104.816" width="27.2944" height="28.0127" transform="rotate(161.435 828.422 104.816)" fill="#D9D9D9"/>
<rect width="27.2944" height="28.0127" transform="matrix(0.313577 0.949563 0.949563 -0.313577 761.61 152.602)" fill="#D9D9D9"/>
<circle cx="259.058" cy="478.942" r="47.6053" fill="#D9D9D9"/>
<circle cx="258.353" cy="478.942" r="39.1421" fill="white"/>
<circle cx="258.705" cy="479.295" r="12.6947" fill="#D9D9D9"/>
<circle cx="259.058" cy="478.942" r="5.28948" fill="white"/>
<path d="M272.105 438.39H245.305C245.305 426.4 256.589 413 258.705 413C260.821 413 272.105 425.574 272.105 438.39Z" fill="#D9D9D9"/>
<path d="M269.284 435.568H248.126C248.126 426.243 257.035 415.821 258.705 415.821C260.376 415.821 269.284 425.601 269.284 435.568Z" fill="url(#paint0_linear_222_4)"/>
<path d="M237.059 439.413L218.018 458.273C209.581 449.755 208.168 432.293 209.671 430.804C211.174 429.316 228.04 430.308 237.059 439.413Z" fill="#D9D9D9"/>
<path d="M277.042 438.796L296.083 457.656C304.52 449.138 305.933 431.677 304.43 430.188C302.927 428.699 286.061 429.692 277.042 438.796Z" fill="#D9D9D9"/>
<path d="M272.811 521.611H246.01C246.01 533.6 257.295 547 259.411 547C261.526 547 272.811 534.426 272.811 521.611Z" fill="#D9D9D9"/>
<path d="M302.432 491.989L302.432 465.189C314.421 465.189 327.821 476.474 327.821 478.589C327.821 480.705 315.247 491.989 302.432 491.989Z" fill="#D9D9D9"/>
<path d="M279.863 519.981L298.217 500.453C306.954 508.664 308.99 526.064 307.541 527.605C306.092 529.147 289.201 528.758 279.863 519.981Z" fill="#D9D9D9"/>
<path d="M237.023 521.392L218.669 501.863C209.933 510.074 207.897 527.474 209.346 529.016C210.795 530.558 227.685 530.168 237.023 521.392Z" fill="#D9D9D9"/>
<path d="M216.39 491.989L216.39 465.189C204.4 465.189 191 476.474 191 478.589C191 480.705 203.574 491.989 216.39 491.989Z" fill="#D9D9D9"/>
<path d="M296.329 454.521L280.569 440.405C286.79 433.458 300.379 431.638 301.624 432.753C302.868 433.867 302.979 447.096 296.329 454.521Z" fill="url(#paint1_linear_222_4)"/>
<path d="M303.842 489.167L304.136 468.011C313.46 468.14 323.758 477.193 323.734 478.863C323.711 480.533 313.808 489.305 303.842 489.167Z" fill="url(#paint2_linear_222_4)"/>
<path d="M283.39 519.481L297.789 503.979C304.621 510.326 306.195 523.946 305.058 525.17C303.921 526.393 290.692 526.265 283.39 519.481Z" fill="url(#paint3_linear_222_4)"/>
<path d="M249.051 523.021L270.208 523.257C270.104 532.581 261.08 542.904 259.41 542.885C257.739 542.866 248.94 532.988 249.051 523.021Z" fill="url(#paint4_linear_222_4)"/>
<path d="M218.62 505.762L233.877 520.422C227.416 527.146 213.771 528.489 212.567 527.332C211.362 526.174 211.715 512.95 218.62 505.762Z" fill="url(#paint5_linear_222_4)"/>
<path d="M213.676 468.121L214.184 489.273C204.861 489.496 194.228 480.841 194.188 479.171C194.148 477.501 203.711 468.36 213.676 468.121Z" fill="url(#paint6_linear_222_4)"/>
<path d="M232.517 438.938L217.444 453.787C210.9 447.144 209.932 433.467 211.122 432.295C212.312 431.123 225.522 431.838 232.517 438.938Z" fill="url(#paint7_linear_222_4)"/>
<circle cx="973.696" cy="105.045" r="47.6053" transform="rotate(-7.62218 973.696 105.045)" fill="#D9D9D9"/>
<circle cx="972.997" cy="105.139" r="39.1421" transform="rotate(-7.62218 972.997 105.139)" fill="white"/>
<circle cx="973.393" cy="105.442" r="12.6947" transform="rotate(-7.62218 973.393 105.442)" fill="#D9D9D9"/>
<circle cx="973.696" cy="105.046" r="5.28948" transform="rotate(-7.62218 973.696 105.046)" fill="white"/>
<path d="M981.249 63.1205L954.686 66.6753C953.096 54.7916 962.503 40.0133 964.6 39.7326C966.697 39.452 979.549 50.4186 981.249 63.1205Z" fill="#D9D9D9"/>
<path d="M978.079 60.6986L957.108 63.505C955.871 54.2622 963.319 42.7505 964.974 42.5289C966.63 42.3074 976.757 50.8194 978.079 60.6986Z" fill="url(#paint8_linear_222_4)"/>
<path d="M946.648 68.7835L930.277 90.0022C920.785 82.6784 917.068 65.5587 918.361 63.8835C919.653 62.2084 936.502 60.9553 946.648 68.7835Z" fill="#D9D9D9"/>
<path d="M986.196 62.8691L1007.57 79.0368C1014.8 69.4746 1013.89 51.9802 1012.2 50.7038C1010.51 49.4274 993.927 52.6485 986.196 62.8691Z" fill="#D9D9D9"/>
<path d="M992.987 145.513L966.423 149.067C968.014 160.951 980.976 172.736 983.073 172.455C985.17 172.175 994.686 158.215 992.987 145.513Z" fill="#D9D9D9"/>
<path d="M1018.42 112.224L1014.86 85.6611C1026.75 84.0708 1041.52 93.478 1041.81 95.5751C1042.09 97.6722 1031.12 110.525 1018.42 112.224Z" fill="#D9D9D9"/>
<path d="M999.761 142.962L1015.36 121.172C1025.11 128.152 1029.44 145.127 1028.21 146.848C1026.97 148.568 1010.18 150.423 999.761 142.962Z" fill="#D9D9D9"/>
<path d="M957.487 150.043L936.704 133.121C929.134 142.419 929.424 159.935 931.064 161.271C932.705 162.607 949.395 159.98 957.487 150.043Z" fill="#D9D9D9"/>
<path d="M933.136 123.637L929.581 97.0737C917.697 98.664 905.912 111.626 906.193 113.723C906.474 115.82 920.434 125.337 933.136 123.637Z" fill="#D9D9D9"/>
<path d="M1007.4 75.896L989.905 63.9956C995.15 56.2853 1008.38 52.6787 1009.76 53.6182C1011.14 54.5577 1013.01 67.6548 1007.4 75.896Z" fill="url(#paint9_linear_222_4)"/>
<path d="M1019.44 109.239L1016.93 88.2313C1026.18 87.1229 1037.59 94.7295 1037.79 96.388C1037.99 98.0465 1029.34 108.054 1019.44 109.239Z" fill="url(#paint10_linear_222_4)"/>
<path d="M1003.19 141.999L1015.41 124.724C1023.02 130.108 1026.39 143.399 1025.42 144.763C1024.46 146.127 1011.33 147.754 1003.19 141.999Z" fill="url(#paint11_linear_222_4)"/>
<path d="M969.625 150.062L990.626 147.49C991.76 156.746 984.184 168.174 982.526 168.377C980.868 168.58 970.837 159.956 969.625 150.062Z" fill="url(#paint12_linear_222_4)"/>
<path d="M937.173 136.992L954.24 149.499C948.728 157.02 935.382 160.161 934.034 159.174C932.687 158.187 931.282 145.032 937.173 136.992Z" fill="url(#paint13_linear_222_4)"/>
<path d="M927.279 100.339L930.588 121.237C921.378 122.695 909.691 115.526 909.429 113.876C909.168 112.226 917.435 101.898 927.279 100.339Z" fill="url(#paint14_linear_222_4)"/>
<path d="M942.083 68.9156L929.113 85.632C921.746 79.9157 918.972 66.4883 919.996 65.1686C921.02 63.8489 934.208 62.8056 942.083 68.9156Z" fill="url(#paint15_linear_222_4)"/>
<defs>
<linearGradient id="paint0_linear_222_4" x1="258.705" y1="415.821" x2="258.705" y2="435.568" gradientUnits="userSpaceOnUse">
<stop stop-color="#B5B2B2"/>
<stop offset="1" stop-color="#B5B2B2" stop-opacity="0"/>
</linearGradient>
<linearGradient id="paint1_linear_222_4" x1="301.624" y1="432.753" x2="288.449" y2="447.463" gradientUnits="userSpaceOnUse">
<stop stop-color="#B5B2B2"/>
<stop offset="1" stop-color="#B5B2B2" stop-opacity="0"/>
</linearGradient>
<linearGradient id="paint2_linear_222_4" x1="323.734" y1="478.863" x2="303.989" y2="478.589" gradientUnits="userSpaceOnUse">
<stop stop-color="#B5B2B2"/>
<stop offset="1" stop-color="#B5B2B2" stop-opacity="0"/>
</linearGradient>
<linearGradient id="paint3_linear_222_4" x1="305.058" y1="525.17" x2="290.589" y2="511.73" gradientUnits="userSpaceOnUse">
<stop stop-color="#B5B2B2"/>
<stop offset="1" stop-color="#B5B2B2" stop-opacity="0"/>
</linearGradient>
<linearGradient id="paint4_linear_222_4" x1="259.41" y1="542.885" x2="259.63" y2="523.139" gradientUnits="userSpaceOnUse">
<stop stop-color="#B5B2B2"/>
<stop offset="1" stop-color="#B5B2B2" stop-opacity="0"/>
</linearGradient>
<linearGradient id="paint5_linear_222_4" x1="212.567" y1="527.332" x2="226.249" y2="513.092" gradientUnits="userSpaceOnUse">
<stop stop-color="#B5B2B2"/>
<stop offset="1" stop-color="#B5B2B2" stop-opacity="0"/>
</linearGradient>
<linearGradient id="paint6_linear_222_4" x1="194.188" y1="479.171" x2="213.93" y2="478.697" gradientUnits="userSpaceOnUse">
<stop stop-color="#B5B2B2"/>
<stop offset="1" stop-color="#B5B2B2" stop-opacity="0"/>
</linearGradient>
<linearGradient id="paint7_linear_222_4" x1="211.122" y1="432.295" x2="224.98" y2="446.362" gradientUnits="userSpaceOnUse">
<stop stop-color="#B5B2B2"/>
<stop offset="1" stop-color="#B5B2B2" stop-opacity="0"/>
</linearGradient>
<linearGradient id="paint8_linear_222_4" x1="964.974" y1="42.5289" x2="967.594" y2="62.1018" gradientUnits="userSpaceOnUse">
<stop stop-color="#B5B2B2"/>
<stop offset="1" stop-color="#B5B2B2" stop-opacity="0"/>
</linearGradient>
<linearGradient id="paint9_linear_222_4" x1="1009.76" y1="53.6182" x2="998.652" y2="69.9458" gradientUnits="userSpaceOnUse">
<stop stop-color="#B5B2B2"/>
<stop offset="1" stop-color="#B5B2B2" stop-opacity="0"/>
</linearGradient>
<linearGradient id="paint10_linear_222_4" x1="1037.79" y1="96.388" x2="1018.18" y2="98.7352" gradientUnits="userSpaceOnUse">
<stop stop-color="#B5B2B2"/>
<stop offset="1" stop-color="#B5B2B2" stop-opacity="0"/>
</linearGradient>
<linearGradient id="paint11_linear_222_4" x1="1025.42" y1="144.763" x2="1009.3" y2="133.361" gradientUnits="userSpaceOnUse">
<stop stop-color="#B5B2B2"/>
<stop offset="1" stop-color="#B5B2B2" stop-opacity="0"/>
</linearGradient>
<linearGradient id="paint12_linear_222_4" x1="982.526" y1="168.377" x2="980.125" y2="148.776" gradientUnits="userSpaceOnUse">
<stop stop-color="#B5B2B2"/>
<stop offset="1" stop-color="#B5B2B2" stop-opacity="0"/>
</linearGradient>
<linearGradient id="paint13_linear_222_4" x1="934.034" y1="159.174" x2="945.707" y2="143.246" gradientUnits="userSpaceOnUse">
<stop stop-color="#B5B2B2"/>
<stop offset="1" stop-color="#B5B2B2" stop-opacity="0"/>
</linearGradient>
<linearGradient id="paint14_linear_222_4" x1="909.429" y1="113.876" x2="928.934" y2="110.788" gradientUnits="userSpaceOnUse">
<stop stop-color="#B5B2B2"/>
<stop offset="1" stop-color="#B5B2B2" stop-opacity="0"/>
</linearGradient>
<linearGradient id="paint15_linear_222_4" x1="919.996" y1="65.1686" x2="935.598" y2="77.2738" gradientUnits="userSpaceOnUse">
<stop stop-color="#B5B2B2"/>
<stop offset="1" stop-color="#B5B2B2" stop-opacity="0"/>
</linearGradient>
</defs>
</svg>
