<svg width="1440" height="400" viewBox="0 0 1440 400" fill="none" xmlns="http://www.w3.org/2000/svg">
<g clip-path="url(#clip0_61_113)">
<circle cx="1412" cy="341" r="15" fill="#343434"/>
<rect x="1306.71" y="329.711" width="99" height="99" transform="rotate(-45 1306.71 329.711)" stroke="#343434"/>
<rect x="1363.98" y="182.696" width="109" height="109" transform="rotate(55 1363.98 182.696)" stroke="#343434"/>
<rect x="1152.66" y="310.515" width="119" height="119" transform="rotate(-65 1152.66 310.515)" stroke="#343434"/>
<rect x="1203.61" y="296.217" width="129" height="129" transform="rotate(-75 1203.61 296.217)" stroke="#343434"/>
<rect x="1025.66" y="360.127" width="139" height="139" transform="rotate(-95 1025.66 360.127)" stroke="#343434"/>
<rect x="1127.1" y="156.177" width="149" height="149" transform="rotate(105 1127.1 156.177)" stroke="#343434"/>
<rect x="904.956" y="231.806" width="119" height="119" transform="rotate(-115 904.956 231.806)" stroke="#343434"/>
<rect x="892.216" y="298.504" width="109" height="109" transform="rotate(-125 892.216 298.504)" stroke="#343434"/>
<rect x="828.71" y="320.714" width="99" height="99" transform="rotate(-135 828.71 320.714)" stroke="#343434"/>
<rect x="817.601" y="376.649" width="89" height="89" transform="rotate(-145 817.601 376.649)" stroke="#343434"/>
<rect x="832.221" y="275.721" width="149" height="149" transform="rotate(150 832.221 275.721)" stroke="#343434"/>
<rect x="683.861" y="378.982" width="129" height="129" transform="rotate(-160 683.861 378.982)" stroke="#343434"/>
<rect x="637.266" y="272.075" width="99" height="99" transform="rotate(170 637.266 272.075)" stroke="#343434"/>
<rect x="606.5" y="213.5" width="119" height="119" transform="rotate(-180 606.5 213.5)" stroke="#343434"/>
<rect x="555.435" y="247.771" width="119" height="119" transform="rotate(170 555.435 247.771)" stroke="#343434"/>
<rect x="343.176" y="174.612" width="149" height="149" transform="rotate(15 343.176 174.612)" stroke="#343434"/>
<rect x="309.782" y="218.707" width="109" height="109" transform="rotate(45 309.782 218.707)" stroke="#343434"/>
<rect x="271.578" y="196.664" width="129" height="129" transform="rotate(65 271.578 196.664)" stroke="#343434"/>
<rect x="99.6231" y="239.332" width="64" height="64" transform="rotate(-35 99.6231 239.332)" stroke="#343434"/>
<rect x="29.6409" y="240.273" width="89" height="89" transform="rotate(-70 29.6409 240.273)" stroke="#343434"/>
<rect x="19.6964" y="183.218" width="69" height="69" transform="rotate(-55 19.6964 183.218)" stroke="#343434"/>
<rect x="67.7923" y="48.6964" width="99" height="99" transform="rotate(55 67.7923 48.6964)" stroke="#343434"/>
<rect x="1103.54" y="378.012" width="139" height="139" transform="rotate(-85 1103.54 378.012)" stroke="#343434"/>
</g>
<defs>
<clipPath id="clip0_61_113">
<rect width="1440" height="400" fill="white"/>
</clipPath>
</defs>
</svg>
