<svg width="1440" height="500" viewBox="0 0 1440 500" fill="none" xmlns="http://www.w3.org/2000/svg">
<g clip-path="url(#clip0_61_113)">
<rect width="1440" height="500" fill="#0E0D0D"/>
<circle cx="1412" cy="441" r="15" fill="#F8F8F8"/>
<rect x="1306.71" y="429.711" width="99" height="99" transform="rotate(-45 1306.71 429.711)" stroke="#F5F5F0"/>
<rect x="1363.98" y="282.696" width="109" height="109" transform="rotate(55 1363.98 282.696)" stroke="#F5F5F0"/>
<rect x="1152.66" y="410.515" width="119" height="119" transform="rotate(-65 1152.66 410.515)" stroke="#F5F5F0"/>
<rect x="1203.61" y="396.217" width="129" height="129" transform="rotate(-75 1203.61 396.217)" stroke="#F5F5F0"/>
<rect x="1025.66" y="460.127" width="139" height="139" transform="rotate(-95 1025.66 460.127)" stroke="#F5F5F0"/>
<rect x="1127.1" y="256.177" width="149" height="149" transform="rotate(105 1127.1 256.177)" stroke="#F5F5F0"/>
<rect x="904.956" y="331.806" width="119" height="119" transform="rotate(-115 904.956 331.806)" stroke="#F8F8F8"/>
<rect x="892.216" y="398.504" width="109" height="109" transform="rotate(-125 892.216 398.504)" stroke="#F5F5F0"/>
<rect x="828.71" y="420.714" width="99" height="99" transform="rotate(-135 828.71 420.714)" stroke="#F5F5F0"/>
<rect x="817.601" y="476.649" width="89" height="89" transform="rotate(-145 817.601 476.649)" stroke="#F5F5F0"/>
<rect x="832.221" y="375.721" width="149" height="149" transform="rotate(150 832.221 375.721)" stroke="#F5F5F0"/>
<rect x="683.861" y="478.982" width="129" height="129" transform="rotate(-160 683.861 478.982)" stroke="#F5F5F0"/>
<rect x="637.266" y="372.075" width="99" height="99" transform="rotate(170 637.266 372.075)" stroke="#F5F5F0"/>
<rect x="606.5" y="313.5" width="119" height="119" transform="rotate(-180 606.5 313.5)" stroke="#F5F5F0"/>
<rect x="555.435" y="347.771" width="119" height="119" transform="rotate(170 555.435 347.771)" stroke="#F5F5F0"/>
<rect x="343.176" y="274.612" width="149" height="149" transform="rotate(15 343.176 274.612)" stroke="#F5F5F0"/>
<rect x="309.782" y="318.707" width="109" height="109" transform="rotate(45 309.782 318.707)" stroke="#F5F5F0"/>
<rect x="271.578" y="296.664" width="129" height="129" transform="rotate(65 271.578 296.664)" stroke="#F5F5F0"/>
<rect x="99.6231" y="339.332" width="64" height="64" transform="rotate(-35 99.6231 339.332)" stroke="#F5F5F0"/>
<rect x="29.6409" y="340.273" width="89" height="89" transform="rotate(-70 29.6409 340.273)" stroke="#F5F5F0"/>
<rect x="19.6964" y="283.218" width="69" height="69" transform="rotate(-55 19.6964 283.218)" stroke="#F5F5F0"/>
<rect x="67.7923" y="148.696" width="99" height="99" transform="rotate(55 67.7923 148.696)" stroke="#F5F5F0"/>
<rect x="1103.54" y="478.012" width="139" height="139" transform="rotate(-85 1103.54 478.012)" stroke="#F5F5F0"/>
</g>
<defs>
<clipPath id="clip0_61_113">
<rect width="1440" height="500" fill="white"/>
</clipPath>
</defs>
</svg>
