<svg width="1440" height="300" viewBox="0 0 1440 300" fill="none" xmlns="http://www.w3.org/2000/svg">
<rect width="720" height="300" fill="white"/>
<rect y="14" width="720" height="10" fill="#0E0D0D"/>
<rect y="215" width="720" height="10" fill="#0E0D0D"/>
<rect y="40" width="720" height="15" fill="#0E0D0D"/>
<rect y="184" width="720" height="15" fill="#0E0D0D"/>
<rect y="71" width="720" height="20" fill="#0E0D0D"/>
<rect y="148" width="720" height="20" fill="#0E0D0D"/>
<rect y="107" width="720" height="25" fill="#0E0D0D"/>
<rect y="241" width="720" height="25" fill="#0E0D0D"/>
<rect y="282" width="720" height="15" fill="#0E0D0D"/>
<rect width="720" height="300" transform="translate(720)" fill="white"/>
<rect x="720" width="720" height="300" fill="white"/>
<rect x="1440" y="283" width="720" height="10" transform="rotate(-180 1440 283)" fill="#0E0D0D"/>
<rect x="1440" y="82" width="720" height="10" transform="rotate(-180 1440 82)" fill="#0E0D0D"/>
<rect x="1440" y="257" width="720" height="15" transform="rotate(-180 1440 257)" fill="#0E0D0D"/>
<rect x="1440" y="113" width="720" height="15" transform="rotate(-180 1440 113)" fill="#0E0D0D"/>
<rect x="1440" y="226" width="720" height="20" transform="rotate(-180 1440 226)" fill="#0E0D0D"/>
<rect x="1440" y="149" width="720" height="20" transform="rotate(-180 1440 149)" fill="#0E0D0D"/>
<rect x="1440" y="190" width="720" height="25" transform="rotate(-180 1440 190)" fill="#0E0D0D"/>
<rect x="1440" y="56" width="720" height="25" transform="rotate(-180 1440 56)" fill="#0E0D0D"/>
<rect x="1440" y="15" width="720" height="15" transform="rotate(-180 1440 15)" fill="#0E0D0D"/>
</svg>
