<svg width="466" height="600" viewBox="0 0 466 600" fill="none" xmlns="http://www.w3.org/2000/svg">
<mask id="mask0_86_132" style="mask-type:alpha" maskUnits="userSpaceOnUse" x="7" y="23" width="451" height="410">
<path d="M400.91 300.192L400.458 300.488V301.028C400.458 352.527 370.108 385.23 329.463 405.114C288.781 425.017 237.9 432 197.261 432C156.667 432 98.9163 420.358 58.9044 391.352C38.9179 376.862 23.4009 358.074 16.6053 334.275C9.81093 310.48 11.6983 281.55 26.7549 246.705L26.9694 246.208L26.6715 245.757C8.2135 217.795 4.62319 192.136 10.7599 169.367C16.9073 146.558 32.8546 126.507 53.7406 109.888C95.5356 76.633 156.764 57.3976 197.261 57.3976H197.566L197.819 57.2276C245.511 25.1774 290.998 18.5148 330.145 27.9226C369.316 37.3362 402.247 62.8665 424.742 95.3911C447.239 127.919 459.251 167.379 456.65 204.57C454.05 241.734 436.861 276.641 400.91 300.192Z" fill="#D9D9D9" stroke="black" stroke-width="2"/>
</mask>
<g mask="url(#mask0_86_132)">
<ellipse cx="219.5" cy="186" rx="260.5" ry="176" fill="#FA05C4"/>
<circle cx="431" cy="252" r="97.5" stroke="#F97A05" stroke-width="5"/>
<circle cx="433.5" cy="253.5" r="95" stroke="#FAFF00" stroke-width="5"/>
<circle cx="435.5" cy="255.5" r="92" stroke="#27F905" stroke-width="5"/>
<circle cx="436.5" cy="256.5" r="88" stroke="#05F9CD" stroke-width="5"/>
<circle cx="438.5" cy="258.5" r="85" stroke="#0549F9" stroke-width="5"/>
<circle cx="439.5" cy="259.5" r="81" stroke="#9C05F9" stroke-width="5"/>
<circle cx="443.5" cy="263.5" r="79" stroke="#C50B0B" stroke-width="5"/>
<path d="M271 387.5C271 445.214 191.083 492 92.5 492C-6.08282 492 -86 445.214 -86 387.5C-86 329.786 0.170357 259 98.7532 259C48.1592 303.5 271 329.786 271 387.5Z" fill="#0695FD"/>
<path d="M506 427.003C506 484.717 426.083 531.503 327.5 531.503C228.917 531.503 149 484.717 149 427.003C120 347 196 257.648 327.5 257.648C531.5 257.648 506 369.289 506 427.003Z" fill="#0695FD"/>
<path d="M237.5 411.5C237.5 491.5 191.573 536 119.5 536C47.4268 536 -2 486.259 -2 417.5C-2 348.741 47.4268 287 119.5 287C191.573 287 237.5 342.741 237.5 411.5Z" fill="#05FA0F"/>
<path d="M473.5 407.5C473.5 487.5 427.573 532 355.5 532C283.427 532 235.5 493.759 235.5 425C289.5 336.5 283.427 283 355.5 283C427.573 283 473.5 338.741 473.5 407.5Z" fill="#05FA0F"/>
<path d="M400.91 300.192L400.458 300.488V301.028C400.458 352.527 370.108 385.23 329.463 405.114C288.781 425.017 237.9 432 197.261 432C156.667 432 98.9163 420.358 58.9044 391.352C38.9179 376.862 23.4009 358.074 16.6053 334.275C9.81093 310.48 11.6983 281.55 26.7549 246.705L26.9694 246.208L26.6715 245.757C8.2135 217.795 4.62319 192.136 10.7599 169.367C16.9073 146.558 32.8546 126.507 53.7406 109.888C95.5356 76.633 156.764 57.3976 197.261 57.3976H197.566L197.819 57.2276C245.511 25.1774 290.998 18.5148 330.145 27.9226C369.316 37.3362 402.247 62.8665 424.742 95.3911C447.239 127.919 459.251 167.379 456.65 204.57C454.05 241.734 436.861 276.641 400.91 300.192Z" stroke="black" stroke-width="2"/>
<path d="M115.066 238.186L125.821 250.085L111.586 253.843L115.066 238.186Z" fill="#8D0808"/>
<path d="M117.619 247.854L128.374 259.753L114.139 263.511L117.619 247.854Z" fill="#8D0808"/>
<path d="M120.682 259.457L131.437 271.356L117.202 275.114L120.682 259.457Z" fill="#8D0808"/>
<path d="M124 272.026L134.755 283.925L120.52 287.683L124 272.026Z" fill="#8D0808"/>
<path d="M126.298 280.727L137.052 292.626L122.818 296.384L126.298 280.727Z" fill="#8D0808"/>
<path d="M128.85 290.397L139.605 302.296L125.37 306.054L128.85 290.397Z" fill="#8D0808"/>
<path d="M133.773 241.346C142 245.001 139 247.001 149.873 251.033C146.5 250.832 141.5 251.033 131.324 248.032C122.5 241.346 119.116 241.837 115.224 238.344C129.822 239.898 131.407 240.294 133.773 241.346Z" fill="#058B13"/>
<path d="M129.437 227.377C138.516 222.75 143.59 223.07 147.492 222.171C145.049 224.506 141.749 229.095 132.671 233.722C123.002 237.56 119.824 238.453 114.617 238.927C125.688 229.288 127.13 228.553 129.437 227.377Z" fill="#058B13"/>
<path d="M119.511 222.369C124.212 213.329 128.528 210.641 131.181 207.643C130.55 210.963 130.53 216.614 125.829 225.654C120.189 234.396 118.122 236.969 114.159 240.381C117.57 226.103 118.317 224.667 119.511 222.369Z" fill="#058B13"/>
<path d="M110.829 222.369C106.129 213.329 101.812 210.641 99.159 207.643C99.7907 210.963 99.8107 216.614 104.511 225.654C110.151 234.396 112.219 236.969 116.181 240.381C112.77 226.103 112.024 224.667 110.829 222.369Z" fill="#058B13"/>
<path d="M119.535 220.606C119.764 210.419 117.274 205.986 116.39 202.081C117 208.001 113.5 210.501 112.415 220.446C113.153 230.823 113.727 234.073 115.56 238.971C119.44 224.813 119.476 223.195 119.535 220.606Z" fill="#058B13"/>
<path d="M99.7259 229.404C89.9832 226.42 85.0407 227.614 81.0425 227.405C83.853 229.281 87.8979 233.228 97.6405 236.212C107.828 238.317 111.113 238.646 116.324 238.211C103.749 230.636 102.202 230.162 99.7259 229.404Z" fill="#058B13"/>
<path d="M98.819 241.583C90.9998 249.001 86.6049 249.93 83.4631 252.412C86.8129 251.967 92.4567 252.263 101.746 248.075C110.789 242.933 113.474 241.012 117.102 237.246C102.655 239.854 100.698 239.801 98.819 241.583Z" fill="#058B13"/>
<path d="M109.693 247.616C107.654 252.926 108.127 255.725 107.855 257.944C109.01 256.451 111.365 254.352 113.405 249.041C114.972 243.449 115.283 241.632 115.243 238.713C110.536 245.423 110.212 246.266 109.693 247.616Z" fill="#058B13"/>
<path d="M188.047 245.186L177.292 257.085L191.527 260.843L188.047 245.186Z" fill="#8D0808"/>
<path d="M185.494 254.854L174.739 266.753L188.974 270.511L185.494 254.854Z" fill="#8D0808"/>
<path d="M182.431 266.457L171.676 278.356L185.911 282.114L182.431 266.457Z" fill="#8D0808"/>
<path d="M179.113 279.026L168.358 290.925L182.593 294.683L179.113 279.026Z" fill="#8D0808"/>
<path d="M176.815 287.727L166.06 299.626L180.295 303.384L176.815 287.727Z" fill="#8D0808"/>
<path d="M174.263 297.397L163.508 309.296L177.743 313.054L174.263 297.397Z" fill="#8D0808"/>
<path d="M169.34 248.346C161.113 252.001 164.113 254.001 153.24 258.033C156.613 257.832 161.613 258.033 171.788 255.032C180.613 248.346 183.997 248.837 187.888 245.344C173.291 246.898 171.706 247.294 169.34 248.346Z" fill="#058B13"/>
<path d="M173.675 234.377C164.597 229.75 159.522 230.07 155.621 229.171C158.064 231.506 161.364 236.095 170.442 240.722C180.111 244.56 183.289 245.453 188.496 245.927C177.424 236.288 175.982 235.553 173.675 234.377Z" fill="#058B13"/>
<path d="M183.602 229.369C178.901 220.329 174.585 217.641 171.931 214.643C172.563 217.963 172.583 223.614 177.284 232.654C182.923 241.396 184.991 243.969 188.954 247.381C185.543 233.103 184.796 231.667 183.602 229.369Z" fill="#058B13"/>
<path d="M192.284 229.369C196.984 220.329 201.3 217.641 203.954 214.643C203.322 217.963 203.302 223.614 198.602 232.654C192.962 241.396 190.894 243.969 186.931 247.381C190.342 233.103 191.089 231.667 192.284 229.369Z" fill="#058B13"/>
<path d="M183.578 227.606C183.349 217.419 185.839 212.986 186.722 209.081C186.113 215.001 189.613 217.501 190.697 227.446C189.96 237.823 189.385 241.073 187.553 245.971C183.673 231.813 183.637 230.195 183.578 227.606Z" fill="#058B13"/>
<path d="M203.387 236.404C213.13 233.42 218.072 234.614 222.07 234.405C219.26 236.281 215.215 240.228 205.472 243.212C195.284 245.317 192 245.646 186.789 245.211C199.364 237.636 200.911 237.162 203.387 236.404Z" fill="#058B13"/>
<path d="M204.294 248.583C212.113 256.001 216.508 256.93 219.65 259.412C216.3 258.967 210.656 259.263 201.367 255.075C192.324 249.933 189.639 248.012 186.011 244.246C200.458 246.854 202.415 246.801 204.294 248.583Z" fill="#058B13"/>
<path d="M193.419 254.616C195.459 259.926 194.986 262.725 195.257 264.944C194.103 263.451 191.748 261.352 189.708 256.041C188.141 250.449 187.83 248.632 187.87 245.713C192.577 252.423 192.901 253.266 193.419 254.616Z" fill="#058B13"/>
<ellipse cx="333.139" cy="114.602" rx="23.0338" ry="21.0873" transform="rotate(26.229 333.139 114.602)" fill="#F1F502"/>
<path d="M354.79 70.6576L355.518 96.5136L333.844 85.8348L354.79 70.6576Z" fill="#F1F502"/>
<path d="M386.237 112.009L364.222 125.588L362.61 101.48L386.237 112.009Z" fill="#F1F502"/>
<path d="M303.705 71.9683L306.352 97.6988L326.45 84.2863L303.705 71.9683Z" fill="#F1F502"/>
<path d="M359.696 159.237L338.408 144.543L359.832 133.371L359.696 159.237Z" fill="#F1F502"/>
<path d="M280.582 118.812L305.204 126.738L301.008 102.943L280.582 118.812Z" fill="#F1F502"/>
<path d="M308.153 156.297L310.408 130.529L330.708 143.634L308.153 156.297Z" fill="#F1F502"/>
<ellipse cx="328" cy="110.5" rx="2" ry="5.5" fill="black"/>
<ellipse cx="334" cy="110.5" rx="2" ry="5.5" fill="black"/>
<path d="M202 159.501C202 172.479 177.376 183.001 147 183.001C119 176.001 92 172.479 92 159.501C92 146.522 98.6243 133.001 129 133.001C132.192 133.001 181 120.385 177.5 141.001C195.274 146.033 202 152.895 202 159.501Z" fill="#DDE3E3"/>
<path d="M252 105.321C252 118.3 227.376 128.821 197 128.821C169 121.821 142 118.3 142 105.321C142 92.3423 148.624 78.821 179 78.821C182.192 78.821 231 66.2052 227.5 86.821C245.274 91.8535 252 98.7154 252 105.321Z" fill="#944FED"/>
<path d="M76.6139 335.424L80.0982 340.108L85.63 338.242L82.2516 343.003L85.7359 347.687L80.1636 345.946L76.7852 350.707L76.7198 344.869L71.1475 343.128L76.6793 341.261L76.6139 335.424Z" fill="#FA05C4"/>
<path d="M96.9878 338.483L98.4547 344.134L104.282 344.485L99.3613 347.626L100.828 353.277L96.32 349.568L91.399 352.709L93.5337 347.275L89.0255 343.566L94.853 343.917L96.9878 338.483Z" fill="#BB0593"/>
<path d="M86.1002 351.333L87.1102 355.223L91.1222 355.465L87.7343 357.627L88.7442 361.518L85.6405 358.964L82.2526 361.127L83.7223 357.386L80.6185 354.832L84.6306 355.074L86.1002 351.333Z" fill="#F3A7E3"/>
</g>
<mask id="mask1_86_132" style="mask-type:alpha" maskUnits="userSpaceOnUse" x="0" y="0" width="466" height="600">
<rect width="466" height="600" fill="#D9D9D9"/>
</mask>
<g mask="url(#mask1_86_132)">
<circle cx="93.0255" cy="636.947" r="95.0255" fill="black"/>
<circle cx="92.8068" cy="531.193" r="39.1926" fill="black"/>
<circle cx="126.5" cy="486.5" r="5" stroke="black"/>
<circle cx="140.5" cy="472.5" r="8" stroke="black"/>
<circle cx="160" cy="453" r="10.5" stroke="black"/>
<path d="M66.2384 107.764C66.3139 106.751 66.4092 105.591 66.5243 104.283C66.7222 102.805 66.8373 101.497 66.8695 100.358C66.5667 99.4754 66.5377 98.5691 66.7825 97.6393C67.1535 96.6662 67.1876 95.7383 66.8847 94.8555C66.6251 94.0988 66.5566 93.488 66.679 93.0231C66.8843 92.3888 67.0679 91.6915 67.23 90.9311C67.7556 88.3544 68.0921 85.8426 68.2394 83.3958C68.9777 81.0281 69.3791 78.7055 69.4435 76.428L70.6739 65.2224C70.7853 63.4926 70.8355 61.9953 70.8245 60.7304C70.7702 59.3395 70.6528 57.9701 70.4724 56.6224L68.9148 52.0821C68.5686 51.0732 68.118 50.1706 67.5629 49.3743C66.9646 48.4519 66.3031 47.5511 65.5787 46.6719C65.1101 46.1279 64.1352 45.5461 62.654 44.9265C61.2989 44.2637 60.3043 43.8296 59.67 43.6244C57.4717 42.9689 55.4248 42.7549 53.5293 42.9822C53.1077 42.9859 52.6014 42.9482 52.0104 42.869C51.5888 42.8727 51.1041 42.898 50.5564 42.9449C50.1347 42.9486 49.6501 42.9739 49.1023 43.0209C48.4285 43.1111 47.6915 43.2229 46.8916 43.3564C46.1744 43.3205 45.3114 43.4756 44.3025 43.8218C44.0502 43.9083 43.6521 44.1858 43.108 44.6544C42.564 45.123 41.9766 45.4654 41.346 45.6818C40.3371 46.0279 39.3084 46.5218 38.2598 47.1634C37.3374 47.7618 36.6691 48.4844 36.2548 49.3313C35.5055 50.4342 34.7561 51.537 34.0068 52.6399C33.3403 53.5733 32.8648 54.6527 32.5803 55.8779C32.04 56.7681 31.4816 58.0169 30.9053 59.6242C30.4552 61.1882 30.2121 62.3288 30.1762 63.046C29.8844 63.428 29.6971 63.7037 29.6142 63.8731C29.5314 64.0425 29.3008 64.1921 28.9224 64.3219C28.6702 64.4084 28.2486 64.4121 27.6575 64.3329C27.0665 64.2537 26.5386 64.1529 26.0737 64.0305C25.3133 63.8685 24.616 63.6848 23.9817 63.4795C23.3474 63.2742 22.7348 63.132 22.1438 63.0528C21.8483 63.0132 21.4267 63.0169 20.8789 63.0639C20.2879 62.9847 19.8645 62.7776 19.6086 62.4425C19.5616 61.8947 19.5363 61.4101 19.5326 60.9884C19.6118 60.3974 19.6693 59.7434 19.7052 59.0262C19.7844 58.4352 19.7375 57.8875 19.5644 57.383C19.3913 56.8786 19.3246 56.4786 19.3642 56.1831C19.3531 54.9182 19.47 53.8209 19.7149 52.8911C19.9598 51.9613 20.2461 50.9469 20.5738 49.8477C20.8583 48.6224 21.1644 47.4602 21.4921 46.361C21.9027 45.0925 22.4394 43.7807 23.1022 42.4256C23.2679 42.0869 23.4336 41.7481 23.5993 41.4093C23.8479 40.9012 24.0964 40.393 24.345 39.8849C24.4278 39.7155 24.6566 39.3551 25.0313 38.8037C25.4059 38.2522 25.822 37.6161 26.2796 36.8953C26.8632 36.1312 27.3424 35.4735 27.7171 34.9221C28.2178 34.3274 28.5313 34.0084 28.6574 33.9651C29.6986 32.4803 30.7849 31.3323 31.9162 30.5213C33.0476 29.7103 34.179 28.8993 35.3104 28.0883C35.5626 28.0017 36.0671 27.8287 36.8238 27.5691C37.6634 27.1401 38.5246 26.7742 39.4074 26.4713C40.247 26.0423 41.0451 25.698 41.8018 25.4384C42.6414 25.0094 43.2503 24.7301 43.6287 24.6003C44.9764 24.4198 46.3025 24.1763 47.6069 23.8698C49.0375 23.52 50.4483 23.3179 51.8392 23.2636C52.9347 23.1697 53.841 23.1407 54.5582 23.1766C55.4014 23.1693 56.414 23.2448 57.596 23.4031C58.9474 23.6443 59.8339 23.7631 60.2556 23.7594C60.76 23.5863 61.6249 23.642 62.8502 23.9265C63.6971 24.3407 64.5008 24.6289 65.2612 24.7909C66.1044 24.7835 66.9062 24.8609 67.6666 25.0229C69.2702 25.1776 70.8559 25.6908 72.4236 26.5626C74.0742 27.265 75.4546 28.4125 76.5648 30.0051C77.1595 30.5059 77.8821 31.1742 78.7327 32.0101C79.6662 32.6766 80.5799 33.4908 81.4737 34.4528C82.4937 35.3716 83.3876 36.3335 84.1553 37.3388C85.0059 38.1747 85.561 38.971 85.8206 39.7277C86.3831 41.3672 86.9258 43.1545 87.4486 45.0896C88.0976 46.9813 88.5791 49.0011 88.893 51.1488C89.1093 51.7794 89.3059 52.5577 89.4826 53.4838C89.7422 54.2405 89.791 54.999 89.629 55.7594C89.5931 56.4766 89.6635 57.2982 89.8402 58.2243C90.017 59.1504 90.0874 59.972 90.0515 60.6891C89.9834 62.545 89.7873 64.2333 89.4632 65.7541C89.2653 67.2316 88.8349 68.6479 88.1721 70.0029L87.1944 73.9329C86.7802 74.7798 86.4073 75.542 86.0759 76.2195C85.8274 76.7277 85.496 77.4052 85.0817 78.2522C84.2965 80.0721 83.659 81.9119 83.1692 83.7714C82.6362 85.5049 82.1032 87.2383 81.5702 88.9717C81.491 89.5627 81.2028 90.3664 80.7057 91.3827C80.3347 92.3557 80.2574 93.1575 80.4737 93.7881C80.0272 95.7738 79.5808 97.7595 79.1343 99.7451C78.8139 101.688 78.6629 103.713 78.6813 105.821C78.7789 107.338 78.7918 108.814 78.72 110.248C78.6049 111.556 78.6592 112.947 78.8829 114.421C79.3551 115.387 79.339 115.956 78.8346 116.129C78.4562 116.259 77.995 116.558 77.4509 117.027C77.1987 117.113 76.842 117.306 76.3808 117.605C75.8763 117.778 75.2457 117.994 74.489 118.254C73.8584 118.47 73.3125 118.728 72.8513 119.027C72.3901 119.327 71.8658 119.647 71.2785 119.99C69.0121 121.19 68.0211 121.178 68.3055 119.953L68.6728 118.558C67.9484 117.679 67.3643 115.976 66.9206 113.45C66.4336 110.798 66.2062 108.902 66.2384 107.764ZM84.7722 129.739C85.4065 129.944 85.8967 130.551 86.2428 131.56L87.3461 134.776C87.5624 135.407 87.8004 136.1 88.06 136.857C88.4889 137.697 88.8549 138.558 89.1577 139.441L89.7418 141.143C90.0447 142.026 90.1763 142.615 90.1367 142.911C90.2233 143.163 90.3098 143.415 90.3963 143.667L89.0776 144.754C87.7373 145.778 86.2473 146.571 84.6078 147.133C83.3466 147.566 82.1052 147.851 80.8836 147.988C79.8314 148.208 78.9269 148.448 78.1702 148.707C77.5396 148.924 77.0352 149.097 76.6568 149.227C76.4478 149.439 76.2785 149.356 76.1487 148.978C75.8062 148.391 75.5485 147.845 75.3754 147.34C75.3284 146.793 75.1968 146.204 74.9805 145.573C74.5045 144.186 73.9439 142.757 73.2986 141.287C72.8227 139.899 72.3468 138.512 71.8708 137.125C71.6545 136.494 71.4184 136.011 71.1625 135.676C70.8633 135.215 70.6055 134.669 70.3892 134.039C70.7206 133.361 71.3908 132.849 72.3997 132.503C73.4087 132.157 74.4392 131.874 75.4914 131.654C76.0392 131.607 76.4392 131.54 76.6914 131.454C77.0265 131.198 77.3418 131.09 77.6373 131.129C77.7634 131.086 78.3526 130.954 79.4048 130.734C80.457 130.514 81.1092 130.361 81.3615 130.274C81.9921 130.058 82.5182 129.948 82.9398 129.944C83.4443 129.771 84.0551 129.703 84.7722 129.739Z" fill="black"/>
<path d="M138.919 116.297C139.274 115.624 139.688 114.855 140.159 113.99C140.739 113.034 141.21 112.169 141.574 111.396C141.63 110.698 141.882 110.066 142.329 109.501C142.876 108.943 143.178 108.315 143.234 107.618C143.283 107.02 143.419 106.579 143.643 106.296C143.974 105.922 144.309 105.498 144.649 105.023C145.783 103.41 146.767 101.784 147.603 100.146C148.82 98.74 149.793 97.2638 150.52 95.7175L154.726 88.3835C155.322 87.2278 155.805 86.2136 156.177 85.3407C156.557 84.3683 156.887 83.3917 157.167 82.4112L157.458 78.8229C157.523 78.0256 157.484 77.2699 157.341 76.5561C157.206 75.7425 157.022 74.9249 156.787 74.1033C156.628 73.5888 156.133 72.8964 155.3 72.0263C154.567 71.1643 154.014 70.5676 153.639 70.2363C152.325 69.1264 150.982 68.3654 149.611 67.9532C149.32 67.8293 148.983 67.6515 148.601 67.4198C148.31 67.2959 147.969 67.168 147.578 67.036C147.287 66.912 146.947 66.7841 146.556 66.6521C146.066 66.512 145.526 66.3679 144.936 66.2197C144.453 65.98 143.814 65.8278 143.016 65.7631C142.817 65.747 142.46 65.8183 141.945 65.9773C141.431 66.1362 140.924 66.1955 140.426 66.1551C139.629 66.0904 138.773 66.1214 137.86 66.248C137.047 66.3827 136.37 66.679 135.832 67.137C134.986 67.6704 134.14 68.2038 133.294 68.7372C132.556 69.1789 131.905 69.7783 131.342 70.5353C130.704 70.9852 129.946 71.6762 129.067 72.6082C128.289 73.5484 127.78 74.2596 127.54 74.7418C127.225 74.9169 127.013 75.0502 126.906 75.1418C126.798 75.2334 126.594 75.2671 126.295 75.2428C126.096 75.2267 125.805 75.1028 125.423 74.8711C125.04 74.6394 124.707 74.4118 124.425 74.1882C123.95 73.8488 123.526 73.5134 123.152 73.182C122.777 72.8507 122.399 72.5692 122.016 72.3375C121.825 72.2217 121.534 72.0978 121.143 71.9658C120.761 71.7341 120.532 71.4647 120.456 71.1576C120.588 70.767 120.716 70.4262 120.84 70.1353C121.072 69.7528 121.308 69.3204 121.547 68.8382C121.779 68.4557 121.911 68.065 121.943 67.6664C121.976 67.2677 122.05 66.9727 122.166 66.7814C122.537 65.9086 122.947 65.1893 123.394 64.6236C123.841 64.0579 124.342 63.4464 124.897 62.7891C125.46 62.0321 126.019 61.325 126.574 60.6677C127.237 59.9188 127.999 59.178 128.861 58.4453C129.077 58.2621 129.292 58.0789 129.508 57.8957C129.831 57.6209 130.154 57.3462 130.478 57.0714C130.585 56.9798 130.851 56.8007 131.274 56.534C131.697 56.2673 132.173 55.9548 132.704 55.5965C133.334 55.2463 133.861 54.9378 134.284 54.6711C134.807 54.4125 135.118 54.2873 135.217 54.2953C136.379 53.5869 137.47 53.1235 138.49 52.9053C139.511 52.6871 140.532 52.4689 141.553 52.2507C141.753 52.2669 142.151 52.2992 142.749 52.3477C143.455 52.3046 144.157 52.3113 144.855 52.3679C145.561 52.3248 146.212 52.3275 146.81 52.376C147.516 52.3329 148.019 52.3234 148.318 52.3477C149.298 52.6278 150.283 52.8582 151.272 53.0387C152.36 53.2272 153.39 53.5114 154.363 53.8912C155.144 54.1552 155.776 54.4071 156.258 54.6469C156.84 54.8947 157.513 55.2503 158.278 55.7136C159.135 56.2847 159.709 56.6323 160 56.7562C160.398 56.7885 160.976 57.0862 161.733 57.6492C162.191 58.188 162.657 58.6271 163.131 58.9665C163.713 59.2143 164.241 59.5079 164.715 59.8474C165.771 60.4346 166.707 61.263 167.524 62.3325C168.448 63.3103 169.052 64.5131 169.338 65.9409C169.597 66.4635 169.893 67.1397 170.227 67.9694C170.669 68.7075 171.053 69.5412 171.379 70.4706C171.804 71.4081 172.13 72.3375 172.356 73.2588C172.69 74.0885 172.833 74.8023 172.785 75.4004C172.68 76.6961 172.517 78.0875 172.296 79.5745C172.175 81.0696 171.9 82.6024 171.471 84.1729C171.431 84.6713 171.333 85.2653 171.177 85.9549C171.128 86.553 170.934 87.089 170.595 87.5632C170.355 88.0454 170.157 88.6313 170.001 89.3209C169.844 90.0105 169.646 90.5965 169.407 91.0787C168.803 92.334 168.162 93.4358 167.483 94.384C166.904 95.3404 166.183 96.1849 165.321 96.9176L163.471 99.3259C162.932 99.7839 162.447 100.196 162.016 100.562C161.693 100.837 161.262 101.204 160.723 101.662C159.637 102.677 158.647 103.751 157.753 104.882C156.867 105.914 155.98 106.946 155.094 107.977C154.862 108.36 154.423 108.826 153.777 109.375C153.23 109.933 152.936 110.461 152.896 110.959C151.994 112.19 151.091 113.422 150.189 114.653C149.386 115.892 148.675 117.239 148.055 118.693C147.667 119.766 147.233 120.784 146.754 121.748C146.283 122.613 145.903 123.586 145.614 124.666C145.65 125.471 145.468 125.858 145.069 125.825C144.77 125.801 144.363 125.869 143.849 126.028C143.649 126.011 143.346 126.037 142.939 126.104C142.541 126.072 142.042 126.032 141.444 125.983C140.946 125.943 140.493 125.956 140.087 126.023C139.68 126.091 139.223 126.154 138.717 126.213C136.799 126.359 136.121 126.053 136.684 125.296L137.355 124.448C137.121 123.626 137.23 122.28 137.682 120.411C138.143 118.442 138.555 117.07 138.919 116.297ZM145.069 136.962C145.443 137.293 145.598 137.858 145.534 138.655L145.328 141.197C145.287 141.695 145.243 142.243 145.194 142.841C145.237 143.547 145.231 144.249 145.174 144.947L145.065 146.292C145.008 146.99 144.922 147.434 144.806 147.626C144.79 147.825 144.774 148.024 144.758 148.224L143.525 148.575C142.297 148.877 141.035 148.975 139.739 148.87C138.742 148.789 137.804 148.613 136.923 148.341C136.133 148.176 135.44 148.07 134.842 148.022C134.343 147.981 133.945 147.949 133.646 147.925C133.438 148.008 133.347 147.9 133.371 147.601C133.312 147.095 133.298 146.642 133.33 146.244C133.462 145.853 133.549 145.409 133.589 144.91C133.678 143.814 133.721 142.663 133.718 141.459C133.807 140.363 133.896 139.267 133.985 138.17C134.026 137.672 134.008 137.269 133.933 136.962C133.865 136.555 133.852 136.103 133.892 135.604C134.323 135.238 134.937 135.087 135.735 135.152C136.532 135.216 137.325 135.331 138.115 135.495C138.505 135.627 138.8 135.701 139 135.717C139.307 135.642 139.556 135.662 139.747 135.778C139.847 135.786 140.291 135.872 141.081 136.037C141.87 136.201 142.364 136.291 142.564 136.307C143.062 136.348 143.457 136.43 143.748 136.554C144.146 136.586 144.587 136.722 145.069 136.962Z" fill="black"/>
<path d="M48.8967 199.634C48.8743 198.873 48.8552 198 48.8394 197.015C48.8722 195.897 48.8564 194.912 48.792 194.06C48.4974 193.425 48.4054 192.752 48.5158 192.039C48.7169 191.284 48.6702 190.589 48.3757 189.954C48.1232 189.41 48.0246 188.96 48.0798 188.604C48.1836 188.114 48.2664 187.58 48.3282 187C48.5201 185.037 48.5759 183.137 48.4956 181.301C48.8623 179.477 48.9812 177.713 48.8523 176.009L48.8993 167.555C48.848 166.256 48.769 165.135 48.6625 164.192C48.5139 163.159 48.3199 162.147 48.0806 161.155L46.5658 157.889C46.2292 157.164 45.8229 156.525 45.347 155.974C44.8289 155.333 44.2655 154.712 43.6567 154.113C43.2649 153.743 42.4925 153.385 41.3394 153.038C40.2771 152.649 39.5013 152.403 39.0123 152.299C37.3215 151.981 35.7779 151.98 34.3817 152.297C34.0674 152.332 33.6868 152.344 33.2398 152.33C32.9255 152.366 32.566 152.423 32.161 152.5C31.8468 152.536 31.4872 152.592 31.0823 152.67C30.5866 152.789 30.0456 152.93 29.4592 153.092C28.9215 153.121 28.2897 153.304 27.564 153.64C27.3826 153.724 27.1071 153.962 26.7377 154.354C26.3683 154.746 25.9567 155.047 25.5032 155.257C24.7774 155.594 24.0484 156.042 23.3161 156.603C22.6745 157.121 22.2321 157.712 21.9889 158.376C21.5157 159.257 21.0424 160.137 20.5691 161.018C20.1445 161.766 19.8737 162.609 19.7567 163.545C19.4228 164.251 19.1033 165.226 18.7983 166.469C18.5841 167.671 18.4914 168.541 18.5204 169.079C18.3324 169.386 18.2141 169.606 18.1654 169.739C18.1168 169.872 17.9564 170.002 17.6842 170.128C17.5028 170.212 17.1886 170.247 16.7415 170.234C16.2945 170.221 15.8929 170.187 15.5366 170.132C14.9567 170.07 14.4223 169.987 13.9332 169.883C13.4441 169.78 12.976 169.721 12.529 169.708C12.3055 169.701 11.9913 169.737 11.5863 169.814C11.1393 169.801 10.8073 169.68 10.5904 169.45C10.5128 169.045 10.4562 168.685 10.4207 168.371C10.4339 167.924 10.426 167.432 10.397 166.894C10.4101 166.447 10.3325 166.042 10.1642 165.679C9.99593 165.316 9.91506 165.023 9.92163 164.799C9.81509 163.857 9.81703 163.029 9.92744 162.316C10.0378 161.604 10.1726 160.825 10.3316 159.979C10.4486 159.043 10.5866 158.153 10.7457 157.307C10.9534 156.329 11.2518 155.309 11.6409 154.246C11.7382 153.981 11.8355 153.715 11.9327 153.45C12.0787 153.051 12.2246 152.653 12.3705 152.254C12.4191 152.122 12.5618 151.835 12.7984 151.395C13.0351 150.954 13.296 150.447 13.5813 149.874C13.9573 149.259 14.2636 148.731 14.5002 148.29C14.8276 147.808 15.0366 147.546 15.1274 147.503C15.7886 146.315 16.5097 145.374 17.2907 144.681C18.0716 143.988 18.8526 143.295 19.6335 142.602C19.8149 142.518 20.1778 142.35 20.7221 142.098C21.3151 141.712 21.929 141.372 22.5641 141.078C23.157 140.693 23.7256 140.374 24.2699 140.121C24.8629 139.736 25.2954 139.48 25.5676 139.354C26.5589 139.115 27.5292 138.83 28.4784 138.5C29.5184 138.128 30.5551 137.868 31.5885 137.719C32.3984 137.564 33.0722 137.472 33.6099 137.443C34.2384 137.372 34.9996 137.349 35.8936 137.376C36.9205 137.45 37.591 137.47 37.9052 137.435C38.2681 137.266 38.9176 137.241 39.8537 137.358C40.5177 137.601 41.1396 137.753 41.7194 137.815C42.3478 137.744 42.952 137.739 43.5318 137.801C44.7401 137.792 45.9628 138.052 47.2 138.58C48.4859 138.976 49.6048 139.724 50.5567 140.826C51.0393 141.154 51.6303 141.596 52.3297 142.153C53.0779 142.578 53.8227 143.114 54.5643 143.763C55.3965 144.369 56.1381 145.017 56.7889 145.707C57.4884 146.264 57.9644 146.815 58.2168 147.36C58.7638 148.539 59.3075 149.83 59.848 151.233C60.4791 152.594 60.9952 154.063 61.3963 155.641C61.6067 156.094 61.8138 156.659 62.0176 157.337C62.27 157.881 62.3654 158.443 62.3036 159.023C62.3326 159.56 62.4489 160.168 62.6528 160.845C62.8566 161.522 62.973 162.129 63.0019 162.667C63.0953 164.057 63.0803 165.332 62.9567 166.491C62.9239 167.609 62.7129 168.699 62.3238 169.761L61.8999 172.769C61.6567 173.433 61.4378 174.03 61.2433 174.561C61.0973 174.96 60.9028 175.491 60.6596 176.155C60.2152 177.573 59.8827 178.995 59.6618 180.421C59.399 181.755 59.1361 183.09 58.8732 184.424C58.86 184.871 58.7075 185.493 58.4157 186.29C58.2146 187.044 58.2192 187.649 58.4296 188.102C58.2508 189.618 58.0721 191.134 57.8934 192.65C57.8053 194.124 57.8501 195.646 58.0277 197.217C58.2183 198.342 58.3426 199.441 58.4005 200.517C58.4164 201.502 58.565 202.535 58.8464 203.617C59.2737 204.301 59.3059 204.727 58.9431 204.895C58.6709 205.021 58.3501 205.28 57.9807 205.672C57.7993 205.756 57.5481 205.928 57.2273 206.187C56.8645 206.355 56.4109 206.566 55.8666 206.818C55.413 207.028 55.0258 207.263 54.705 207.522C54.3842 207.781 54.0181 208.061 53.6066 208.362C52.0092 209.434 51.269 209.502 51.3859 208.566L51.5516 207.497C50.9428 206.897 50.3748 205.672 49.8475 203.823C49.2781 201.882 48.9612 200.486 48.8967 199.634ZM64.43 214.586C64.9191 214.69 65.3319 215.105 65.6686 215.83L66.7415 218.144C66.9519 218.597 67.1833 219.096 67.4358 219.64C67.821 220.233 68.1609 220.847 68.4554 221.482L69.0235 222.707C69.318 223.342 69.462 223.771 69.4554 223.995C69.5396 224.176 69.6237 224.358 69.7079 224.539L68.8086 225.452C67.8883 226.32 66.8385 227.027 65.6592 227.574C64.752 227.995 63.8481 228.304 62.9475 228.501C62.1797 228.747 61.5237 228.997 60.9794 229.249C60.5258 229.459 60.1629 229.628 59.8908 229.754C59.7514 229.929 59.6186 229.88 59.4924 229.608C59.1913 229.196 58.9566 228.809 58.7883 228.446C58.7107 228.041 58.5667 227.612 58.3563 227.159C57.8935 226.161 57.3642 225.139 56.7686 224.092C56.3058 223.094 55.8429 222.096 55.3801 221.098C55.1697 220.645 54.956 220.303 54.7391 220.073C54.4801 219.752 54.2454 219.365 54.035 218.911C54.2295 218.38 54.6897 217.946 55.4154 217.61C56.1412 217.273 56.8879 216.982 57.6558 216.736C58.0607 216.658 58.3539 216.577 58.5353 216.493C58.7654 216.276 58.9922 216.171 59.2157 216.178C59.3064 216.136 59.7357 215.992 60.5035 215.746C61.2713 215.5 61.7459 215.335 61.9274 215.251C62.381 215.04 62.7649 214.917 63.0791 214.882C63.442 214.713 63.8923 214.615 64.43 214.586Z" fill="black"/>
<path d="M80.92 385.4C80.28 385.507 79.6933 385.667 79.16 385.88C78.6267 386.093 78.12 386.493 77.64 387.08C76.8933 387.827 76.36 388.68 76.04 389.64C75.7733 390.6 75.64 391.693 75.64 392.92V394.92C75.9067 395.453 76.0933 396.04 76.2 396.68C76.3067 397.32 76.6267 397.88 77.16 398.36C77.4267 398.84 77.7733 399.32 78.2 399.8C78.6267 400.28 79.0533 400.813 79.48 401.4C79.7467 401.56 80.0933 401.693 80.52 401.8C80.9467 401.853 81.2933 402.013 81.56 402.28C82.2533 402.547 83.0533 402.707 83.96 402.76C84.8667 402.76 85.6933 402.76 86.44 402.76C86.8133 402.707 87.1867 402.627 87.56 402.52C87.9333 402.36 88.52 402.28 89.32 402.28C89.5867 402.173 89.8 402.28 89.96 402.6C90.12 402.867 90.28 403.213 90.44 403.64C90.6 403.907 90.76 404.253 90.92 404.68C91.08 405.053 91.2133 405.4 91.32 405.72C91.4267 405.933 91.5333 406.147 91.64 406.36C91.8 406.52 91.88 406.76 91.88 407.08C91.7733 407.133 91.64 407.213 91.48 407.32C91.32 407.48 91.1333 407.613 90.92 407.72C90.8133 407.987 90.5733 408.147 90.2 408.2C89.8267 408.307 89.5333 408.467 89.32 408.68C87.4 409.64 85.4533 410.12 83.48 410.12C83 410.12 82.5467 410.12 82.12 410.12C81.6933 410.173 81.16 410.173 80.52 410.12C80.04 410.12 79.4 409.987 78.6 409.72C78.28 409.72 77.8 409.72 77.16 409.72C76.52 409.72 76.04 409.693 75.72 409.64C75.4533 409.587 75.1867 409.48 74.92 409.32C74.7067 409.16 74.4667 409.027 74.2 408.92C73.9333 408.813 73.6667 408.707 73.4 408.6C73.1333 408.493 72.8667 408.387 72.6 408.28C72.0133 408.013 71.48 407.587 71 407C70.5733 406.467 70.0933 405.96 69.56 405.48C69.08 405.053 68.5467 404.493 67.96 403.8C67.4267 403.053 67.1067 402.44 67 401.96C66.7867 401.373 66.4933 400.733 66.12 400.04C65.8 399.347 65.6133 398.627 65.56 397.88C65.4533 397.56 65.4 397.293 65.4 397.08C65.4 396.867 65.4 396.653 65.4 396.44V392.92C65.4 391.693 65.4267 390.6 65.48 389.64C65.5867 388.627 65.88 387.64 66.36 386.68C66.6267 386.147 66.8667 385.56 67.08 384.92C67.3467 384.28 67.7467 383.693 68.28 383.16C68.28 382.893 68.3867 382.653 68.6 382.44C68.8133 382.173 69.0533 381.96 69.32 381.8L70.68 380.28C71.2667 380.013 71.72 379.773 72.04 379.56C72.36 379.293 72.7333 379.027 73.16 378.76C73.9067 378.493 74.6267 378.28 75.32 378.12C76.0133 377.907 76.6267 377.8 77.16 377.8C78.0133 377.64 78.7067 377.507 79.24 377.4C79.8267 377.24 80.5733 377.32 81.48 377.64C81.96 377.693 82.44 377.773 82.92 377.88C83.4533 377.933 83.9333 378.067 84.36 378.28C84.7867 378.387 85.1067 378.467 85.32 378.52C85.5333 378.573 85.8 378.653 86.12 378.76C86.6533 378.867 87.16 379.053 87.64 379.32C88.1733 379.587 88.6533 379.853 89.08 380.12L89.64 380.28C89.6933 380.28 89.6933 380.493 89.64 380.92C89.64 381.293 89.5867 381.693 89.48 382.12C89.3733 382.387 89.32 382.68 89.32 383C89.32 383.267 89.32 383.667 89.32 384.2V385.64C89.32 385.747 89.24 385.88 89.08 386.04C89.0267 386.093 88.9733 386.12 88.92 386.12C88.6533 386.12 88.4133 386.093 88.2 386.04C87.9867 385.933 87.7467 385.88 87.48 385.88C87.1067 385.773 86.6533 385.64 86.12 385.48C85.5867 385.267 85.1333 385.16 84.76 385.16C84.0667 385.16 83.4 385.16 82.76 385.16C82.1733 385.16 81.56 385.24 80.92 385.4ZM98.65 405.88C98.5967 405.453 98.5167 404.813 98.41 403.96C98.3567 403.107 98.3033 402.253 98.25 401.4C98.1967 400.493 98.1433 399.693 98.09 399C98.0367 398.253 98.0367 397.773 98.09 397.56C98.09 397.347 98.09 397 98.09 396.52C98.09 395.987 98.0633 395.453 98.01 394.92C97.9567 394.333 97.9033 393.8 97.85 393.32C97.85 392.787 97.85 392.387 97.85 392.12C97.9033 390.467 97.9033 388.76 97.85 387C97.85 385.24 97.93 383.56 98.09 381.96C98.09 381.693 98.09 381.267 98.09 380.68C98.1433 380.04 98.17 379.587 98.17 379.32C98.17 379.053 98.1433 378.707 98.09 378.28C98.0367 377.8 98.0633 377.427 98.17 377.16C98.17 376.68 98.17 376.093 98.17 375.4C98.17 374.707 98.17 374.04 98.17 373.4C98.17 372.707 98.17 372.12 98.17 371.64C98.17 371.107 98.17 370.76 98.17 370.6C98.1167 370.333 98.09 369.693 98.09 368.68C98.1433 367.667 98.2233 366.733 98.33 365.88C98.4367 365.453 98.4367 365 98.33 364.52C98.2767 363.987 98.3033 363.507 98.41 363.08C98.57 362.28 98.65 361.48 98.65 360.68C98.65 359.88 98.65 359.053 98.65 358.2C98.65 357.08 98.65 355.987 98.65 354.92C98.7033 353.853 98.73 352.76 98.73 351.64H104.41C104.357 352.28 104.41 353.08 104.57 354.04C104.783 354.947 104.89 355.72 104.89 356.36L105.37 366.92C105.317 367.667 105.29 368.44 105.29 369.24C105.343 369.987 105.37 370.76 105.37 371.56C105.317 372.413 105.29 373.293 105.29 374.2C105.343 375.053 105.37 375.933 105.37 376.84C105.37 377.64 105.397 378.44 105.45 379.24C105.503 379.987 105.663 380.76 105.93 381.56C106.197 381.293 106.49 381.053 106.81 380.84C107.13 380.573 107.45 380.413 107.77 380.36C109.317 379.293 111.077 378.76 113.05 378.76C113.317 378.76 113.69 378.707 114.17 378.6C114.65 378.493 115.157 378.44 115.69 378.44C115.957 378.44 116.223 378.467 116.49 378.52C116.81 378.573 117.237 378.733 117.77 379C118.57 379.213 119.343 379.533 120.09 379.96C120.837 380.387 121.583 380.733 122.33 381C122.917 381.427 123.397 381.827 123.77 382.2C124.143 382.52 124.463 382.84 124.73 383.16C124.997 383.48 125.263 383.8 125.53 384.12C125.797 384.44 126.117 384.787 126.49 385.16C127.29 386.173 127.823 387.107 128.09 387.96C128.41 388.813 128.57 389.747 128.57 390.76C128.837 392.307 128.97 393.773 128.97 395.16C129.023 396.547 129.05 398.013 129.05 399.56C129.05 400.893 129.023 402.2 128.97 403.48C128.917 404.76 128.81 405.853 128.65 406.76C128.543 407.453 128.517 407.8 128.57 407.8C127.237 407.8 125.903 407.827 124.57 407.88C123.29 407.933 121.877 408.093 120.33 408.36C120.223 408.04 120.197 407.667 120.25 407.24C120.303 406.813 120.33 406.467 120.33 406.2C120.277 405.827 120.277 405.4 120.33 404.92C120.437 404.387 120.49 403.8 120.49 403.16C120.49 402.2 120.463 401.16 120.41 400.04C120.357 398.92 120.33 397.907 120.33 397C120.33 395.933 120.303 394.867 120.25 393.8C120.197 392.733 120.037 391.56 119.77 390.28C119.77 389.8 119.69 389.293 119.53 388.76C119.423 388.227 119.37 387.693 119.37 387.16C119.21 386.893 119.077 386.627 118.97 386.36C118.863 386.093 118.703 385.907 118.49 385.8C118.117 385.587 117.717 385.24 117.29 384.76C116.917 384.44 116.25 384.2 115.29 384.04C114.383 383.827 113.637 383.853 113.05 384.12C112.57 384.387 112.09 384.653 111.61 384.92C111.13 385.133 110.757 385.373 110.49 385.64C109.957 385.907 109.477 386.387 109.05 387.08C108.677 387.773 108.49 388.52 108.49 389.32C107.423 391.933 106.89 394.84 106.89 398.04C106.783 399 106.73 399.933 106.73 400.84C106.73 401.693 106.73 402.547 106.73 403.4C106.73 403.88 106.677 404.36 106.57 404.84C106.517 405.267 106.49 405.72 106.49 406.2V409.32C105.157 409.32 103.85 409.4 102.57 409.56C101.77 409.667 100.997 409.853 100.25 410.12C99.9833 410.227 99.7167 410.333 99.45 410.44C99.2367 410.547 98.9967 410.573 98.73 410.52C98.5167 410.253 98.4633 409.853 98.57 409.32C98.73 408.787 98.7833 408.307 98.73 407.88C98.6767 407.453 98.65 407.08 98.65 406.76C98.7033 406.44 98.7033 406.147 98.65 405.88ZM158.478 391.64C158.478 391.907 158.344 392.173 158.078 392.44C157.918 392.6 157.678 392.707 157.358 392.76C157.038 392.813 156.744 392.84 156.478 392.84C156.104 392.947 155.651 393 155.118 393C154.584 393 154.131 393 153.758 393C153.011 393 152.451 393.027 152.078 393.08C151.704 393.08 151.091 393.133 150.238 393.24L145.438 393.64V394.6C145.438 395.187 145.518 395.773 145.678 396.36C145.838 396.893 146.131 397.453 146.558 398.04C146.824 398.467 147.144 398.867 147.518 399.24C147.891 399.613 148.264 399.853 148.638 399.96C148.958 400.067 149.251 400.173 149.518 400.28C149.784 400.387 150.024 400.493 150.238 400.6C150.504 400.653 150.744 400.653 150.958 400.6C152.398 400.6 153.438 400.44 154.078 400.12C154.771 399.8 155.598 399.4 156.558 398.92C156.771 398.92 156.984 398.813 157.198 398.6C157.464 398.387 157.651 398.253 157.758 398.2C158.024 398.093 158.398 397.827 158.878 397.4C159.411 396.973 159.811 396.707 160.078 396.6C160.238 396.707 160.291 397.08 160.238 397.72C160.184 398.307 160.211 398.867 160.318 399.4V400.28V401.88C160.051 402.2 159.838 402.44 159.678 402.6C159.571 402.707 159.464 402.813 159.358 402.92C159.304 403.027 159.198 403.16 159.038 403.32C158.878 403.48 158.638 403.72 158.318 404.04C157.358 405 156.344 405.64 155.278 405.96C154.691 406.28 154.051 406.52 153.358 406.68C152.664 406.787 152.104 406.92 151.678 407.08C151.411 407.133 151.171 407.16 150.958 407.16C150.744 407.213 150.531 407.24 150.318 407.24H149.678C148.664 407.24 147.678 407.213 146.718 407.16C145.758 407.16 144.744 406.893 143.678 406.36C143.304 406.413 142.771 406.307 142.078 406.04C141.438 405.773 141.011 405.507 140.798 405.24C140.211 404.92 139.678 404.52 139.198 404.04C138.771 403.56 138.291 403.133 137.758 402.76C137.011 402.227 136.478 401.667 136.158 401.08C135.838 400.493 135.544 399.88 135.278 399.24C135.011 398.76 134.771 398.227 134.558 397.64C134.344 397.053 134.131 396.467 133.918 395.88C133.918 395.293 133.891 394.733 133.838 394.2C133.838 393.667 133.838 393.133 133.838 392.6V389.64C133.838 388.68 134.024 387.533 134.398 386.2C134.824 384.867 135.331 383.72 135.918 382.76C136.078 382.547 136.264 382.333 136.478 382.12C136.638 381.907 136.824 381.693 137.038 381.48C137.304 381.267 137.571 381.027 137.838 380.76C137.998 380.707 138.158 380.627 138.318 380.52C138.531 380.413 138.824 380.253 139.198 380.04C139.358 379.933 139.544 379.747 139.758 379.48C140.024 379.213 140.371 379.027 140.798 378.92C141.384 378.707 141.944 378.493 142.478 378.28C143.011 378.013 143.411 377.88 143.678 377.88C144.051 377.88 144.718 377.907 145.678 377.96C146.691 378.013 147.651 378.067 148.558 378.12C149.038 378.173 149.438 378.253 149.758 378.36C150.078 378.467 150.318 378.52 150.478 378.52C150.904 378.573 151.251 378.627 151.518 378.68C151.838 378.733 152.158 378.813 152.478 378.92C153.438 379.24 154.131 379.587 154.558 379.96C155.038 380.28 155.438 380.627 155.758 381C155.971 381.267 156.158 381.587 156.318 381.96C156.531 382.28 156.744 382.573 156.958 382.84C157.224 383.16 157.464 383.613 157.678 384.2C157.944 384.733 158.131 385.267 158.238 385.8C158.344 386.227 158.424 386.787 158.478 387.48C158.531 388.173 158.558 388.787 158.558 389.32C158.558 389.853 158.531 390.253 158.478 390.52C158.478 390.787 158.478 391.16 158.478 391.64ZM151.598 387C151.598 386.893 151.598 386.707 151.598 386.44C151.598 386.12 151.544 385.907 151.438 385.8C151.011 385.107 150.398 384.707 149.598 384.6C148.851 384.44 148.184 384.413 147.598 384.52C147.224 384.627 146.984 384.76 146.878 384.92C146.771 385.08 146.611 385.32 146.398 385.64C146.291 385.747 146.211 385.853 146.158 385.96C146.104 386.067 146.024 386.173 145.918 386.28C145.811 386.387 145.731 386.547 145.678 386.76C145.678 386.92 145.651 387.08 145.598 387.24C145.491 387.507 145.438 387.693 145.438 387.8C145.438 387.907 145.491 388.173 145.598 388.6C145.811 388.707 146.211 388.813 146.798 388.92C147.438 388.973 148.078 389 148.718 389C149.411 389 150.051 388.973 150.638 388.92C151.278 388.813 151.704 388.707 151.918 388.6C151.971 388.547 151.918 388.413 151.758 388.2C151.651 387.933 151.598 387.533 151.598 387ZM180.686 385.4C180.046 385.507 179.459 385.667 178.926 385.88C178.392 386.093 177.886 386.493 177.406 387.08C176.659 387.827 176.126 388.68 175.806 389.64C175.539 390.6 175.406 391.693 175.406 392.92V394.92C175.672 395.453 175.859 396.04 175.966 396.68C176.072 397.32 176.392 397.88 176.926 398.36C177.192 398.84 177.539 399.32 177.966 399.8C178.392 400.28 178.819 400.813 179.246 401.4C179.512 401.56 179.859 401.693 180.286 401.8C180.712 401.853 181.059 402.013 181.326 402.28C182.019 402.547 182.819 402.707 183.726 402.76C184.632 402.76 185.459 402.76 186.206 402.76C186.579 402.707 186.952 402.627 187.326 402.52C187.699 402.36 188.286 402.28 189.086 402.28C189.352 402.173 189.566 402.28 189.726 402.6C189.886 402.867 190.046 403.213 190.206 403.64C190.366 403.907 190.526 404.253 190.686 404.68C190.846 405.053 190.979 405.4 191.086 405.72C191.192 405.933 191.299 406.147 191.406 406.36C191.566 406.52 191.646 406.76 191.646 407.08C191.539 407.133 191.406 407.213 191.246 407.32C191.086 407.48 190.899 407.613 190.686 407.72C190.579 407.987 190.339 408.147 189.966 408.2C189.592 408.307 189.299 408.467 189.086 408.68C187.166 409.64 185.219 410.12 183.246 410.12C182.766 410.12 182.312 410.12 181.886 410.12C181.459 410.173 180.926 410.173 180.286 410.12C179.806 410.12 179.166 409.987 178.366 409.72C178.046 409.72 177.566 409.72 176.926 409.72C176.286 409.72 175.806 409.693 175.486 409.64C175.219 409.587 174.952 409.48 174.686 409.32C174.472 409.16 174.232 409.027 173.966 408.92C173.699 408.813 173.432 408.707 173.166 408.6C172.899 408.493 172.632 408.387 172.366 408.28C171.779 408.013 171.246 407.587 170.766 407C170.339 406.467 169.859 405.96 169.326 405.48C168.846 405.053 168.312 404.493 167.726 403.8C167.192 403.053 166.872 402.44 166.766 401.96C166.552 401.373 166.259 400.733 165.886 400.04C165.566 399.347 165.379 398.627 165.326 397.88C165.219 397.56 165.166 397.293 165.166 397.08C165.166 396.867 165.166 396.653 165.166 396.44V392.92C165.166 391.693 165.192 390.6 165.246 389.64C165.352 388.627 165.646 387.64 166.126 386.68C166.392 386.147 166.632 385.56 166.846 384.92C167.112 384.28 167.512 383.693 168.046 383.16C168.046 382.893 168.152 382.653 168.366 382.44C168.579 382.173 168.819 381.96 169.086 381.8L170.446 380.28C171.032 380.013 171.486 379.773 171.806 379.56C172.126 379.293 172.499 379.027 172.926 378.76C173.672 378.493 174.392 378.28 175.086 378.12C175.779 377.907 176.392 377.8 176.926 377.8C177.779 377.64 178.472 377.507 179.006 377.4C179.592 377.24 180.339 377.32 181.246 377.64C181.726 377.693 182.206 377.773 182.686 377.88C183.219 377.933 183.699 378.067 184.126 378.28C184.552 378.387 184.872 378.467 185.086 378.52C185.299 378.573 185.566 378.653 185.886 378.76C186.419 378.867 186.926 379.053 187.406 379.32C187.939 379.587 188.419 379.853 188.846 380.12L189.406 380.28C189.459 380.28 189.459 380.493 189.406 380.92C189.406 381.293 189.352 381.693 189.246 382.12C189.139 382.387 189.086 382.68 189.086 383C189.086 383.267 189.086 383.667 189.086 384.2V385.64C189.086 385.747 189.006 385.88 188.846 386.04C188.792 386.093 188.739 386.12 188.686 386.12C188.419 386.12 188.179 386.093 187.966 386.04C187.752 385.933 187.512 385.88 187.246 385.88C186.872 385.773 186.419 385.64 185.886 385.48C185.352 385.267 184.899 385.16 184.526 385.16C183.832 385.16 183.166 385.16 182.526 385.16C181.939 385.16 181.326 385.24 180.686 385.4ZM211.856 385.4L213.616 383.64L216.336 381C216.656 380.627 216.976 380.333 217.296 380.12C217.616 379.907 218.149 379.853 218.896 379.96C219.429 379.96 220.016 380.013 220.656 380.12C221.296 380.227 222.016 380.28 222.816 380.28C222.922 380.28 223.242 380.307 223.776 380.36C224.362 380.36 224.656 380.387 224.656 380.44C224.656 380.707 224.576 380.92 224.416 381.08L220.976 384.76C220.869 384.867 220.602 385.133 220.176 385.56C219.749 385.933 219.296 386.36 218.816 386.84C218.336 387.267 217.882 387.693 217.456 388.12C217.029 388.493 216.762 388.76 216.656 388.92C216.229 389.4 215.749 389.853 215.216 390.28C214.736 390.707 214.282 391.133 213.856 391.56C213.376 392.04 212.922 392.493 212.496 392.92C212.069 393.347 211.562 393.773 210.976 394.2L209.616 394.92C209.722 395.133 210.042 395.533 210.576 396.12C211.162 396.707 211.776 397.293 212.416 397.88C213.002 398.467 213.562 398.973 214.096 399.4C214.629 399.773 214.949 400.04 215.056 400.2L217.936 403.16L220.736 405.8C221.002 406.173 221.402 406.707 221.936 407.4C222.522 408.093 223.189 408.813 223.936 409.56C224.202 409.827 224.469 410.093 224.736 410.36C225.056 410.627 225.349 410.893 225.616 411.16C226.042 411.587 226.416 411.987 226.736 412.36C227.056 412.733 227.296 413.053 227.456 413.32C227.456 413.48 227.082 413.507 226.336 413.4C225.909 413.293 225.509 413.213 225.136 413.16C224.816 413.16 224.442 413.133 224.016 413.08C223.482 413.027 222.949 413 222.416 413C221.882 413.053 221.349 413.027 220.816 412.92C220.389 412.813 219.989 412.787 219.616 412.84C219.242 412.893 218.869 412.92 218.496 412.92C218.176 412.92 217.909 412.84 217.696 412.68C217.536 412.573 217.429 412.467 217.376 412.36C217.056 411.987 216.736 411.613 216.416 411.24C216.149 410.92 215.856 410.6 215.536 410.28C215.216 409.907 214.842 409.453 214.416 408.92C214.042 408.387 213.696 407.96 213.376 407.64C212.682 406.893 212.042 406.307 211.456 405.88C210.869 405.4 210.256 404.84 209.616 404.2C209.136 403.4 208.522 402.707 207.776 402.12C207.082 401.533 206.362 400.84 205.616 400.04C205.669 400.307 205.669 400.6 205.616 400.92C205.616 401.187 205.616 401.453 205.616 401.72C205.616 401.933 205.616 402.307 205.616 402.84C205.669 403.373 205.696 403.96 205.696 404.6C205.749 405.187 205.776 405.773 205.776 406.36C205.829 406.893 205.829 407.267 205.776 407.48C205.776 407.96 205.749 408.52 205.696 409.16C205.696 409.853 205.669 410.253 205.616 410.36C205.509 410.467 205.269 410.493 204.896 410.44C204.576 410.387 204.282 410.36 204.016 410.36C203.322 410.36 202.602 410.36 201.856 410.36C201.162 410.36 200.522 410.44 199.936 410.6C199.669 410.707 199.402 410.733 199.136 410.68C198.869 410.68 198.602 410.68 198.336 410.68C198.336 410.467 198.309 409.987 198.256 409.24C198.256 408.493 198.229 407.72 198.176 406.92C198.176 406.067 198.176 405.293 198.176 404.6C198.176 403.853 198.202 403.373 198.256 403.16L198.016 397.48C198.016 397.053 197.936 396.627 197.776 396.2C197.669 395.72 197.642 395.267 197.696 394.84C197.696 394.093 197.722 393.347 197.776 392.6C197.882 391.853 197.909 391.107 197.856 390.36C197.802 389.613 197.802 388.867 197.856 388.12C197.909 387.32 197.962 386.547 198.016 385.8V382.68C198.016 381.88 197.989 381.107 197.936 380.36C197.936 379.613 197.909 378.84 197.856 378.04C197.749 377.08 197.749 376.12 197.856 375.16C197.962 374.147 198.042 373.133 198.096 372.12L198.256 369.48V363.8C198.256 363.373 198.229 362.92 198.176 362.44C198.122 361.907 198.122 361.373 198.176 360.84V359.4C198.176 359.133 198.282 358.893 198.496 358.68C198.709 358.413 198.922 358.28 199.136 358.28C199.936 358.28 200.602 358.28 201.136 358.28C201.669 358.227 202.309 358.2 203.056 358.2C203.376 358.2 203.642 358.173 203.856 358.12C204.016 358.44 204.096 358.76 204.096 359.08C204.042 359.987 204.042 360.973 204.096 362.04C204.202 363.107 204.256 364.093 204.256 365L204.416 367.24V369.24C204.416 369.56 204.389 370.04 204.336 370.68C204.336 371.267 204.336 371.907 204.336 372.6C204.336 373.293 204.336 373.96 204.336 374.6C204.336 375.187 204.362 375.613 204.416 375.88C204.416 376.573 204.416 377.267 204.416 377.96C204.469 378.6 204.522 379.267 204.576 379.96C204.576 380.227 204.576 380.653 204.576 381.24C204.629 381.827 204.656 382.467 204.656 383.16C204.656 383.8 204.656 384.413 204.656 385C204.656 385.587 204.656 386.013 204.656 386.28L205.056 389.72V390.76C205.802 390.227 206.442 389.747 206.976 389.32C207.509 388.84 208.069 388.387 208.656 387.96L211.856 385.4ZM255.475 384.28C255.528 384.547 255.528 384.787 255.475 385C255.422 385.16 255.422 385.4 255.475 385.72C255.475 385.827 255.475 385.907 255.475 385.96C255.475 386.013 255.422 386.093 255.315 386.2C255.208 386.253 255.128 386.28 255.075 386.28C255.022 386.227 254.942 386.2 254.835 386.2C254.248 386.253 253.688 386.253 253.155 386.2C252.888 386.147 252.622 386.147 252.355 386.2C252.142 386.2 251.902 386.2 251.635 386.2H247.715C247.395 386.2 247.075 386.2 246.755 386.2C246.435 386.147 246.115 386.12 245.795 386.12C245.422 386.12 245.075 386.147 244.755 386.2C244.435 386.2 244.088 386.2 243.715 386.2H239.155C239.048 386.2 238.862 386.2 238.595 386.2C238.382 386.147 238.142 386.12 237.875 386.12H236.915C236.808 386.12 236.675 386.12 236.515 386.12C236.408 386.067 236.222 386.04 235.955 386.04C235.528 386.04 235.102 386.067 234.675 386.12C234.302 386.12 233.875 386.12 233.395 386.12C233.288 386.12 233.128 386.147 232.915 386.2C232.702 386.2 232.515 386.147 232.355 386.04C232.302 385.827 232.275 385.613 232.275 385.4C232.328 385.187 232.355 384.973 232.355 384.76C232.355 384.44 232.328 384.147 232.275 383.88C232.275 383.56 232.275 383.24 232.275 382.92C232.275 382.493 232.275 382.093 232.275 381.72C232.328 381.293 232.355 380.867 232.355 380.44C232.782 380.333 233.208 380.28 233.635 380.28C234.062 380.227 234.462 380.2 234.835 380.2H236.675C236.942 380.2 237.128 380.227 237.235 380.28C237.395 380.28 237.608 380.307 237.875 380.36C238.408 380.467 238.915 380.493 239.395 380.44C239.928 380.387 240.462 380.36 240.995 380.36C241.742 380.253 242.488 380.253 243.235 380.36C243.982 380.413 244.675 380.44 245.315 380.44H248.275C249.075 380.44 249.822 380.467 250.515 380.52C251.262 380.52 251.955 380.52 252.595 380.52C253.022 380.52 253.368 380.52 253.635 380.52C253.955 380.467 254.248 380.467 254.515 380.52C254.888 380.52 255.182 380.573 255.395 380.68C255.448 380.947 255.448 381.16 255.395 381.32C255.395 381.427 255.395 381.533 255.395 381.64C255.555 382.547 255.582 383.427 255.475 384.28ZM268.882 400.04C268.989 401.107 269.015 402.067 268.962 402.92C268.909 403.773 268.829 404.573 268.722 405.32C268.722 405.64 268.642 405.88 268.482 406.04C267.949 406.147 267.335 406.253 266.642 406.36C265.949 406.413 265.309 406.413 264.722 406.36C264.242 406.307 263.762 406.333 263.282 406.44C262.802 406.493 262.455 406.52 262.242 406.52C262.242 406.2 262.215 405.907 262.162 405.64C262.109 405.373 262.109 405 262.162 404.52C262.215 404.093 262.215 403.64 262.162 403.16C262.162 402.68 262.162 402.227 262.162 401.8V397.88C262.109 396.653 262.082 395.4 262.082 394.12C262.082 392.84 262.055 391.987 262.002 391.56C261.949 391.08 261.949 390.6 262.002 390.12C262.109 389.64 262.162 389.16 262.162 388.68C262.109 387.933 262.082 387.187 262.082 386.44C262.135 385.64 262.162 384.867 262.162 384.12C262.162 383.48 262.135 382.653 262.082 381.64C262.029 380.573 262.055 379.72 262.162 379.08C262.589 378.973 263.122 378.92 263.762 378.92C264.402 378.92 265.095 378.893 265.842 378.84C266.429 378.787 267.015 378.76 267.602 378.76C268.189 378.76 268.615 378.76 268.882 378.76C268.989 378.76 269.015 378.92 268.962 379.24C268.962 379.507 268.962 379.693 268.962 379.8C268.909 381.133 268.909 382.307 268.962 383.32C269.015 384.28 268.989 385.293 268.882 386.36C268.935 387.427 268.935 388.36 268.882 389.16C268.882 389.907 268.829 390.813 268.722 391.88C268.722 392.04 268.722 392.467 268.722 393.16C268.722 393.853 268.749 394.653 268.802 395.56C268.855 396.413 268.882 397.267 268.882 398.12C268.882 398.92 268.882 399.56 268.882 400.04ZM262.082 373.64C262.029 373.373 262.002 372.973 262.002 372.44C262.055 371.907 262.082 371.347 262.082 370.76C262.082 370.493 262.055 370.253 262.002 370.04C262.002 369.827 262.002 369.613 262.002 369.4C262.002 369.293 262.002 369.213 262.002 369.16C262.055 369.107 262.082 369.027 262.082 368.92H267.842C268.109 368.92 268.269 368.947 268.322 369C268.375 369 268.402 369.133 268.402 369.4V374.6C268.082 374.653 267.575 374.68 266.882 374.68C266.242 374.68 265.575 374.68 264.882 374.68C264.189 374.68 263.549 374.68 262.962 374.68C262.429 374.627 262.162 374.547 262.162 374.44C262.109 374.28 262.082 374.013 262.082 373.64ZM277.238 379.72C277.238 379.56 277.211 379.4 277.158 379.24C277.105 379.08 277.105 378.92 277.158 378.76C277.211 378.76 277.291 378.76 277.398 378.76C277.558 378.707 277.691 378.68 277.798 378.68H278.278C278.545 378.627 278.811 378.627 279.078 378.68C279.345 378.68 279.611 378.653 279.878 378.6H282.278C282.385 378.6 282.491 378.653 282.598 378.76C282.705 378.867 282.785 378.947 282.838 379L282.998 379.72C282.998 379.88 283.025 380.067 283.078 380.28C283.185 380.707 283.238 381.16 283.238 381.64C283.291 381.8 283.318 381.96 283.318 382.12C283.318 382.44 283.345 382.6 283.398 382.6C283.611 382.387 283.771 382.173 283.878 381.96C283.985 381.693 284.118 381.507 284.278 381.4C284.438 381.24 284.545 381.133 284.598 381.08C284.705 381.027 284.785 380.973 284.838 380.92C284.945 380.867 285.078 380.813 285.238 380.76C285.398 380.653 285.638 380.493 285.958 380.28C286.438 380.013 286.865 379.8 287.238 379.64C287.665 379.48 288.305 379.187 289.158 378.76C289.318 378.707 289.585 378.627 289.958 378.52C290.385 378.413 290.838 378.333 291.318 378.28C291.798 378.173 292.278 378.12 292.758 378.12C293.291 378.067 293.745 378.04 294.118 378.04C294.705 378.093 295.185 378.173 295.558 378.28C295.931 378.333 296.438 378.413 297.078 378.52C297.345 378.573 297.771 378.627 298.358 378.68C298.998 378.733 299.425 378.813 299.638 378.92C300.971 379.667 302.038 380.307 302.838 380.84C303.638 381.373 304.331 382.093 304.918 383C305.025 383.107 305.185 383.24 305.398 383.4C305.611 383.507 305.851 383.693 306.118 383.96C306.385 384.227 306.625 384.6 306.838 385.08C307.105 385.507 307.238 385.773 307.238 385.88C307.451 386.787 307.691 387.533 307.958 388.12C308.225 388.653 308.385 389.373 308.438 390.28C308.491 390.707 308.625 391.187 308.838 391.72C309.051 392.2 309.158 392.707 309.158 393.24C309.158 393.773 309.185 394.387 309.238 395.08C309.291 395.72 309.265 396.653 309.158 397.88C309.158 398.253 309.158 398.6 309.158 398.92C309.211 399.24 309.238 399.56 309.238 399.88V403.56C309.238 403.933 309.238 404.28 309.238 404.6C309.238 404.92 309.211 405.24 309.158 405.56C309.158 405.987 309.158 406.36 309.158 406.68C309.211 407 309.238 407.373 309.238 407.8C309.238 407.907 309.238 408.013 309.238 408.12C309.238 408.28 309.185 408.387 309.078 408.44C308.971 408.493 308.811 408.52 308.598 408.52C308.438 408.52 308.305 408.52 308.198 408.52C307.718 408.52 307.265 408.52 306.838 408.52C306.411 408.573 305.958 408.573 305.478 408.52L303.078 408.28C302.865 408.227 302.571 408.227 302.198 408.28C301.825 408.333 301.585 408.253 301.478 408.04C301.425 406.813 301.398 405.96 301.398 405.48C301.451 404.947 301.478 404.467 301.478 404.04C301.478 403.773 301.451 403.453 301.398 403.08C301.345 402.653 301.291 402.093 301.238 401.4L301.478 397.16C301.478 396.627 301.451 396.227 301.398 395.96C301.398 395.64 301.371 395.4 301.318 395.24C301.318 395.027 301.291 394.787 301.238 394.52C301.238 394.253 301.238 393.827 301.238 393.24C301.238 392.28 301.051 391.32 300.678 390.36C300.358 389.4 299.958 388.44 299.478 387.48C299.211 386.947 298.865 386.467 298.438 386.04C298.011 385.613 297.451 385.24 296.758 384.92C296.651 384.867 296.518 384.813 296.358 384.76C296.198 384.707 296.065 384.68 295.958 384.68L294.118 384.52C293.211 384.467 292.278 384.627 291.318 385C290.358 385.373 289.771 385.747 289.558 386.12C289.185 386.76 288.891 387.24 288.678 387.56C288.465 387.88 288.251 388.2 288.038 388.52C287.985 388.68 287.905 388.973 287.798 389.4C287.691 389.773 287.558 390.253 287.398 390.84C287.291 391.373 287.185 391.96 287.078 392.6C286.971 393.187 286.918 393.72 286.918 394.2C286.918 394.573 286.918 394.947 286.918 395.32C286.918 395.64 286.891 395.96 286.838 396.28L286.678 398.52L286.198 401.56C286.198 402.093 286.198 402.68 286.198 403.32C286.198 403.907 286.171 404.467 286.118 405V406.84C285.798 407.053 285.531 407.16 285.318 407.16C284.731 407.267 284.305 407.373 284.038 407.48C283.825 407.587 283.398 407.613 282.758 407.56C282.171 407.507 281.398 407.507 280.438 407.56C279.478 407.667 278.705 407.667 278.118 407.56C277.531 407.453 277.238 407.373 277.238 407.32C277.238 407.32 277.238 407.187 277.238 406.92C277.238 406.707 277.238 406.387 277.238 405.96C277.291 405.48 277.318 405 277.318 404.52C277.318 403.987 277.318 403.48 277.318 403C277.371 402.52 277.398 402.147 277.398 401.88C277.398 400.92 277.371 400.12 277.318 399.48C277.265 398.84 277.238 398.04 277.238 397.08C277.238 396.28 277.211 395.64 277.158 395.16C277.158 394.627 277.131 393.96 277.078 393.16C277.078 392.733 277.105 392.2 277.158 391.56C277.211 390.867 277.238 390.147 277.238 389.4C277.238 388.493 277.211 387.613 277.158 386.76C277.158 385.907 277.158 385.267 277.158 384.84C277.105 383.933 277.078 383.08 277.078 382.28C277.078 381.427 277.131 380.573 277.238 379.72Z" fill="black"/>
<path d="M170.31 322.055C169.745 322.373 169.247 322.723 168.818 323.105C168.389 323.487 168.049 324.035 167.797 324.75C167.349 325.706 167.137 326.69 167.163 327.702C167.239 328.695 167.485 329.769 167.902 330.922L168.582 332.803C169.014 333.214 169.389 333.702 169.707 334.268C170.025 334.833 170.517 335.251 171.181 335.521C171.595 335.882 172.085 336.215 172.649 336.522C173.214 336.828 173.796 337.185 174.397 337.591C174.702 337.651 175.073 337.658 175.511 337.614C175.93 337.519 176.311 337.551 176.652 337.711C177.395 337.726 178.202 337.605 179.072 337.347C179.925 337.038 180.702 336.757 181.405 336.503C181.738 336.326 182.061 336.124 182.376 335.897C182.673 335.619 183.197 335.345 183.95 335.073C184.164 334.882 184.401 334.909 184.66 335.156C184.902 335.352 185.17 335.624 185.465 335.971C185.707 336.167 185.975 336.439 186.271 336.786C186.548 337.082 186.791 337.363 187 337.628C187.173 337.792 187.346 337.956 187.519 338.121C187.724 338.217 187.881 338.415 187.989 338.716C187.907 338.803 187.809 338.923 187.695 339.078C187.599 339.283 187.469 339.472 187.304 339.644C187.295 339.932 187.123 340.164 186.79 340.341C186.476 340.568 186.254 340.818 186.126 341.091C184.647 342.647 182.979 343.76 181.124 344.431C180.672 344.595 180.246 344.749 179.845 344.894C179.462 345.089 178.96 345.27 178.34 345.438C177.889 345.601 177.242 345.693 176.399 345.715C176.098 345.823 175.646 345.987 175.044 346.204C174.442 346.422 173.982 346.56 173.663 346.619C173.394 346.659 173.107 346.65 172.802 346.59C172.547 346.512 172.276 346.468 171.989 346.459C171.702 346.449 171.415 346.439 171.128 346.43C170.84 346.42 170.553 346.41 170.266 346.401C169.624 346.349 168.977 346.13 168.326 345.741C167.744 345.385 167.12 345.071 166.455 344.801C165.859 344.563 165.167 344.218 164.379 343.766C163.624 343.245 163.115 342.777 162.851 342.362C162.451 341.882 161.957 341.38 161.371 340.855C160.834 340.312 160.413 339.698 160.109 339.014C159.9 338.75 159.759 338.517 159.687 338.316C159.614 338.116 159.542 337.915 159.469 337.715L158.272 334.404C157.855 333.251 157.509 332.214 157.232 331.293C156.988 330.303 156.928 329.276 157.053 328.21C157.123 327.618 157.149 326.984 157.132 326.31C157.165 325.617 157.342 324.93 157.662 324.247C157.571 323.996 157.59 323.734 157.718 323.461C157.828 323.137 157.981 322.855 158.177 322.614L158.94 320.722C159.401 320.272 159.745 319.892 159.974 319.583C160.184 319.223 160.444 318.845 160.755 318.449C161.366 317.945 161.971 317.499 162.569 317.113C163.148 316.677 163.689 316.368 164.19 316.186C164.938 315.746 165.545 315.385 166.01 315.103C166.507 314.753 167.237 314.574 168.198 314.567C168.668 314.454 169.146 314.366 169.634 314.303C170.154 314.172 170.65 314.134 171.124 314.19C171.562 314.145 171.89 314.111 172.109 314.089C172.327 314.066 172.605 314.051 172.943 314.042C173.48 313.961 174.02 313.965 174.562 314.052C175.155 314.122 175.697 314.209 176.189 314.315L176.77 314.275C176.82 314.257 176.892 314.457 176.987 314.877C177.114 315.228 177.2 315.622 177.245 316.06C177.235 316.347 177.285 316.641 177.394 316.942C177.484 317.192 177.62 317.569 177.802 318.07L178.291 319.424C178.328 319.525 178.298 319.677 178.202 319.882C178.17 319.95 178.129 319.994 178.078 320.012C177.828 320.102 177.593 320.159 177.374 320.181C177.137 320.154 176.893 320.185 176.643 320.276C176.255 320.302 175.784 320.331 175.228 320.362C174.654 320.343 174.191 320.397 173.84 320.524C173.188 320.759 172.561 320.986 171.959 321.204C171.407 321.403 170.858 321.687 170.31 322.055ZM193.948 335.286C193.753 334.902 193.46 334.328 193.069 333.562C192.729 332.777 192.389 331.993 192.048 331.209C191.69 330.374 191.368 329.64 191.082 329.006C190.778 328.322 190.615 327.871 190.592 327.652C190.52 327.451 190.402 327.125 190.238 326.674C190.057 326.172 189.851 325.68 189.619 325.196C189.37 324.663 189.138 324.179 188.925 323.746C188.743 323.244 188.607 322.868 188.517 322.618C188.005 321.045 187.424 319.44 186.776 317.803C186.177 316.148 185.681 314.54 185.287 312.981C185.197 312.731 185.052 312.329 184.852 311.778C184.685 311.158 184.556 310.722 184.465 310.472C184.374 310.221 184.231 309.904 184.036 309.521C183.823 309.087 183.721 308.727 183.73 308.44C183.567 307.989 183.368 307.437 183.132 306.785C182.896 306.133 182.669 305.506 182.452 304.904C182.216 304.252 182.017 303.701 181.853 303.249C181.672 302.748 181.554 302.422 181.5 302.271C181.359 302.039 181.116 301.446 180.772 300.493C180.477 299.522 180.235 298.617 180.045 297.778C180 297.34 179.846 296.914 179.583 296.499C179.351 296.016 179.213 295.555 179.168 295.118C179.047 294.311 178.85 293.531 178.578 292.779C178.306 292.027 178.025 291.249 177.735 290.447C177.354 289.394 176.982 288.365 176.619 287.362C176.307 286.341 175.96 285.304 175.579 284.251L180.921 282.319C181.088 282.939 181.41 283.673 181.887 284.522C182.396 285.302 182.759 285.993 182.977 286.595L187.019 296.362C187.223 297.082 187.461 297.819 187.733 298.571C188.037 299.255 188.325 299.973 188.597 300.726C188.837 301.546 189.111 302.383 189.42 303.235C189.76 304.02 190.084 304.838 190.393 305.691C190.665 306.443 190.962 307.187 191.284 307.921C191.588 308.605 192.001 309.278 192.524 309.939C192.684 309.598 192.879 309.272 193.107 308.963C193.317 308.603 193.564 308.344 193.846 308.185C194.938 306.656 196.412 305.556 198.268 304.885C198.519 304.794 198.852 304.617 199.267 304.354C199.682 304.09 200.14 303.868 200.642 303.686C200.892 303.596 201.152 303.53 201.421 303.49C201.74 303.431 202.196 303.436 202.788 303.506C203.613 303.434 204.449 303.472 205.296 303.62C206.144 303.767 206.964 303.839 207.756 303.836C208.453 304.038 209.041 304.251 209.519 304.475C209.979 304.649 210.388 304.841 210.748 305.051C211.108 305.261 211.467 305.472 211.827 305.682C212.186 305.892 212.605 306.109 213.083 306.333C214.18 307.014 214.999 307.711 215.54 308.422C216.131 309.116 216.599 309.939 216.943 310.892C217.72 312.256 218.344 313.59 218.816 314.894C219.338 316.18 219.861 317.55 220.387 319.005C220.841 320.259 221.26 321.497 221.645 322.718C222.03 323.94 222.302 325.005 222.459 325.912C222.595 326.6 222.688 326.935 222.738 326.917C221.484 327.37 220.239 327.849 219.003 328.352C217.818 328.838 216.543 329.469 215.179 330.246C214.97 329.981 214.818 329.639 214.723 329.22C214.628 328.8 214.535 328.465 214.445 328.214C214.268 327.881 214.123 327.48 214.01 327.011C213.929 326.473 213.779 325.903 213.562 325.301C213.235 324.398 212.856 323.429 212.425 322.394C211.994 321.359 211.625 320.415 211.316 319.563C210.954 318.559 210.566 317.565 210.153 316.58C209.74 315.595 209.191 314.546 208.505 313.433C208.341 312.982 208.094 312.533 207.762 312.086C207.48 311.62 207.249 311.137 207.068 310.635C206.826 310.439 206.61 310.234 206.419 310.019C206.228 309.805 206.014 309.683 205.778 309.656C205.354 309.582 204.86 309.392 204.295 309.086C203.835 308.912 203.127 308.913 202.17 309.089C201.245 309.196 200.551 309.475 200.09 309.926C199.73 310.34 199.369 310.754 199.008 311.168C198.629 311.531 198.36 311.884 198.2 312.226C197.789 312.658 197.501 313.272 197.335 314.069C197.22 314.848 197.298 315.614 197.57 316.366C197.456 319.187 197.943 322.101 199.031 325.111C199.257 326.05 199.524 326.946 199.833 327.798C200.123 328.601 200.413 329.403 200.703 330.206C200.866 330.657 200.979 331.127 201.042 331.614C201.137 332.034 201.266 332.469 201.43 332.921L202.49 335.855C201.237 336.308 200.035 336.828 198.886 337.413C198.17 337.786 197.506 338.224 196.894 338.729C196.68 338.92 196.465 339.111 196.251 339.302C196.087 339.475 195.87 339.581 195.601 339.622C195.31 339.444 195.123 339.086 195.042 338.548C195.012 337.992 194.898 337.522 194.703 337.139C194.508 336.756 194.356 336.414 194.247 336.113C194.189 335.794 194.089 335.518 193.948 335.286ZM245.368 301.55C245.459 301.801 245.424 302.097 245.264 302.438C245.168 302.643 244.978 302.825 244.696 302.984C244.413 303.143 244.146 303.268 243.895 303.359C243.58 303.586 243.172 303.79 242.671 303.972C242.169 304.153 241.743 304.307 241.392 304.434C240.69 304.688 240.172 304.903 239.839 305.081C239.488 305.207 238.929 305.466 238.163 305.857L233.785 307.865L234.112 308.768C234.311 309.32 234.586 309.844 234.936 310.341C235.268 310.789 235.734 311.215 236.335 311.622C236.73 311.933 237.167 312.2 237.645 312.424C238.123 312.648 238.556 312.747 238.944 312.72C239.281 312.712 239.593 312.712 239.88 312.722C240.167 312.732 240.429 312.75 240.666 312.778C240.935 312.738 241.16 312.656 241.343 312.533C242.697 312.044 243.621 311.539 244.114 311.021C244.657 310.484 245.298 309.827 246.038 309.049C246.239 308.977 246.403 308.804 246.531 308.531C246.709 308.239 246.839 308.05 246.922 307.964C247.136 307.773 247.397 307.395 247.703 306.831C248.059 306.248 248.345 305.861 248.559 305.67C248.746 305.716 248.923 306.049 249.091 306.669C249.24 307.239 249.455 307.757 249.737 308.222L250.036 309.049L250.58 310.554C250.438 310.946 250.319 311.244 250.223 311.449C250.159 311.585 250.095 311.722 250.031 311.859C250.017 311.977 249.962 312.139 249.866 312.344C249.77 312.548 249.626 312.856 249.434 313.266C248.858 314.495 248.122 315.441 247.228 316.105C246.785 316.605 246.265 317.049 245.667 317.435C245.052 317.771 244.57 318.087 244.224 318.382C243.991 318.523 243.774 318.63 243.574 318.702C243.391 318.825 243.2 318.923 242.999 318.995L242.397 319.213C241.444 319.557 240.507 319.868 239.586 320.144C238.683 320.471 237.64 320.564 236.455 320.426C236.122 320.603 235.585 320.684 234.842 320.669C234.149 320.636 233.657 320.53 233.366 320.352C232.706 320.25 232.068 320.055 231.453 319.767C230.889 319.461 230.293 319.223 229.664 319.053C228.78 318.805 228.089 318.46 227.588 318.017C227.088 317.574 226.603 317.097 226.135 316.586C225.721 316.225 225.314 315.806 224.914 315.326C224.514 314.847 224.113 314.368 223.713 313.889C223.514 313.337 223.298 312.82 223.067 312.336C222.885 311.835 222.704 311.333 222.523 310.832L221.516 308.048C221.19 307.145 220.975 306.003 220.873 304.623C220.821 303.224 220.907 301.973 221.133 300.871C221.211 300.616 221.314 300.352 221.442 300.078C221.52 299.823 221.623 299.559 221.751 299.286C221.929 298.995 222.098 298.678 222.258 298.337C222.391 298.232 222.514 298.103 222.628 297.948C222.792 297.775 223.014 297.525 223.292 297.197C223.407 297.043 223.519 296.804 223.629 296.48C223.789 296.139 224.051 295.845 224.416 295.6C224.895 295.2 225.349 294.809 225.778 294.427C226.189 293.995 226.52 293.733 226.771 293.643C227.122 293.516 227.758 293.314 228.679 293.038C229.65 292.743 230.571 292.467 231.442 292.209C231.911 292.096 232.315 292.035 232.652 292.027C232.989 292.018 233.233 291.987 233.383 291.932C233.803 291.837 234.147 291.77 234.416 291.729C234.735 291.67 235.063 291.637 235.4 291.628C236.412 291.603 237.182 291.693 237.71 291.899C238.27 292.037 238.764 292.227 239.192 292.469C239.483 292.647 239.768 292.885 240.045 293.181C240.355 293.41 240.655 293.613 240.946 293.791C241.306 294.002 241.686 294.346 242.086 294.825C242.518 295.236 242.875 295.674 243.156 296.14C243.402 296.505 243.667 297.004 243.953 297.638C244.239 298.272 244.473 298.84 244.654 299.341C244.836 299.843 244.947 300.228 244.987 300.497C245.078 300.748 245.205 301.099 245.368 301.55ZM237.32 299.526C237.284 299.426 237.22 299.25 237.13 298.999C237.021 298.699 236.898 298.516 236.762 298.452C236.125 297.945 235.412 297.777 234.623 297.949C233.867 298.053 233.231 298.254 232.715 298.554C232.4 298.781 232.22 298.988 232.174 299.175C232.128 299.362 232.059 299.642 231.968 300.015C231.904 300.152 231.865 300.279 231.851 300.398C231.837 300.516 231.798 300.644 231.734 300.78C231.67 300.917 231.649 301.095 231.671 301.313C231.726 301.464 231.755 301.623 231.759 301.792C231.75 302.079 231.763 302.273 231.799 302.373C231.836 302.473 231.976 302.706 232.222 303.071C232.459 303.099 232.871 303.063 233.459 302.964C234.079 302.796 234.69 302.604 235.292 302.386C235.944 302.15 236.537 301.908 237.07 301.658C237.636 301.34 238.001 301.095 238.165 300.922C238.197 300.854 238.102 300.746 237.879 300.6C237.688 300.386 237.502 300.028 237.32 299.526ZM264.131 288.13C263.565 288.448 263.068 288.798 262.639 289.18C262.21 289.562 261.869 290.11 261.618 290.825C261.169 291.781 260.958 292.765 260.983 293.777C261.059 294.77 261.305 295.844 261.723 296.997L262.403 298.878C262.835 299.289 263.21 299.777 263.528 300.343C263.846 300.909 264.337 301.326 265.002 301.596C265.416 301.957 265.905 302.291 266.47 302.597C267.034 302.903 267.617 303.26 268.217 303.666C268.523 303.726 268.894 303.734 269.331 303.689C269.751 303.594 270.131 303.626 270.473 303.787C271.215 303.802 272.022 303.68 272.893 303.422C273.746 303.114 274.523 302.832 275.225 302.579C275.558 302.401 275.882 302.199 276.197 301.972C276.493 301.695 277.018 301.42 277.77 301.148C277.985 300.957 278.222 300.985 278.481 301.231C278.722 301.428 278.99 301.699 279.286 302.046C279.527 302.242 279.795 302.514 280.091 302.861C280.368 303.157 280.612 303.438 280.821 303.703C280.994 303.867 281.167 304.031 281.339 304.196C281.544 304.292 281.701 304.49 281.81 304.791C281.728 304.878 281.63 304.998 281.515 305.153C281.419 305.358 281.289 305.547 281.125 305.72C281.115 306.007 280.944 306.239 280.611 306.416C280.296 306.643 280.075 306.893 279.947 307.166C278.467 308.722 276.8 309.835 274.944 310.507C274.493 310.67 274.066 310.824 273.665 310.969C273.282 311.164 272.781 311.346 272.161 311.513C271.709 311.676 271.062 311.769 270.219 311.79C269.918 311.899 269.467 312.062 268.865 312.279C268.263 312.497 267.802 312.635 267.483 312.694C267.214 312.734 266.927 312.725 266.622 312.665C266.367 312.587 266.096 312.543 265.809 312.534C265.522 312.524 265.235 312.514 264.948 312.505C264.661 312.495 264.374 312.485 264.087 312.476C263.444 312.425 262.798 312.205 262.147 311.816C261.564 311.46 260.941 311.146 260.276 310.876C259.679 310.638 258.987 310.293 258.2 309.841C257.445 309.32 256.935 308.852 256.671 308.437C256.271 307.958 255.778 307.455 255.191 306.93C254.654 306.387 254.234 305.774 253.93 305.09C253.721 304.825 253.58 304.592 253.507 304.392C253.435 304.191 253.362 303.99 253.29 303.79L252.093 300.479C251.676 299.326 251.329 298.289 251.053 297.368C250.808 296.379 250.749 295.351 250.874 294.285C250.943 293.693 250.969 293.059 250.952 292.385C250.985 291.692 251.162 291.005 251.482 290.322C251.392 290.071 251.41 289.809 251.538 289.536C251.648 289.213 251.802 288.93 251.998 288.689L252.76 286.797C253.221 286.347 253.566 285.967 253.794 285.658C254.004 285.298 254.265 284.92 254.575 284.525C255.187 284.02 255.791 283.574 256.389 283.188C256.968 282.752 257.509 282.443 258.011 282.262C258.759 281.821 259.365 281.46 259.831 281.178C260.328 280.828 261.057 280.649 262.019 280.642C262.488 280.529 262.967 280.441 263.455 280.378C263.974 280.247 264.471 280.209 264.945 280.265C265.382 280.22 265.71 280.186 265.929 280.164C266.148 280.142 266.426 280.126 266.763 280.118C267.301 280.037 267.841 280.04 268.383 280.127C268.975 280.197 269.517 280.284 270.009 280.39L270.59 280.35C270.64 280.332 270.713 280.533 270.808 280.952C270.935 281.303 271.021 281.697 271.065 282.135C271.056 282.422 271.105 282.716 271.214 283.017C271.305 283.268 271.441 283.644 271.622 284.145L272.112 285.499C272.148 285.6 272.118 285.752 272.022 285.957C271.99 286.025 271.949 286.069 271.899 286.087C271.648 286.178 271.413 286.234 271.195 286.256C270.958 286.229 270.714 286.26 270.463 286.351C270.076 286.377 269.604 286.406 269.048 286.437C268.474 286.418 268.011 286.472 267.66 286.599C267.008 286.834 266.381 287.061 265.78 287.279C265.228 287.478 264.678 287.762 264.131 288.13ZM293.443 277.531L294.5 275.277L296.16 271.87C296.334 271.41 296.535 271.025 296.764 270.716C296.992 270.406 297.476 270.175 298.214 270.021C298.716 269.84 299.285 269.69 299.924 269.573C300.562 269.456 301.257 269.261 302.009 268.989C302.11 268.953 302.42 268.869 302.939 268.738C303.491 268.538 303.776 268.464 303.794 268.514C303.885 268.765 303.882 268.992 303.786 269.197L301.802 273.828C301.738 273.964 301.578 274.306 301.322 274.852C301.048 275.348 300.766 275.904 300.478 276.518C300.172 277.083 299.891 277.638 299.635 278.185C299.36 278.681 299.2 279.022 299.154 279.209C298.916 279.805 298.619 280.395 298.263 280.978C297.956 281.542 297.675 282.097 297.419 282.644C297.131 283.258 296.859 283.839 296.602 284.385C296.346 284.931 296.015 285.505 295.608 286.106L294.574 287.245C294.747 287.41 295.184 287.677 295.885 288.047C296.636 288.4 297.412 288.743 298.214 289.077C298.965 289.429 299.664 289.715 300.311 289.935C300.939 290.105 301.331 290.247 301.485 290.361L305.2 292.165L308.731 293.696C309.109 293.956 309.666 294.322 310.404 294.792C311.191 295.245 312.063 295.695 313.019 296.143C313.36 296.304 313.702 296.464 314.043 296.624C314.435 296.766 314.802 296.917 315.143 297.077C315.689 297.333 316.176 297.582 316.604 297.824C317.032 298.067 317.367 298.286 317.608 298.482C317.662 298.633 317.32 298.785 316.582 298.938C316.144 298.983 315.741 299.044 315.372 299.121C315.071 299.23 314.711 299.332 314.291 299.426C313.772 299.558 313.261 299.714 312.759 299.895C312.276 300.127 311.765 300.283 311.227 300.364C310.79 300.409 310.405 300.52 310.072 300.697C309.739 300.874 309.397 301.026 309.046 301.153C308.745 301.262 308.467 301.277 308.212 301.199C308.025 301.153 307.888 301.089 307.802 301.007C307.374 300.765 306.946 300.523 306.518 300.28C306.159 300.07 305.774 299.869 305.364 299.677C304.937 299.435 304.431 299.135 303.849 298.779C303.316 298.404 302.845 298.121 302.435 297.929C301.529 297.462 300.728 297.128 300.031 296.926C299.316 296.675 298.549 296.357 297.73 295.972C297.006 295.383 296.194 294.94 295.292 294.642C294.441 294.326 293.528 293.919 292.553 293.42C292.694 293.653 292.794 293.929 292.853 294.248C292.943 294.499 293.034 294.749 293.125 295C293.197 295.201 293.324 295.552 293.506 296.054C293.737 296.537 293.962 297.08 294.179 297.681C294.429 298.215 294.654 298.758 294.853 299.309C295.085 299.793 295.212 300.144 295.234 300.363C295.397 300.814 295.562 301.35 295.73 301.97C295.966 302.622 296.077 303.007 296.063 303.125C295.999 303.262 295.782 303.369 295.413 303.445C295.094 303.504 294.809 303.579 294.558 303.669C293.906 303.905 293.229 304.15 292.527 304.404C291.875 304.64 291.3 304.933 290.803 305.283C290.588 305.474 290.347 305.589 290.078 305.63C289.827 305.72 289.576 305.811 289.325 305.902C289.253 305.701 289.065 305.259 288.761 304.575C288.507 303.873 288.219 303.155 287.896 302.42C287.606 301.618 287.343 300.891 287.107 300.239C286.854 299.536 286.715 299.076 286.693 298.857L284.536 293.597C284.391 293.196 284.17 292.822 283.875 292.475C283.611 292.06 283.432 291.643 283.337 291.223C283.083 290.521 282.854 289.81 282.651 289.09C282.497 288.351 282.268 287.64 281.964 286.956C281.66 286.272 281.406 285.57 281.203 284.849C280.981 284.079 280.768 283.334 280.564 282.613L279.503 279.679C279.231 278.927 278.943 278.209 278.639 277.525C278.385 276.822 278.097 276.104 277.775 275.37C277.348 274.504 277.022 273.601 276.796 272.662C276.551 271.673 276.282 270.692 275.988 269.721L275.24 267.184L273.309 261.843C273.164 261.441 272.985 261.024 272.771 260.591C272.54 260.108 272.358 259.606 272.227 259.086L271.737 257.732C271.647 257.481 271.665 257.219 271.793 256.946C271.903 256.623 272.059 256.425 272.259 256.352C273.012 256.08 273.639 255.854 274.14 255.672C274.624 255.441 275.216 255.198 275.919 254.944C276.219 254.835 276.461 254.72 276.644 254.597C276.903 254.843 277.087 255.117 277.196 255.418C277.454 256.289 277.789 257.217 278.202 258.202C278.665 259.169 279.051 260.078 279.359 260.931L280.272 262.983L280.952 264.864C281.06 265.165 281.199 265.625 281.366 266.245C281.566 266.797 281.783 267.399 282.019 268.051C282.255 268.703 282.481 269.33 282.699 269.932C282.898 270.483 283.069 270.875 283.209 271.108C283.445 271.76 283.681 272.412 283.917 273.064C284.185 273.648 284.461 274.257 284.747 274.891C284.838 275.141 284.983 275.543 285.183 276.094C285.432 276.628 285.675 277.221 285.911 277.873C286.128 278.475 286.337 279.051 286.536 279.603C286.736 280.155 286.881 280.556 286.972 280.807L288.518 283.906L288.871 284.884C289.392 284.128 289.831 283.459 290.187 282.877C290.525 282.244 290.898 281.627 291.305 281.026L293.443 277.531ZM334.083 261.645C334.223 261.878 334.305 262.103 334.327 262.322C334.332 262.491 334.413 262.716 334.572 262.999C334.609 263.1 334.636 263.175 334.654 263.225C334.672 263.275 334.649 263.368 334.585 263.505C334.503 263.591 334.437 263.644 334.387 263.662C334.318 263.63 334.234 263.632 334.134 263.668C333.6 263.918 333.073 264.108 332.554 264.24C332.285 264.28 332.034 264.371 331.801 264.512C331.601 264.584 331.375 264.666 331.124 264.756L327.438 266.089C327.137 266.198 326.836 266.307 326.535 266.416C326.216 266.474 325.906 266.558 325.605 266.667C325.254 266.794 324.937 266.937 324.654 267.096C324.353 267.205 324.027 267.323 323.676 267.45L319.388 269C319.288 269.036 319.112 269.1 318.861 269.191C318.643 269.213 318.408 269.27 318.157 269.36L317.254 269.687C317.154 269.723 317.029 269.768 316.878 269.823C316.76 269.809 316.575 269.847 316.324 269.938C315.923 270.083 315.531 270.253 315.148 270.448C314.797 270.575 314.395 270.72 313.944 270.884C313.844 270.92 313.702 270.999 313.52 271.122C313.319 271.195 313.126 271.208 312.939 271.162C312.816 270.98 312.718 270.788 312.646 270.587C312.624 270.369 312.576 270.159 312.504 269.958C312.395 269.657 312.27 269.391 312.129 269.158C312.02 268.857 311.911 268.556 311.803 268.255C311.658 267.854 311.522 267.478 311.395 267.127C311.3 266.707 311.18 266.297 311.035 265.896C311.4 265.65 311.783 265.455 312.184 265.31C312.567 265.115 312.934 264.954 313.285 264.827L315.015 264.201C315.266 264.11 315.451 264.072 315.569 264.086C315.72 264.031 315.929 263.984 316.198 263.943C316.736 263.862 317.222 263.715 317.655 263.502C318.138 263.27 318.631 263.064 319.132 262.883C319.798 262.528 320.501 262.274 321.239 262.121C321.959 261.917 322.62 261.706 323.222 261.489L326.006 260.482C326.758 260.21 327.469 259.981 328.14 259.796C328.842 259.542 329.494 259.306 330.096 259.088C330.497 258.943 330.823 258.825 331.074 258.735C331.356 258.576 331.632 258.476 331.901 258.436C332.252 258.309 332.546 258.259 332.783 258.287C332.924 258.519 332.997 258.72 333.001 258.889C333.037 258.989 333.073 259.089 333.11 259.19C333.568 259.988 333.893 260.806 334.083 261.645ZM343.338 251.578C343.653 251.351 344.024 251.046 344.453 250.664C344.882 250.282 345.348 250 345.849 249.819C346.501 249.583 347.103 249.366 347.655 249.166C348.188 248.917 348.781 248.674 349.433 248.438C349.935 248.257 350.42 248.11 350.89 247.996C351.391 247.815 351.87 247.727 352.326 247.733C352.426 247.696 352.56 247.676 352.729 247.672C352.898 247.667 353.153 247.745 353.494 247.905C354.05 247.875 354.617 247.953 355.196 248.141C355.774 248.329 356.329 248.61 356.862 248.985C357.444 249.341 357.986 249.741 358.486 250.184C359.019 250.558 359.501 250.951 359.933 251.362C360.329 251.672 360.67 252.145 360.956 252.779C361.292 253.394 361.608 253.876 361.903 254.222C362.157 254.925 362.427 255.593 362.713 256.226C363.049 256.842 363.344 257.501 363.598 258.203C364.015 259.357 364.389 260.469 364.72 261.541C365.05 262.612 365.424 263.725 365.841 264.878L366.589 267.415C366.661 267.616 366.688 268.003 366.669 268.577C366.649 269.152 366.66 269.573 366.7 269.842C366.731 270.398 366.748 271.072 366.752 271.865C366.737 272.608 366.697 273.047 366.633 273.184C366.473 273.526 366.379 273.815 366.351 274.052C366.323 274.288 366.296 274.525 366.268 274.762C366.29 274.981 366.253 275.193 366.157 275.398C366.111 275.584 365.965 275.807 365.719 276.067C365.504 276.258 365.258 276.517 364.979 276.845C364.719 277.222 364.474 277.566 364.246 277.875C364.031 278.066 363.933 278.187 363.951 278.237C363.988 278.337 363.848 278.501 363.534 278.728L362.288 279.519C361.723 279.837 361.23 280.043 360.811 280.138C360.442 280.215 360.031 280.335 359.58 280.498C358.175 281.006 356.671 281.238 355.068 281.194C354.616 281.357 354.128 281.42 353.605 281.383C353.131 281.327 352.748 281.21 352.457 281.032C352.134 280.922 351.801 280.787 351.46 280.627C351.136 280.517 350.804 280.382 350.463 280.222C349.898 279.916 349.409 279.582 348.995 279.222C348.581 278.861 348.158 278.475 347.726 278.064C347.275 277.603 346.8 277.151 346.3 276.708C345.781 276.215 345.345 275.636 344.991 274.97C344.473 273.853 343.992 272.836 343.547 271.919C343.152 270.984 342.783 270.04 342.438 269.087L341.323 266.003C341.236 265.921 341.139 265.729 341.03 265.428C340.921 265.127 340.874 264.917 340.887 264.799C340.797 264.548 340.706 264.297 340.615 264.047C340.557 263.728 340.507 263.434 340.467 263.165C340.372 262.745 340.252 262.335 340.107 261.934C339.962 261.533 339.942 261.086 340.048 260.594C340.034 260.713 340.032 260.628 340.041 260.341C340.083 259.986 340.124 259.63 340.166 259.275C340.19 258.87 340.206 258.523 340.216 258.236C340.225 257.949 340.239 257.831 340.257 257.881L340.43 256.713C340.527 256.508 340.613 256.278 340.691 256.023C340.769 255.768 340.888 255.469 341.048 255.128C341.259 254.768 341.517 254.306 341.823 253.742C342.18 253.159 342.685 252.438 343.338 251.578ZM353.346 262.081C353.145 262.153 352.981 262.326 352.852 262.599C352.775 262.854 352.738 263.066 352.742 263.235C352.663 264.114 352.714 264.804 352.895 265.306C353.385 266.66 354.188 267.391 355.304 267.497C355.555 267.407 355.728 267.259 355.824 267.054C355.952 266.781 355.98 266.544 355.908 266.343C355.726 265.842 355.568 265.247 355.432 264.559C355.347 263.852 355.052 263.193 354.548 262.582C354.206 262.422 353.983 262.276 353.879 262.143C353.774 262.011 353.596 261.99 353.346 262.081ZM382.67 269.257C381.759 269.246 380.743 269.103 379.622 268.827C378.484 268.502 377.66 268.261 377.15 268.105C376.808 267.945 376.51 267.826 376.255 267.748C376.05 267.652 375.877 267.488 375.736 267.255C375.113 266.63 374.476 266.123 373.825 265.734C373.224 265.328 372.722 264.801 372.318 264.153C371.913 263.505 371.509 262.857 371.104 262.21C370.732 261.494 370.378 260.828 370.042 260.212C369.788 259.51 369.527 258.867 369.259 258.283C368.992 257.699 368.731 257.056 368.477 256.354C368.205 255.602 367.985 254.916 367.818 254.296C367.7 253.658 367.506 252.962 367.233 252.21C367.052 251.708 366.846 251.216 366.614 250.733C366.415 250.181 366.224 249.654 366.043 249.153L365.662 248.099C365.499 247.648 365.361 247.188 365.248 246.718C365.167 246.18 365.035 245.66 364.854 245.159C365.438 244.891 366.165 244.628 367.036 244.37C367.939 244.044 368.616 243.799 369.067 243.636C369.236 243.631 369.562 243.513 370.045 243.282C370.579 243.032 370.946 242.871 371.146 242.799C371.397 242.708 371.924 242.517 372.726 242.227C373.579 241.919 374.14 241.745 374.409 241.704C374.449 241.973 374.481 242.217 374.503 242.436C374.525 242.654 374.573 242.864 374.645 243.065C374.718 243.265 374.772 243.416 374.809 243.516C375.062 244.218 375.264 244.854 375.413 245.424C375.563 245.994 375.746 246.58 375.964 247.182C376.073 247.483 376.29 248.084 376.617 248.987C376.975 249.822 377.361 250.731 377.774 251.716C378.187 252.701 378.581 253.636 378.958 254.521C379.367 255.337 379.65 255.887 379.809 256.17C379.991 256.671 380.145 257.097 380.272 257.449C380.431 257.731 380.626 258.114 380.858 258.598C381.107 259.131 381.405 259.563 381.751 259.891C382.128 260.152 382.385 260.314 382.522 260.378L383.409 261.418L384.952 262.392C385.466 262.716 386.042 262.82 386.68 262.702C387.3 262.535 387.877 262.326 388.411 262.077L390.087 261.301C390.47 261.105 390.83 260.691 391.169 260.059C391.489 259.376 391.804 258.836 392.115 258.44C392.275 258.099 392.349 257.675 392.336 257.17C392.355 256.595 392.349 256.03 392.318 255.475C392.3 255.424 392.269 255.181 392.224 254.743C392.179 254.305 392.125 253.843 392.062 253.355C392.032 252.799 391.969 252.312 391.874 251.892C391.811 251.405 391.77 251.136 391.752 251.085C391.657 250.666 391.544 250.197 391.413 249.677C391.282 249.157 391.119 248.706 390.923 248.323C390.66 247.908 390.478 247.406 390.379 246.818C390.28 246.23 390.14 245.685 389.958 245.184C389.813 244.783 389.675 244.322 389.544 243.802C389.413 243.283 389.327 242.888 389.286 242.619C389.305 242.67 389.268 242.569 389.178 242.319C389.137 242.05 389.062 241.765 388.954 241.464C388.845 241.163 388.745 240.887 388.654 240.636C388.546 240.335 388.482 240.16 388.464 240.11C388.305 239.827 388.13 239.578 387.939 239.364C387.78 239.081 387.646 238.789 387.537 238.488C387.483 238.338 387.454 238.178 387.449 238.009C387.445 237.841 387.416 237.681 387.361 237.531L388.941 236.96C389.142 236.887 389.326 236.849 389.495 236.844C389.714 236.822 389.873 236.793 389.974 236.756C390.475 236.575 390.911 236.446 391.28 236.369C391.631 236.242 391.923 236.108 392.155 235.967C392.37 235.776 392.561 235.679 392.73 235.675C392.881 235.62 393.072 235.523 393.305 235.382C393.742 235.337 394.077 235.244 394.31 235.103C394.575 234.894 394.942 234.733 395.411 234.62C395.552 234.853 395.654 235.213 395.717 235.701C395.83 236.17 395.968 236.631 396.131 237.082C396.476 238.035 396.83 239.013 397.192 240.016C397.587 240.951 397.941 241.929 398.253 242.95C398.403 243.52 398.568 244.056 398.749 244.557C398.981 245.041 399.137 245.551 399.218 246.089C399.254 246.189 399.327 246.39 399.436 246.691C399.526 246.942 399.626 247.218 399.735 247.518C399.844 247.819 399.953 248.12 400.061 248.421C400.152 248.672 400.206 248.822 400.225 248.873C400.524 249.388 400.819 250.047 401.11 250.849C401.4 251.652 401.683 252.514 401.959 253.435C402.217 254.305 402.466 255.151 402.707 255.972C402.997 256.774 403.242 257.451 403.441 258.003C403.713 258.755 404.01 259.499 404.332 260.233C404.636 260.917 404.924 261.635 405.196 262.387C404.083 263.073 402.941 263.6 401.769 263.967C400.666 264.366 399.531 264.833 398.363 265.369C398.14 265.222 397.947 264.924 397.784 264.472C397.693 264.221 397.586 264.005 397.464 263.822C397.391 263.622 397.284 263.405 397.144 263.172C397.039 263.04 396.923 262.798 396.796 262.447C396.742 262.297 396.671 262.181 396.585 262.098C396.485 262.135 396.38 262.314 396.27 262.638C396.16 262.961 395.998 263.218 395.783 263.409C395.372 263.841 394.952 264.248 394.523 264.63C394.162 265.044 393.749 265.392 393.284 265.674C392.444 266.488 391.432 267.138 390.246 267.623C389.079 268.159 387.843 268.662 386.539 269.134C385.786 269.406 385.089 269.516 384.447 269.465C383.854 269.396 383.262 269.326 382.67 269.257ZM424.375 251.029C424.575 251.581 424.758 252.166 424.926 252.786C425.143 253.388 425.377 253.956 425.626 254.49C425.735 254.79 425.889 255.217 426.089 255.769C426.307 256.37 426.445 256.831 426.503 257.15C426.626 257.332 426.639 257.526 426.543 257.731C426.465 257.986 426.394 258.182 426.33 258.318L424.374 259.026C424.124 259.116 423.814 259.2 423.444 259.277C423.143 259.386 422.868 259.485 422.617 259.576C422.452 259.749 422.195 259.899 421.844 260.026C421.493 260.153 421.116 260.289 420.715 260.434C420.364 260.561 420.004 260.663 419.635 260.739C419.334 260.848 419.158 260.912 419.108 260.93C418.767 260.77 418.553 260.649 418.466 260.566C418.448 260.516 418.394 260.366 418.303 260.115L415.691 252.893L413.936 248.508L412.264 243.413L410.611 239.077L409.004 235.575C408.402 235.792 407.684 236.08 406.849 236.439C406.015 236.797 405.354 237.008 404.866 237.071C403.959 237.229 403.273 237.449 402.808 237.73C402.374 237.944 401.807 238.177 401.105 238.431L399.364 233.616L399.815 233.453C400.066 233.362 400.266 233.29 400.417 233.235C400.599 233.113 400.75 233.058 400.868 233.072C401.192 233.182 401.57 233.13 402.003 232.917C402.468 232.635 402.658 232.453 402.571 232.371C403.105 232.122 403.422 231.979 403.522 231.942C403.673 231.888 403.974 231.779 404.425 231.616C404.826 231.471 405.412 231.287 406.183 231.066C406.985 230.775 407.503 230.56 407.735 230.419C407.735 230.419 407.681 230.269 407.572 229.968C407.463 229.667 407.336 229.316 407.191 228.914C407.046 228.513 406.892 228.087 406.729 227.635C406.565 227.184 406.438 226.833 406.348 226.582C406.104 225.593 405.845 224.722 405.573 223.97C405.333 223.149 405.057 222.228 404.744 221.207C404.541 220.487 404.321 219.801 404.085 219.149C403.849 218.497 403.605 217.819 403.351 217.117C403.097 216.415 402.814 215.553 402.501 214.532C402.22 213.443 401.91 212.506 401.57 211.721C401.479 211.471 401.374 211.338 401.256 211.324C401.17 211.242 401.081 211.076 400.99 210.825C400.9 210.574 400.861 210.39 400.875 210.271C400.871 210.102 400.994 209.973 401.245 209.882C401.696 209.719 402.182 209.572 402.702 209.441C403.221 209.309 403.707 209.162 404.158 208.999C404.911 208.727 405.588 208.482 406.19 208.264C406.842 208.029 407.377 207.863 407.797 207.768C408.585 207.597 409.198 207.488 409.636 207.444C409.636 207.444 409.681 207.569 409.772 207.82C409.844 208.02 409.944 208.296 410.071 208.647C410.18 208.948 410.273 209.283 410.349 209.653C410.476 210.004 410.594 210.33 410.703 210.631C411.106 211.903 411.48 213.015 411.825 213.968C412.151 214.871 412.566 215.94 413.07 217.176C413.269 217.728 413.453 218.313 413.62 218.933C413.838 219.535 414.072 220.103 414.321 220.637C414.376 220.787 414.468 221.122 414.6 221.642C414.781 222.143 414.955 222.704 415.123 223.324C415.272 223.894 415.412 224.439 415.544 224.958C415.675 225.478 415.768 225.813 415.822 225.964C415.913 226.214 416.045 226.422 416.217 226.586C416.39 226.751 416.527 226.815 416.627 226.778C416.878 226.688 417.222 226.62 417.66 226.575C418.079 226.48 418.414 226.387 418.665 226.297C418.916 226.206 419.184 226.166 419.472 226.175C419.791 226.117 420.201 225.997 420.702 225.815C421.154 225.652 421.614 225.514 422.084 225.401C422.585 225.219 423.112 225.029 423.664 224.829C423.764 224.793 423.873 224.782 423.992 224.796C424.092 224.76 424.192 224.723 424.293 224.687L424.594 224.578C425.117 225.24 425.55 226.047 425.895 227C426.239 227.953 426.377 228.726 426.308 229.318L425.856 229.481C424.889 229.944 423.948 230.398 423.031 230.843C422.096 231.238 421.127 231.616 420.124 231.979C419.873 232.07 419.581 232.204 419.248 232.381C418.897 232.508 418.596 232.617 418.346 232.707C418.382 232.808 418.402 232.942 418.406 233.111C418.443 233.211 418.479 233.311 418.515 233.412L418.624 233.713L418.869 234.39C419.032 234.841 419.186 235.267 419.331 235.669C419.508 236.002 419.644 236.378 419.739 236.797L421.332 240.73L422.255 244.224C422.346 244.475 422.484 244.936 422.669 245.606C422.887 246.208 423.107 246.894 423.329 247.664C423.582 248.366 423.802 249.053 423.988 249.723C424.155 250.343 424.284 250.778 424.375 251.029Z" fill="black"/>
</g>
</svg>
