<svg width="139" height="147" viewBox="0 0 139 147" fill="none" xmlns="http://www.w3.org/2000/svg">
<rect x="69.1831" y="2.70698" width="99" height="95.0784" transform="rotate(46.0717 69.1831 2.70698)" stroke="black"/>
<path d="M34.3 71V69.8L37.96 69.26C38.72 69.14 39.2 68.86 39.4 68.42C39.64 67.98 39.78 67.24 39.82 66.2L41.86 32.18C41.94 31.14 41.84 30.44 41.56 30.08C41.32 29.72 40.8 29.48 40 29.36L36.16 28.82V27.62H49L60.82 59.42L60.94 59.3L72.64 27.62H85.12V28.82L81.34 29.36C80.78 29.44 80.32 29.64 79.96 29.96C79.64 30.28 79.5 31.1 79.54 32.42L81.64 66.5C81.68 67.5 81.82 68.2 82.06 68.6C82.3 68.96 82.8 69.2 83.56 69.32L87.1 69.86V71H70.12V69.8L73.84 69.26C74.6 69.14 75.12 68.88 75.4 68.48C75.68 68.08 75.78 67.32 75.7 66.2L73.66 30.68L73.6 30.62L61.12 64.22H56.92L44.02 30.56L43.96 30.68L41.86 66.5C41.82 67.42 41.9 68.1 42.1 68.54C42.34 68.94 42.9 69.2 43.78 69.32L47.38 69.86V71H34.3Z" fill="black"/>
<path d="M60.76 129V127.8L63.64 127.38C64.28 127.3 64.7 127.06 64.9 126.66C65.1 126.26 65.2 125.54 65.2 124.5V103.68C65.2 102.28 65.08 101.32 64.84 100.8C64.6 100.28 64.04 100 63.16 99.96L60.16 99.66L60.28 98.52L70 97.98L70.36 98.28L70.54 104.1H70.6C71.56 101.98 72.8 100.34 74.32 99.18C75.84 98.02 77.48 97.44 79.24 97.44C81.12 97.44 82.62 97.92 83.74 98.88C84.86 99.84 85.42 101.08 85.42 102.6C85.42 103.44 85.26 104.18 84.94 104.82C84.66 105.46 84.22 105.96 83.62 106.32C83.06 106.68 82.34 106.86 81.46 106.86C80.3 106.86 79.42 106.6 78.82 106.08C78.26 105.56 77.98 104.96 77.98 104.28C77.98 103.92 78.06 103.54 78.22 103.14C78.38 102.74 78.6 102.3 78.88 101.82C79.16 101.3 79.52 100.74 79.96 100.14C78.92 99.78 77.86 99.76 76.78 100.08C75.7 100.36 74.7 100.92 73.78 101.76C72.9 102.56 72.18 103.56 71.62 104.76C71.06 105.96 70.78 107.3 70.78 108.78V124.62C70.78 125.58 70.86 126.24 71.02 126.6C71.22 126.92 71.64 127.12 72.28 127.2L77.44 127.86V129H60.76Z" fill="black"/>
<path d="M85.5 104.84C81.58 104.84 78.16 103.96 75.24 102.2C72.32 100.4 70.06 97.88 68.46 94.64C66.9 91.4 66.12 87.56 66.12 83.12C66.12 78.28 66.92 74.12 68.52 70.64C70.12 67.12 72.4 64.44 75.36 62.6C78.36 60.72 81.92 59.78 86.04 59.78C89.92 59.78 93.28 60.66 96.12 62.42C98.96 64.14 101.16 66.6 102.72 69.8C104.28 73 105.06 76.8 105.06 81.2C105.06 84.8 104.6 88.06 103.68 90.98C102.76 93.9 101.44 96.4 99.72 98.48C98 100.52 95.94 102.1 93.54 103.22C91.14 104.3 88.46 104.84 85.5 104.84ZM86.28 103.16C88.36 103.16 90.16 102.76 91.68 101.96C93.24 101.16 94.52 99.94 95.52 98.3C96.52 96.66 97.26 94.54 97.74 91.94C98.26 89.3 98.52 86.16 98.52 82.52C98.52 78.92 98.22 75.78 97.62 73.1C97.02 70.42 96.16 68.22 95.04 66.5C93.92 64.74 92.52 63.44 90.84 62.6C89.2 61.72 87.3 61.28 85.14 61.28C83.06 61.28 81.24 61.68 79.68 62.48C78.12 63.24 76.8 64.46 75.72 66.14C74.64 67.82 73.82 69.96 73.26 72.56C72.74 75.12 72.48 78.18 72.48 81.74C72.48 85.3 72.8 88.42 73.44 91.1C74.08 93.74 74.98 95.98 76.14 97.82C77.34 99.62 78.78 100.96 80.46 101.84C82.18 102.72 84.12 103.16 86.28 103.16Z" fill="black"/>
</svg>
