<svg width="1280" height="675" viewBox="0 0 1280 675" fill="none" xmlns="http://www.w3.org/2000/svg">
<g clip-path="url(#clip0_115_21)">
<rect width="1280" height="675" fill="white"/>
<rect y="655" width="1280" height="20" fill="black"/>
<circle cx="287" cy="655" r="217" fill="black"/>
<circle cx="286.5" cy="413.5" r="89.5" fill="black"/>
<circle cx="375.5" cy="317.5" r="8.5" fill="white" stroke="black" stroke-width="2"/>
<circle cx="399" cy="294" r="13" fill="white" stroke="black" stroke-width="2"/>
<circle cx="432" cy="261" r="18" fill="white" stroke="black" stroke-width="2"/>
<path d="M735.397 202.446L734.747 202.689V203.383C734.747 214.334 729.103 223.345 719.492 230.748C709.861 238.166 696.316 243.906 680.741 248.255C649.601 256.949 610.652 260 579.543 260C548.454 260 504.248 254.911 473.638 242.246C458.31 235.904 446.597 227.746 441.506 217.57C436.477 207.517 437.778 195.192 449.207 180.097L449.773 179.35L449.064 178.737C442.034 172.658 437.913 166.893 436.104 161.491C434.305 156.119 434.766 151.034 437.042 146.215C441.639 136.481 453.672 127.778 469.692 120.503C501.65 105.991 548.511 97.5809 579.543 97.5809H579.729L579.902 97.5146C652.883 69.5234 719.268 85.8368 753.551 114.128C770.709 128.286 779.683 145.306 777.738 161.179C775.798 177.006 762.939 192.149 735.397 202.446Z" fill="white" stroke="black" stroke-width="2"/>
<path d="M496.7 226.532C494.1 226.532 492.1 225.732 490.7 224.132C489.3 222.332 488.6 219.932 488.6 216.932C488.6 209.932 489.4 203.432 491 197.432C492.8 191.232 495.5 184.932 499.1 178.532C502.9 172.132 508 165.232 514.4 157.832C519.4 151.832 523.4 146.532 526.4 141.932C529.4 137.332 531.5 132.932 532.7 128.732C534.1 124.332 534.8 119.932 534.8 115.532C534.8 107.132 531.8 100.532 525.8 95.7321C519.8 90.7321 511.5 88.2321 500.9 88.2321C491.7 88.2321 483.2 89.6321 475.4 92.4321C467.8 95.0321 460.4 99.0321 453.2 104.432C450.2 106.432 447.4 107.432 444.8 107.432C442.4 107.432 440.4 106.732 438.8 105.332C437.2 103.932 436.1 102.132 435.5 99.9321C435.1 97.7321 435.4 95.4321 436.4 93.0321C437.6 90.6321 439.6 88.4321 442.4 86.4321C450.2 80.2321 459.4 75.3321 470 71.7321C480.6 68.1321 491.3 66.3321 502.1 66.3321C513.5 66.3321 523.5 68.3321 532.1 72.3321C540.9 76.1321 547.7 81.6321 552.5 88.8321C557.3 95.8321 559.7 104.132 559.7 113.732C559.7 119.932 558.8 125.932 557 131.732C555.2 137.332 552.3 143.032 548.3 148.832C544.5 154.632 539.1 161.232 532.1 168.632C525.9 175.032 520.9 181.032 517.1 186.632C513.3 192.032 510.4 197.332 508.4 202.532C506.6 207.532 505.4 212.832 504.8 218.432C504.6 220.832 503.8 222.832 502.4 224.432C501 225.832 499.1 226.532 496.7 226.532ZM496.4 281.732C491.4 281.732 487.3 280.232 484.1 277.232C481.1 274.032 479.6 270.032 479.6 265.232C479.6 260.432 481.1 256.532 484.1 253.532C487.3 250.332 491.4 248.732 496.4 248.732C501.4 248.732 505.3 250.332 508.1 253.532C511.1 256.532 512.6 260.432 512.6 265.232C512.6 270.032 511.1 274.032 508.1 277.232C505.3 280.232 501.4 281.732 496.4 281.732Z" fill="black"/>
<path d="M579.012 189.57C576.468 189.036 574.675 187.842 573.633 185.988C572.633 183.939 572.441 181.446 573.057 178.51C574.495 171.66 576.613 165.463 579.411 159.919C582.447 154.221 586.383 148.61 591.221 143.086C596.255 137.603 602.663 131.898 610.447 125.97C616.573 121.126 621.576 116.76 625.457 112.875C629.338 108.989 632.297 105.114 634.334 101.25C636.608 97.2316 638.197 93.0692 639.101 88.763C640.826 80.5422 639.246 73.4667 634.36 67.5365C629.515 61.4107 621.906 57.259 611.532 55.0816C602.528 53.1918 593.922 52.8159 585.713 53.9539C577.741 54.9373 569.677 57.332 561.521 61.1378C558.174 62.4789 555.229 62.8824 552.684 62.3483C550.335 61.8553 548.522 60.7594 547.243 59.0606C545.965 57.3618 545.258 55.3742 545.123 53.0979C545.183 50.8627 545.949 48.6733 547.421 46.5299C549.089 44.4276 551.498 42.6854 554.649 41.3032C563.556 36.8376 573.567 33.9319 584.68 32.5861C595.793 31.2403 606.635 31.6766 617.205 33.8951C628.362 36.2369 637.737 40.2484 645.332 45.9297C653.164 51.4563 658.689 58.2358 661.908 66.2683C665.168 74.105 665.812 82.721 663.84 92.1163C662.566 98.184 660.453 103.871 657.5 109.178C654.588 114.289 650.579 119.271 645.473 124.126C640.562 129.022 633.922 134.372 625.551 140.176C618.168 145.166 612.043 150.011 607.173 154.711C602.345 159.215 598.418 163.806 595.393 168.485C592.604 173.008 590.341 177.949 588.603 183.306C587.915 185.614 586.721 187.407 585.022 188.685C583.364 189.768 581.361 190.063 579.012 189.57ZM567.38 243.531C562.486 242.504 558.782 240.194 556.266 236.6C553.988 232.852 553.341 228.629 554.327 223.932C555.313 219.234 557.582 215.725 561.135 213.406C564.924 210.931 569.265 210.207 574.158 211.235C579.052 212.262 582.54 214.629 584.623 218.336C586.943 221.888 587.61 226.013 586.624 230.71C585.638 235.408 583.348 239.015 579.755 241.53C576.398 243.891 572.273 244.558 567.38 243.531Z" fill="black"/>
<path d="M655.353 297.719C652.809 297.185 651.016 295.991 649.974 294.138C648.974 292.088 648.782 289.596 649.398 286.66C650.836 279.809 652.954 273.612 655.752 268.069C658.788 262.371 662.724 256.76 667.562 251.236C672.596 245.753 679.004 240.047 686.788 234.12C692.914 229.275 697.917 224.91 701.798 221.024C705.679 217.138 708.638 213.264 710.675 209.4C712.949 205.381 714.538 201.219 715.442 196.912C717.167 188.692 715.587 181.616 710.701 175.686C705.856 169.56 698.247 165.408 687.873 163.231C678.869 161.341 670.263 160.965 662.054 162.103C654.082 163.087 646.018 165.481 637.862 169.287C634.515 170.628 631.57 171.032 629.025 170.498C626.676 170.005 624.863 168.909 623.584 167.21C622.306 165.511 621.599 163.524 621.464 161.247C621.524 159.012 622.291 156.823 623.762 154.679C625.43 152.577 627.839 150.835 630.99 149.453C639.897 144.987 649.908 142.081 661.021 140.736C672.134 139.39 682.976 139.826 693.546 142.045C704.703 144.386 714.079 148.398 721.673 154.079C729.505 159.606 735.03 166.385 738.249 174.418C741.509 182.254 742.153 190.87 740.181 200.266C738.907 206.333 736.794 212.021 733.841 217.327C730.929 222.438 726.92 227.421 721.814 232.275C716.903 237.171 710.263 242.521 701.892 248.325C694.51 253.315 688.384 258.16 683.514 262.86C678.686 267.365 674.759 271.956 671.734 276.634C668.945 281.158 666.682 286.098 664.944 291.456C664.256 293.763 663.062 295.556 661.363 296.835C659.705 297.917 657.702 298.212 655.353 297.719ZM643.721 351.68C638.827 350.653 635.123 348.343 632.607 344.75C630.329 341.002 629.682 336.779 630.668 332.081C631.654 327.383 633.923 323.875 637.476 321.555C641.265 319.081 645.606 318.357 650.499 319.384C655.393 320.411 658.881 322.778 660.964 326.485C663.284 330.037 663.951 334.162 662.965 338.86C661.979 343.557 659.689 347.164 656.096 349.68C652.739 352.04 648.614 352.707 643.721 351.68Z" fill="black"/>
<path d="M763.503 212.29C760.958 211.756 759.165 210.562 758.124 208.709C757.123 206.66 756.931 204.167 757.547 201.231C758.985 194.38 761.103 188.183 763.902 182.64C766.937 176.942 770.874 171.331 775.711 165.807C780.745 160.324 787.154 154.618 794.937 148.691C801.063 143.846 806.067 139.481 809.948 135.595C813.828 131.709 816.788 127.835 818.825 123.971C821.099 119.952 822.688 115.79 823.591 111.483C825.317 103.263 823.737 96.1871 818.851 90.257C814.006 84.1311 806.396 79.9795 796.022 77.8021C787.018 75.9122 778.412 75.5363 770.203 76.6744C762.231 77.6578 754.167 80.0524 746.012 83.8583C742.665 85.1994 739.719 85.6029 737.175 85.0688C734.826 84.5758 733.012 83.4799 731.734 81.7811C730.456 80.0823 729.749 78.0947 729.613 75.8184C729.674 73.5831 730.44 71.3938 731.912 69.2504C733.579 67.1481 735.988 65.4058 739.139 64.0236C748.047 59.5581 758.057 56.6524 769.17 55.3066C780.284 53.9608 791.125 54.3971 801.695 56.6156C812.852 58.9573 822.228 62.9688 829.823 68.6501C837.655 74.1767 843.18 80.9563 846.399 88.9887C849.658 96.8254 850.302 105.441 848.33 114.837C847.057 120.905 844.943 126.592 841.99 131.898C839.078 137.009 835.069 141.992 829.963 146.846C825.053 151.742 818.412 157.092 810.041 162.896C802.659 167.886 796.533 172.731 791.664 177.431C786.836 181.936 782.909 186.527 779.883 191.205C777.094 195.729 774.831 200.669 773.094 206.027C772.405 208.334 771.211 210.127 769.513 211.406C767.855 212.488 765.852 212.783 763.503 212.29ZM751.87 266.251C746.977 265.224 743.272 262.914 740.757 259.321C738.478 255.573 737.832 251.35 738.818 246.652C739.804 241.955 742.073 238.446 745.625 236.126C749.414 233.652 753.755 232.928 758.649 233.955C763.542 234.982 767.03 237.349 769.113 241.056C771.433 244.608 772.1 248.733 771.114 253.431C770.128 258.129 767.838 261.735 764.245 264.251C760.888 266.611 756.764 267.278 751.87 266.251Z" fill="black"/>
</g>
<defs>
<clipPath id="clip0_115_21">
<rect width="1280" height="675" fill="white"/>
</clipPath>
</defs>
</svg>
